G04 #@! TF.GenerationSoftware,KiCad,Pcbnew,(5.1.5)-3*
G04 #@! TF.CreationDate,2020-04-20T18:44:57+02:00*
G04 #@! TF.ProjectId,RS485-Modbus-Tiny-Sensor-Module,52533438-352d-44d6-9f64-6275732d5469,rev?*
G04 #@! TF.SameCoordinates,Original*
G04 #@! TF.FileFunction,Paste,Top*
G04 #@! TF.FilePolarity,Positive*
%FSLAX46Y46*%
G04 Gerber Fmt 4.6, Leading zero omitted, Abs format (unit mm)*
G04 Created by KiCad (PCBNEW (5.1.5)-3) date 2020-04-20 18:44:57*
%MOMM*%
%LPD*%
G04 APERTURE LIST*
%ADD10C,0.050000*%
%ADD11C,0.100000*%
G04 APERTURE END LIST*
D10*
X213360000Y-115570000D02*
X182880000Y-115570000D01*
X213360000Y-83820000D02*
X213360000Y-115570000D01*
X182880000Y-83820000D02*
X213360000Y-83820000D01*
X182880000Y-115570000D02*
X182880000Y-83820000D01*
D11*
G36*
X185489505Y-95681204D02*
G01*
X185513773Y-95684804D01*
X185537572Y-95690765D01*
X185560671Y-95699030D01*
X185582850Y-95709520D01*
X185603893Y-95722132D01*
X185623599Y-95736747D01*
X185641777Y-95753223D01*
X185658253Y-95771401D01*
X185672868Y-95791107D01*
X185685480Y-95812150D01*
X185695970Y-95834329D01*
X185704235Y-95857428D01*
X185710196Y-95881227D01*
X185713796Y-95905495D01*
X185715000Y-95929999D01*
X185715000Y-96630001D01*
X185713796Y-96654505D01*
X185710196Y-96678773D01*
X185704235Y-96702572D01*
X185695970Y-96725671D01*
X185685480Y-96747850D01*
X185672868Y-96768893D01*
X185658253Y-96788599D01*
X185641777Y-96806777D01*
X185623599Y-96823253D01*
X185603893Y-96837868D01*
X185582850Y-96850480D01*
X185560671Y-96860970D01*
X185537572Y-96869235D01*
X185513773Y-96875196D01*
X185489505Y-96878796D01*
X185465001Y-96880000D01*
X184164999Y-96880000D01*
X184140495Y-96878796D01*
X184116227Y-96875196D01*
X184092428Y-96869235D01*
X184069329Y-96860970D01*
X184047150Y-96850480D01*
X184026107Y-96837868D01*
X184006401Y-96823253D01*
X183988223Y-96806777D01*
X183971747Y-96788599D01*
X183957132Y-96768893D01*
X183944520Y-96747850D01*
X183934030Y-96725671D01*
X183925765Y-96702572D01*
X183919804Y-96678773D01*
X183916204Y-96654505D01*
X183915000Y-96630001D01*
X183915000Y-95929999D01*
X183916204Y-95905495D01*
X183919804Y-95881227D01*
X183925765Y-95857428D01*
X183934030Y-95834329D01*
X183944520Y-95812150D01*
X183957132Y-95791107D01*
X183971747Y-95771401D01*
X183988223Y-95753223D01*
X184006401Y-95736747D01*
X184026107Y-95722132D01*
X184047150Y-95709520D01*
X184069329Y-95699030D01*
X184092428Y-95690765D01*
X184116227Y-95684804D01*
X184140495Y-95681204D01*
X184164999Y-95680000D01*
X185465001Y-95680000D01*
X185489505Y-95681204D01*
G37*
G36*
X185489505Y-91081204D02*
G01*
X185513773Y-91084804D01*
X185537572Y-91090765D01*
X185560671Y-91099030D01*
X185582850Y-91109520D01*
X185603893Y-91122132D01*
X185623599Y-91136747D01*
X185641777Y-91153223D01*
X185658253Y-91171401D01*
X185672868Y-91191107D01*
X185685480Y-91212150D01*
X185695970Y-91234329D01*
X185704235Y-91257428D01*
X185710196Y-91281227D01*
X185713796Y-91305495D01*
X185715000Y-91329999D01*
X185715000Y-92030001D01*
X185713796Y-92054505D01*
X185710196Y-92078773D01*
X185704235Y-92102572D01*
X185695970Y-92125671D01*
X185685480Y-92147850D01*
X185672868Y-92168893D01*
X185658253Y-92188599D01*
X185641777Y-92206777D01*
X185623599Y-92223253D01*
X185603893Y-92237868D01*
X185582850Y-92250480D01*
X185560671Y-92260970D01*
X185537572Y-92269235D01*
X185513773Y-92275196D01*
X185489505Y-92278796D01*
X185465001Y-92280000D01*
X184164999Y-92280000D01*
X184140495Y-92278796D01*
X184116227Y-92275196D01*
X184092428Y-92269235D01*
X184069329Y-92260970D01*
X184047150Y-92250480D01*
X184026107Y-92237868D01*
X184006401Y-92223253D01*
X183988223Y-92206777D01*
X183971747Y-92188599D01*
X183957132Y-92168893D01*
X183944520Y-92147850D01*
X183934030Y-92125671D01*
X183925765Y-92102572D01*
X183919804Y-92078773D01*
X183916204Y-92054505D01*
X183915000Y-92030001D01*
X183915000Y-91329999D01*
X183916204Y-91305495D01*
X183919804Y-91281227D01*
X183925765Y-91257428D01*
X183934030Y-91234329D01*
X183944520Y-91212150D01*
X183957132Y-91191107D01*
X183971747Y-91171401D01*
X183988223Y-91153223D01*
X184006401Y-91136747D01*
X184026107Y-91122132D01*
X184047150Y-91109520D01*
X184069329Y-91099030D01*
X184092428Y-91090765D01*
X184116227Y-91084804D01*
X184140495Y-91081204D01*
X184164999Y-91080000D01*
X185465001Y-91080000D01*
X185489505Y-91081204D01*
G37*
G36*
X189329703Y-94680722D02*
G01*
X189344264Y-94682882D01*
X189358543Y-94686459D01*
X189372403Y-94691418D01*
X189385710Y-94697712D01*
X189398336Y-94705280D01*
X189410159Y-94714048D01*
X189421066Y-94723934D01*
X189430952Y-94734841D01*
X189439720Y-94746664D01*
X189447288Y-94759290D01*
X189453582Y-94772597D01*
X189458541Y-94786457D01*
X189462118Y-94800736D01*
X189464278Y-94815297D01*
X189465000Y-94830000D01*
X189465000Y-95130000D01*
X189464278Y-95144703D01*
X189462118Y-95159264D01*
X189458541Y-95173543D01*
X189453582Y-95187403D01*
X189447288Y-95200710D01*
X189439720Y-95213336D01*
X189430952Y-95225159D01*
X189421066Y-95236066D01*
X189410159Y-95245952D01*
X189398336Y-95254720D01*
X189385710Y-95262288D01*
X189372403Y-95268582D01*
X189358543Y-95273541D01*
X189344264Y-95277118D01*
X189329703Y-95279278D01*
X189315000Y-95280000D01*
X188065000Y-95280000D01*
X188050297Y-95279278D01*
X188035736Y-95277118D01*
X188021457Y-95273541D01*
X188007597Y-95268582D01*
X187994290Y-95262288D01*
X187981664Y-95254720D01*
X187969841Y-95245952D01*
X187958934Y-95236066D01*
X187949048Y-95225159D01*
X187940280Y-95213336D01*
X187932712Y-95200710D01*
X187926418Y-95187403D01*
X187921459Y-95173543D01*
X187917882Y-95159264D01*
X187915722Y-95144703D01*
X187915000Y-95130000D01*
X187915000Y-94830000D01*
X187915722Y-94815297D01*
X187917882Y-94800736D01*
X187921459Y-94786457D01*
X187926418Y-94772597D01*
X187932712Y-94759290D01*
X187940280Y-94746664D01*
X187949048Y-94734841D01*
X187958934Y-94723934D01*
X187969841Y-94714048D01*
X187981664Y-94705280D01*
X187994290Y-94697712D01*
X188007597Y-94691418D01*
X188021457Y-94686459D01*
X188035736Y-94682882D01*
X188050297Y-94680722D01*
X188065000Y-94680000D01*
X189315000Y-94680000D01*
X189329703Y-94680722D01*
G37*
G36*
X189329703Y-93680722D02*
G01*
X189344264Y-93682882D01*
X189358543Y-93686459D01*
X189372403Y-93691418D01*
X189385710Y-93697712D01*
X189398336Y-93705280D01*
X189410159Y-93714048D01*
X189421066Y-93723934D01*
X189430952Y-93734841D01*
X189439720Y-93746664D01*
X189447288Y-93759290D01*
X189453582Y-93772597D01*
X189458541Y-93786457D01*
X189462118Y-93800736D01*
X189464278Y-93815297D01*
X189465000Y-93830000D01*
X189465000Y-94130000D01*
X189464278Y-94144703D01*
X189462118Y-94159264D01*
X189458541Y-94173543D01*
X189453582Y-94187403D01*
X189447288Y-94200710D01*
X189439720Y-94213336D01*
X189430952Y-94225159D01*
X189421066Y-94236066D01*
X189410159Y-94245952D01*
X189398336Y-94254720D01*
X189385710Y-94262288D01*
X189372403Y-94268582D01*
X189358543Y-94273541D01*
X189344264Y-94277118D01*
X189329703Y-94279278D01*
X189315000Y-94280000D01*
X188065000Y-94280000D01*
X188050297Y-94279278D01*
X188035736Y-94277118D01*
X188021457Y-94273541D01*
X188007597Y-94268582D01*
X187994290Y-94262288D01*
X187981664Y-94254720D01*
X187969841Y-94245952D01*
X187958934Y-94236066D01*
X187949048Y-94225159D01*
X187940280Y-94213336D01*
X187932712Y-94200710D01*
X187926418Y-94187403D01*
X187921459Y-94173543D01*
X187917882Y-94159264D01*
X187915722Y-94144703D01*
X187915000Y-94130000D01*
X187915000Y-93830000D01*
X187915722Y-93815297D01*
X187917882Y-93800736D01*
X187921459Y-93786457D01*
X187926418Y-93772597D01*
X187932712Y-93759290D01*
X187940280Y-93746664D01*
X187949048Y-93734841D01*
X187958934Y-93723934D01*
X187969841Y-93714048D01*
X187981664Y-93705280D01*
X187994290Y-93697712D01*
X188007597Y-93691418D01*
X188021457Y-93686459D01*
X188035736Y-93682882D01*
X188050297Y-93680722D01*
X188065000Y-93680000D01*
X189315000Y-93680000D01*
X189329703Y-93680722D01*
G37*
G36*
X189329703Y-92680722D02*
G01*
X189344264Y-92682882D01*
X189358543Y-92686459D01*
X189372403Y-92691418D01*
X189385710Y-92697712D01*
X189398336Y-92705280D01*
X189410159Y-92714048D01*
X189421066Y-92723934D01*
X189430952Y-92734841D01*
X189439720Y-92746664D01*
X189447288Y-92759290D01*
X189453582Y-92772597D01*
X189458541Y-92786457D01*
X189462118Y-92800736D01*
X189464278Y-92815297D01*
X189465000Y-92830000D01*
X189465000Y-93130000D01*
X189464278Y-93144703D01*
X189462118Y-93159264D01*
X189458541Y-93173543D01*
X189453582Y-93187403D01*
X189447288Y-93200710D01*
X189439720Y-93213336D01*
X189430952Y-93225159D01*
X189421066Y-93236066D01*
X189410159Y-93245952D01*
X189398336Y-93254720D01*
X189385710Y-93262288D01*
X189372403Y-93268582D01*
X189358543Y-93273541D01*
X189344264Y-93277118D01*
X189329703Y-93279278D01*
X189315000Y-93280000D01*
X188065000Y-93280000D01*
X188050297Y-93279278D01*
X188035736Y-93277118D01*
X188021457Y-93273541D01*
X188007597Y-93268582D01*
X187994290Y-93262288D01*
X187981664Y-93254720D01*
X187969841Y-93245952D01*
X187958934Y-93236066D01*
X187949048Y-93225159D01*
X187940280Y-93213336D01*
X187932712Y-93200710D01*
X187926418Y-93187403D01*
X187921459Y-93173543D01*
X187917882Y-93159264D01*
X187915722Y-93144703D01*
X187915000Y-93130000D01*
X187915000Y-92830000D01*
X187915722Y-92815297D01*
X187917882Y-92800736D01*
X187921459Y-92786457D01*
X187926418Y-92772597D01*
X187932712Y-92759290D01*
X187940280Y-92746664D01*
X187949048Y-92734841D01*
X187958934Y-92723934D01*
X187969841Y-92714048D01*
X187981664Y-92705280D01*
X187994290Y-92697712D01*
X188007597Y-92691418D01*
X188021457Y-92686459D01*
X188035736Y-92682882D01*
X188050297Y-92680722D01*
X188065000Y-92680000D01*
X189315000Y-92680000D01*
X189329703Y-92680722D01*
G37*
G36*
X202564505Y-111466204D02*
G01*
X202588773Y-111469804D01*
X202612572Y-111475765D01*
X202635671Y-111484030D01*
X202657850Y-111494520D01*
X202678893Y-111507132D01*
X202698599Y-111521747D01*
X202716777Y-111538223D01*
X202733253Y-111556401D01*
X202747868Y-111576107D01*
X202760480Y-111597150D01*
X202770970Y-111619329D01*
X202779235Y-111642428D01*
X202785196Y-111666227D01*
X202788796Y-111690495D01*
X202790000Y-111714999D01*
X202790000Y-113015001D01*
X202788796Y-113039505D01*
X202785196Y-113063773D01*
X202779235Y-113087572D01*
X202770970Y-113110671D01*
X202760480Y-113132850D01*
X202747868Y-113153893D01*
X202733253Y-113173599D01*
X202716777Y-113191777D01*
X202698599Y-113208253D01*
X202678893Y-113222868D01*
X202657850Y-113235480D01*
X202635671Y-113245970D01*
X202612572Y-113254235D01*
X202588773Y-113260196D01*
X202564505Y-113263796D01*
X202540001Y-113265000D01*
X201839999Y-113265000D01*
X201815495Y-113263796D01*
X201791227Y-113260196D01*
X201767428Y-113254235D01*
X201744329Y-113245970D01*
X201722150Y-113235480D01*
X201701107Y-113222868D01*
X201681401Y-113208253D01*
X201663223Y-113191777D01*
X201646747Y-113173599D01*
X201632132Y-113153893D01*
X201619520Y-113132850D01*
X201609030Y-113110671D01*
X201600765Y-113087572D01*
X201594804Y-113063773D01*
X201591204Y-113039505D01*
X201590000Y-113015001D01*
X201590000Y-111714999D01*
X201591204Y-111690495D01*
X201594804Y-111666227D01*
X201600765Y-111642428D01*
X201609030Y-111619329D01*
X201619520Y-111597150D01*
X201632132Y-111576107D01*
X201646747Y-111556401D01*
X201663223Y-111538223D01*
X201681401Y-111521747D01*
X201701107Y-111507132D01*
X201722150Y-111494520D01*
X201744329Y-111484030D01*
X201767428Y-111475765D01*
X201791227Y-111469804D01*
X201815495Y-111466204D01*
X201839999Y-111465000D01*
X202540001Y-111465000D01*
X202564505Y-111466204D01*
G37*
G36*
X196964505Y-111466204D02*
G01*
X196988773Y-111469804D01*
X197012572Y-111475765D01*
X197035671Y-111484030D01*
X197057850Y-111494520D01*
X197078893Y-111507132D01*
X197098599Y-111521747D01*
X197116777Y-111538223D01*
X197133253Y-111556401D01*
X197147868Y-111576107D01*
X197160480Y-111597150D01*
X197170970Y-111619329D01*
X197179235Y-111642428D01*
X197185196Y-111666227D01*
X197188796Y-111690495D01*
X197190000Y-111714999D01*
X197190000Y-113015001D01*
X197188796Y-113039505D01*
X197185196Y-113063773D01*
X197179235Y-113087572D01*
X197170970Y-113110671D01*
X197160480Y-113132850D01*
X197147868Y-113153893D01*
X197133253Y-113173599D01*
X197116777Y-113191777D01*
X197098599Y-113208253D01*
X197078893Y-113222868D01*
X197057850Y-113235480D01*
X197035671Y-113245970D01*
X197012572Y-113254235D01*
X196988773Y-113260196D01*
X196964505Y-113263796D01*
X196940001Y-113265000D01*
X196239999Y-113265000D01*
X196215495Y-113263796D01*
X196191227Y-113260196D01*
X196167428Y-113254235D01*
X196144329Y-113245970D01*
X196122150Y-113235480D01*
X196101107Y-113222868D01*
X196081401Y-113208253D01*
X196063223Y-113191777D01*
X196046747Y-113173599D01*
X196032132Y-113153893D01*
X196019520Y-113132850D01*
X196009030Y-113110671D01*
X196000765Y-113087572D01*
X195994804Y-113063773D01*
X195991204Y-113039505D01*
X195990000Y-113015001D01*
X195990000Y-111714999D01*
X195991204Y-111690495D01*
X195994804Y-111666227D01*
X196000765Y-111642428D01*
X196009030Y-111619329D01*
X196019520Y-111597150D01*
X196032132Y-111576107D01*
X196046747Y-111556401D01*
X196063223Y-111538223D01*
X196081401Y-111521747D01*
X196101107Y-111507132D01*
X196122150Y-111494520D01*
X196144329Y-111484030D01*
X196167428Y-111475765D01*
X196191227Y-111469804D01*
X196215495Y-111466204D01*
X196239999Y-111465000D01*
X196940001Y-111465000D01*
X196964505Y-111466204D01*
G37*
G36*
X201054703Y-107715722D02*
G01*
X201069264Y-107717882D01*
X201083543Y-107721459D01*
X201097403Y-107726418D01*
X201110710Y-107732712D01*
X201123336Y-107740280D01*
X201135159Y-107749048D01*
X201146066Y-107758934D01*
X201155952Y-107769841D01*
X201164720Y-107781664D01*
X201172288Y-107794290D01*
X201178582Y-107807597D01*
X201183541Y-107821457D01*
X201187118Y-107835736D01*
X201189278Y-107850297D01*
X201190000Y-107865000D01*
X201190000Y-109115000D01*
X201189278Y-109129703D01*
X201187118Y-109144264D01*
X201183541Y-109158543D01*
X201178582Y-109172403D01*
X201172288Y-109185710D01*
X201164720Y-109198336D01*
X201155952Y-109210159D01*
X201146066Y-109221066D01*
X201135159Y-109230952D01*
X201123336Y-109239720D01*
X201110710Y-109247288D01*
X201097403Y-109253582D01*
X201083543Y-109258541D01*
X201069264Y-109262118D01*
X201054703Y-109264278D01*
X201040000Y-109265000D01*
X200740000Y-109265000D01*
X200725297Y-109264278D01*
X200710736Y-109262118D01*
X200696457Y-109258541D01*
X200682597Y-109253582D01*
X200669290Y-109247288D01*
X200656664Y-109239720D01*
X200644841Y-109230952D01*
X200633934Y-109221066D01*
X200624048Y-109210159D01*
X200615280Y-109198336D01*
X200607712Y-109185710D01*
X200601418Y-109172403D01*
X200596459Y-109158543D01*
X200592882Y-109144264D01*
X200590722Y-109129703D01*
X200590000Y-109115000D01*
X200590000Y-107865000D01*
X200590722Y-107850297D01*
X200592882Y-107835736D01*
X200596459Y-107821457D01*
X200601418Y-107807597D01*
X200607712Y-107794290D01*
X200615280Y-107781664D01*
X200624048Y-107769841D01*
X200633934Y-107758934D01*
X200644841Y-107749048D01*
X200656664Y-107740280D01*
X200669290Y-107732712D01*
X200682597Y-107726418D01*
X200696457Y-107721459D01*
X200710736Y-107717882D01*
X200725297Y-107715722D01*
X200740000Y-107715000D01*
X201040000Y-107715000D01*
X201054703Y-107715722D01*
G37*
G36*
X200054703Y-107715722D02*
G01*
X200069264Y-107717882D01*
X200083543Y-107721459D01*
X200097403Y-107726418D01*
X200110710Y-107732712D01*
X200123336Y-107740280D01*
X200135159Y-107749048D01*
X200146066Y-107758934D01*
X200155952Y-107769841D01*
X200164720Y-107781664D01*
X200172288Y-107794290D01*
X200178582Y-107807597D01*
X200183541Y-107821457D01*
X200187118Y-107835736D01*
X200189278Y-107850297D01*
X200190000Y-107865000D01*
X200190000Y-109115000D01*
X200189278Y-109129703D01*
X200187118Y-109144264D01*
X200183541Y-109158543D01*
X200178582Y-109172403D01*
X200172288Y-109185710D01*
X200164720Y-109198336D01*
X200155952Y-109210159D01*
X200146066Y-109221066D01*
X200135159Y-109230952D01*
X200123336Y-109239720D01*
X200110710Y-109247288D01*
X200097403Y-109253582D01*
X200083543Y-109258541D01*
X200069264Y-109262118D01*
X200054703Y-109264278D01*
X200040000Y-109265000D01*
X199740000Y-109265000D01*
X199725297Y-109264278D01*
X199710736Y-109262118D01*
X199696457Y-109258541D01*
X199682597Y-109253582D01*
X199669290Y-109247288D01*
X199656664Y-109239720D01*
X199644841Y-109230952D01*
X199633934Y-109221066D01*
X199624048Y-109210159D01*
X199615280Y-109198336D01*
X199607712Y-109185710D01*
X199601418Y-109172403D01*
X199596459Y-109158543D01*
X199592882Y-109144264D01*
X199590722Y-109129703D01*
X199590000Y-109115000D01*
X199590000Y-107865000D01*
X199590722Y-107850297D01*
X199592882Y-107835736D01*
X199596459Y-107821457D01*
X199601418Y-107807597D01*
X199607712Y-107794290D01*
X199615280Y-107781664D01*
X199624048Y-107769841D01*
X199633934Y-107758934D01*
X199644841Y-107749048D01*
X199656664Y-107740280D01*
X199669290Y-107732712D01*
X199682597Y-107726418D01*
X199696457Y-107721459D01*
X199710736Y-107717882D01*
X199725297Y-107715722D01*
X199740000Y-107715000D01*
X200040000Y-107715000D01*
X200054703Y-107715722D01*
G37*
G36*
X199054703Y-107715722D02*
G01*
X199069264Y-107717882D01*
X199083543Y-107721459D01*
X199097403Y-107726418D01*
X199110710Y-107732712D01*
X199123336Y-107740280D01*
X199135159Y-107749048D01*
X199146066Y-107758934D01*
X199155952Y-107769841D01*
X199164720Y-107781664D01*
X199172288Y-107794290D01*
X199178582Y-107807597D01*
X199183541Y-107821457D01*
X199187118Y-107835736D01*
X199189278Y-107850297D01*
X199190000Y-107865000D01*
X199190000Y-109115000D01*
X199189278Y-109129703D01*
X199187118Y-109144264D01*
X199183541Y-109158543D01*
X199178582Y-109172403D01*
X199172288Y-109185710D01*
X199164720Y-109198336D01*
X199155952Y-109210159D01*
X199146066Y-109221066D01*
X199135159Y-109230952D01*
X199123336Y-109239720D01*
X199110710Y-109247288D01*
X199097403Y-109253582D01*
X199083543Y-109258541D01*
X199069264Y-109262118D01*
X199054703Y-109264278D01*
X199040000Y-109265000D01*
X198740000Y-109265000D01*
X198725297Y-109264278D01*
X198710736Y-109262118D01*
X198696457Y-109258541D01*
X198682597Y-109253582D01*
X198669290Y-109247288D01*
X198656664Y-109239720D01*
X198644841Y-109230952D01*
X198633934Y-109221066D01*
X198624048Y-109210159D01*
X198615280Y-109198336D01*
X198607712Y-109185710D01*
X198601418Y-109172403D01*
X198596459Y-109158543D01*
X198592882Y-109144264D01*
X198590722Y-109129703D01*
X198590000Y-109115000D01*
X198590000Y-107865000D01*
X198590722Y-107850297D01*
X198592882Y-107835736D01*
X198596459Y-107821457D01*
X198601418Y-107807597D01*
X198607712Y-107794290D01*
X198615280Y-107781664D01*
X198624048Y-107769841D01*
X198633934Y-107758934D01*
X198644841Y-107749048D01*
X198656664Y-107740280D01*
X198669290Y-107732712D01*
X198682597Y-107726418D01*
X198696457Y-107721459D01*
X198710736Y-107717882D01*
X198725297Y-107715722D01*
X198740000Y-107715000D01*
X199040000Y-107715000D01*
X199054703Y-107715722D01*
G37*
G36*
X198054703Y-107715722D02*
G01*
X198069264Y-107717882D01*
X198083543Y-107721459D01*
X198097403Y-107726418D01*
X198110710Y-107732712D01*
X198123336Y-107740280D01*
X198135159Y-107749048D01*
X198146066Y-107758934D01*
X198155952Y-107769841D01*
X198164720Y-107781664D01*
X198172288Y-107794290D01*
X198178582Y-107807597D01*
X198183541Y-107821457D01*
X198187118Y-107835736D01*
X198189278Y-107850297D01*
X198190000Y-107865000D01*
X198190000Y-109115000D01*
X198189278Y-109129703D01*
X198187118Y-109144264D01*
X198183541Y-109158543D01*
X198178582Y-109172403D01*
X198172288Y-109185710D01*
X198164720Y-109198336D01*
X198155952Y-109210159D01*
X198146066Y-109221066D01*
X198135159Y-109230952D01*
X198123336Y-109239720D01*
X198110710Y-109247288D01*
X198097403Y-109253582D01*
X198083543Y-109258541D01*
X198069264Y-109262118D01*
X198054703Y-109264278D01*
X198040000Y-109265000D01*
X197740000Y-109265000D01*
X197725297Y-109264278D01*
X197710736Y-109262118D01*
X197696457Y-109258541D01*
X197682597Y-109253582D01*
X197669290Y-109247288D01*
X197656664Y-109239720D01*
X197644841Y-109230952D01*
X197633934Y-109221066D01*
X197624048Y-109210159D01*
X197615280Y-109198336D01*
X197607712Y-109185710D01*
X197601418Y-109172403D01*
X197596459Y-109158543D01*
X197592882Y-109144264D01*
X197590722Y-109129703D01*
X197590000Y-109115000D01*
X197590000Y-107865000D01*
X197590722Y-107850297D01*
X197592882Y-107835736D01*
X197596459Y-107821457D01*
X197601418Y-107807597D01*
X197607712Y-107794290D01*
X197615280Y-107781664D01*
X197624048Y-107769841D01*
X197633934Y-107758934D01*
X197644841Y-107749048D01*
X197656664Y-107740280D01*
X197669290Y-107732712D01*
X197682597Y-107726418D01*
X197696457Y-107721459D01*
X197710736Y-107717882D01*
X197725297Y-107715722D01*
X197740000Y-107715000D01*
X198040000Y-107715000D01*
X198054703Y-107715722D01*
G37*
G36*
X194359703Y-93045722D02*
G01*
X194374264Y-93047882D01*
X194388543Y-93051459D01*
X194402403Y-93056418D01*
X194415710Y-93062712D01*
X194428336Y-93070280D01*
X194440159Y-93079048D01*
X194451066Y-93088934D01*
X194460952Y-93099841D01*
X194469720Y-93111664D01*
X194477288Y-93124290D01*
X194483582Y-93137597D01*
X194488541Y-93151457D01*
X194492118Y-93165736D01*
X194494278Y-93180297D01*
X194495000Y-93195000D01*
X194495000Y-93495000D01*
X194494278Y-93509703D01*
X194492118Y-93524264D01*
X194488541Y-93538543D01*
X194483582Y-93552403D01*
X194477288Y-93565710D01*
X194469720Y-93578336D01*
X194460952Y-93590159D01*
X194451066Y-93601066D01*
X194440159Y-93610952D01*
X194428336Y-93619720D01*
X194415710Y-93627288D01*
X194402403Y-93633582D01*
X194388543Y-93638541D01*
X194374264Y-93642118D01*
X194359703Y-93644278D01*
X194345000Y-93645000D01*
X192595000Y-93645000D01*
X192580297Y-93644278D01*
X192565736Y-93642118D01*
X192551457Y-93638541D01*
X192537597Y-93633582D01*
X192524290Y-93627288D01*
X192511664Y-93619720D01*
X192499841Y-93610952D01*
X192488934Y-93601066D01*
X192479048Y-93590159D01*
X192470280Y-93578336D01*
X192462712Y-93565710D01*
X192456418Y-93552403D01*
X192451459Y-93538543D01*
X192447882Y-93524264D01*
X192445722Y-93509703D01*
X192445000Y-93495000D01*
X192445000Y-93195000D01*
X192445722Y-93180297D01*
X192447882Y-93165736D01*
X192451459Y-93151457D01*
X192456418Y-93137597D01*
X192462712Y-93124290D01*
X192470280Y-93111664D01*
X192479048Y-93099841D01*
X192488934Y-93088934D01*
X192499841Y-93079048D01*
X192511664Y-93070280D01*
X192524290Y-93062712D01*
X192537597Y-93056418D01*
X192551457Y-93051459D01*
X192565736Y-93047882D01*
X192580297Y-93045722D01*
X192595000Y-93045000D01*
X194345000Y-93045000D01*
X194359703Y-93045722D01*
G37*
G36*
X194359703Y-94315722D02*
G01*
X194374264Y-94317882D01*
X194388543Y-94321459D01*
X194402403Y-94326418D01*
X194415710Y-94332712D01*
X194428336Y-94340280D01*
X194440159Y-94349048D01*
X194451066Y-94358934D01*
X194460952Y-94369841D01*
X194469720Y-94381664D01*
X194477288Y-94394290D01*
X194483582Y-94407597D01*
X194488541Y-94421457D01*
X194492118Y-94435736D01*
X194494278Y-94450297D01*
X194495000Y-94465000D01*
X194495000Y-94765000D01*
X194494278Y-94779703D01*
X194492118Y-94794264D01*
X194488541Y-94808543D01*
X194483582Y-94822403D01*
X194477288Y-94835710D01*
X194469720Y-94848336D01*
X194460952Y-94860159D01*
X194451066Y-94871066D01*
X194440159Y-94880952D01*
X194428336Y-94889720D01*
X194415710Y-94897288D01*
X194402403Y-94903582D01*
X194388543Y-94908541D01*
X194374264Y-94912118D01*
X194359703Y-94914278D01*
X194345000Y-94915000D01*
X192595000Y-94915000D01*
X192580297Y-94914278D01*
X192565736Y-94912118D01*
X192551457Y-94908541D01*
X192537597Y-94903582D01*
X192524290Y-94897288D01*
X192511664Y-94889720D01*
X192499841Y-94880952D01*
X192488934Y-94871066D01*
X192479048Y-94860159D01*
X192470280Y-94848336D01*
X192462712Y-94835710D01*
X192456418Y-94822403D01*
X192451459Y-94808543D01*
X192447882Y-94794264D01*
X192445722Y-94779703D01*
X192445000Y-94765000D01*
X192445000Y-94465000D01*
X192445722Y-94450297D01*
X192447882Y-94435736D01*
X192451459Y-94421457D01*
X192456418Y-94407597D01*
X192462712Y-94394290D01*
X192470280Y-94381664D01*
X192479048Y-94369841D01*
X192488934Y-94358934D01*
X192499841Y-94349048D01*
X192511664Y-94340280D01*
X192524290Y-94332712D01*
X192537597Y-94326418D01*
X192551457Y-94321459D01*
X192565736Y-94317882D01*
X192580297Y-94315722D01*
X192595000Y-94315000D01*
X194345000Y-94315000D01*
X194359703Y-94315722D01*
G37*
G36*
X194359703Y-95585722D02*
G01*
X194374264Y-95587882D01*
X194388543Y-95591459D01*
X194402403Y-95596418D01*
X194415710Y-95602712D01*
X194428336Y-95610280D01*
X194440159Y-95619048D01*
X194451066Y-95628934D01*
X194460952Y-95639841D01*
X194469720Y-95651664D01*
X194477288Y-95664290D01*
X194483582Y-95677597D01*
X194488541Y-95691457D01*
X194492118Y-95705736D01*
X194494278Y-95720297D01*
X194495000Y-95735000D01*
X194495000Y-96035000D01*
X194494278Y-96049703D01*
X194492118Y-96064264D01*
X194488541Y-96078543D01*
X194483582Y-96092403D01*
X194477288Y-96105710D01*
X194469720Y-96118336D01*
X194460952Y-96130159D01*
X194451066Y-96141066D01*
X194440159Y-96150952D01*
X194428336Y-96159720D01*
X194415710Y-96167288D01*
X194402403Y-96173582D01*
X194388543Y-96178541D01*
X194374264Y-96182118D01*
X194359703Y-96184278D01*
X194345000Y-96185000D01*
X192595000Y-96185000D01*
X192580297Y-96184278D01*
X192565736Y-96182118D01*
X192551457Y-96178541D01*
X192537597Y-96173582D01*
X192524290Y-96167288D01*
X192511664Y-96159720D01*
X192499841Y-96150952D01*
X192488934Y-96141066D01*
X192479048Y-96130159D01*
X192470280Y-96118336D01*
X192462712Y-96105710D01*
X192456418Y-96092403D01*
X192451459Y-96078543D01*
X192447882Y-96064264D01*
X192445722Y-96049703D01*
X192445000Y-96035000D01*
X192445000Y-95735000D01*
X192445722Y-95720297D01*
X192447882Y-95705736D01*
X192451459Y-95691457D01*
X192456418Y-95677597D01*
X192462712Y-95664290D01*
X192470280Y-95651664D01*
X192479048Y-95639841D01*
X192488934Y-95628934D01*
X192499841Y-95619048D01*
X192511664Y-95610280D01*
X192524290Y-95602712D01*
X192537597Y-95596418D01*
X192551457Y-95591459D01*
X192565736Y-95587882D01*
X192580297Y-95585722D01*
X192595000Y-95585000D01*
X194345000Y-95585000D01*
X194359703Y-95585722D01*
G37*
G36*
X194359703Y-96855722D02*
G01*
X194374264Y-96857882D01*
X194388543Y-96861459D01*
X194402403Y-96866418D01*
X194415710Y-96872712D01*
X194428336Y-96880280D01*
X194440159Y-96889048D01*
X194451066Y-96898934D01*
X194460952Y-96909841D01*
X194469720Y-96921664D01*
X194477288Y-96934290D01*
X194483582Y-96947597D01*
X194488541Y-96961457D01*
X194492118Y-96975736D01*
X194494278Y-96990297D01*
X194495000Y-97005000D01*
X194495000Y-97305000D01*
X194494278Y-97319703D01*
X194492118Y-97334264D01*
X194488541Y-97348543D01*
X194483582Y-97362403D01*
X194477288Y-97375710D01*
X194469720Y-97388336D01*
X194460952Y-97400159D01*
X194451066Y-97411066D01*
X194440159Y-97420952D01*
X194428336Y-97429720D01*
X194415710Y-97437288D01*
X194402403Y-97443582D01*
X194388543Y-97448541D01*
X194374264Y-97452118D01*
X194359703Y-97454278D01*
X194345000Y-97455000D01*
X192595000Y-97455000D01*
X192580297Y-97454278D01*
X192565736Y-97452118D01*
X192551457Y-97448541D01*
X192537597Y-97443582D01*
X192524290Y-97437288D01*
X192511664Y-97429720D01*
X192499841Y-97420952D01*
X192488934Y-97411066D01*
X192479048Y-97400159D01*
X192470280Y-97388336D01*
X192462712Y-97375710D01*
X192456418Y-97362403D01*
X192451459Y-97348543D01*
X192447882Y-97334264D01*
X192445722Y-97319703D01*
X192445000Y-97305000D01*
X192445000Y-97005000D01*
X192445722Y-96990297D01*
X192447882Y-96975736D01*
X192451459Y-96961457D01*
X192456418Y-96947597D01*
X192462712Y-96934290D01*
X192470280Y-96921664D01*
X192479048Y-96909841D01*
X192488934Y-96898934D01*
X192499841Y-96889048D01*
X192511664Y-96880280D01*
X192524290Y-96872712D01*
X192537597Y-96866418D01*
X192551457Y-96861459D01*
X192565736Y-96857882D01*
X192580297Y-96855722D01*
X192595000Y-96855000D01*
X194345000Y-96855000D01*
X194359703Y-96855722D01*
G37*
G36*
X194359703Y-98125722D02*
G01*
X194374264Y-98127882D01*
X194388543Y-98131459D01*
X194402403Y-98136418D01*
X194415710Y-98142712D01*
X194428336Y-98150280D01*
X194440159Y-98159048D01*
X194451066Y-98168934D01*
X194460952Y-98179841D01*
X194469720Y-98191664D01*
X194477288Y-98204290D01*
X194483582Y-98217597D01*
X194488541Y-98231457D01*
X194492118Y-98245736D01*
X194494278Y-98260297D01*
X194495000Y-98275000D01*
X194495000Y-98575000D01*
X194494278Y-98589703D01*
X194492118Y-98604264D01*
X194488541Y-98618543D01*
X194483582Y-98632403D01*
X194477288Y-98645710D01*
X194469720Y-98658336D01*
X194460952Y-98670159D01*
X194451066Y-98681066D01*
X194440159Y-98690952D01*
X194428336Y-98699720D01*
X194415710Y-98707288D01*
X194402403Y-98713582D01*
X194388543Y-98718541D01*
X194374264Y-98722118D01*
X194359703Y-98724278D01*
X194345000Y-98725000D01*
X192595000Y-98725000D01*
X192580297Y-98724278D01*
X192565736Y-98722118D01*
X192551457Y-98718541D01*
X192537597Y-98713582D01*
X192524290Y-98707288D01*
X192511664Y-98699720D01*
X192499841Y-98690952D01*
X192488934Y-98681066D01*
X192479048Y-98670159D01*
X192470280Y-98658336D01*
X192462712Y-98645710D01*
X192456418Y-98632403D01*
X192451459Y-98618543D01*
X192447882Y-98604264D01*
X192445722Y-98589703D01*
X192445000Y-98575000D01*
X192445000Y-98275000D01*
X192445722Y-98260297D01*
X192447882Y-98245736D01*
X192451459Y-98231457D01*
X192456418Y-98217597D01*
X192462712Y-98204290D01*
X192470280Y-98191664D01*
X192479048Y-98179841D01*
X192488934Y-98168934D01*
X192499841Y-98159048D01*
X192511664Y-98150280D01*
X192524290Y-98142712D01*
X192537597Y-98136418D01*
X192551457Y-98131459D01*
X192565736Y-98127882D01*
X192580297Y-98125722D01*
X192595000Y-98125000D01*
X194345000Y-98125000D01*
X194359703Y-98125722D01*
G37*
G36*
X194359703Y-99395722D02*
G01*
X194374264Y-99397882D01*
X194388543Y-99401459D01*
X194402403Y-99406418D01*
X194415710Y-99412712D01*
X194428336Y-99420280D01*
X194440159Y-99429048D01*
X194451066Y-99438934D01*
X194460952Y-99449841D01*
X194469720Y-99461664D01*
X194477288Y-99474290D01*
X194483582Y-99487597D01*
X194488541Y-99501457D01*
X194492118Y-99515736D01*
X194494278Y-99530297D01*
X194495000Y-99545000D01*
X194495000Y-99845000D01*
X194494278Y-99859703D01*
X194492118Y-99874264D01*
X194488541Y-99888543D01*
X194483582Y-99902403D01*
X194477288Y-99915710D01*
X194469720Y-99928336D01*
X194460952Y-99940159D01*
X194451066Y-99951066D01*
X194440159Y-99960952D01*
X194428336Y-99969720D01*
X194415710Y-99977288D01*
X194402403Y-99983582D01*
X194388543Y-99988541D01*
X194374264Y-99992118D01*
X194359703Y-99994278D01*
X194345000Y-99995000D01*
X192595000Y-99995000D01*
X192580297Y-99994278D01*
X192565736Y-99992118D01*
X192551457Y-99988541D01*
X192537597Y-99983582D01*
X192524290Y-99977288D01*
X192511664Y-99969720D01*
X192499841Y-99960952D01*
X192488934Y-99951066D01*
X192479048Y-99940159D01*
X192470280Y-99928336D01*
X192462712Y-99915710D01*
X192456418Y-99902403D01*
X192451459Y-99888543D01*
X192447882Y-99874264D01*
X192445722Y-99859703D01*
X192445000Y-99845000D01*
X192445000Y-99545000D01*
X192445722Y-99530297D01*
X192447882Y-99515736D01*
X192451459Y-99501457D01*
X192456418Y-99487597D01*
X192462712Y-99474290D01*
X192470280Y-99461664D01*
X192479048Y-99449841D01*
X192488934Y-99438934D01*
X192499841Y-99429048D01*
X192511664Y-99420280D01*
X192524290Y-99412712D01*
X192537597Y-99406418D01*
X192551457Y-99401459D01*
X192565736Y-99397882D01*
X192580297Y-99395722D01*
X192595000Y-99395000D01*
X194345000Y-99395000D01*
X194359703Y-99395722D01*
G37*
G36*
X194359703Y-100665722D02*
G01*
X194374264Y-100667882D01*
X194388543Y-100671459D01*
X194402403Y-100676418D01*
X194415710Y-100682712D01*
X194428336Y-100690280D01*
X194440159Y-100699048D01*
X194451066Y-100708934D01*
X194460952Y-100719841D01*
X194469720Y-100731664D01*
X194477288Y-100744290D01*
X194483582Y-100757597D01*
X194488541Y-100771457D01*
X194492118Y-100785736D01*
X194494278Y-100800297D01*
X194495000Y-100815000D01*
X194495000Y-101115000D01*
X194494278Y-101129703D01*
X194492118Y-101144264D01*
X194488541Y-101158543D01*
X194483582Y-101172403D01*
X194477288Y-101185710D01*
X194469720Y-101198336D01*
X194460952Y-101210159D01*
X194451066Y-101221066D01*
X194440159Y-101230952D01*
X194428336Y-101239720D01*
X194415710Y-101247288D01*
X194402403Y-101253582D01*
X194388543Y-101258541D01*
X194374264Y-101262118D01*
X194359703Y-101264278D01*
X194345000Y-101265000D01*
X192595000Y-101265000D01*
X192580297Y-101264278D01*
X192565736Y-101262118D01*
X192551457Y-101258541D01*
X192537597Y-101253582D01*
X192524290Y-101247288D01*
X192511664Y-101239720D01*
X192499841Y-101230952D01*
X192488934Y-101221066D01*
X192479048Y-101210159D01*
X192470280Y-101198336D01*
X192462712Y-101185710D01*
X192456418Y-101172403D01*
X192451459Y-101158543D01*
X192447882Y-101144264D01*
X192445722Y-101129703D01*
X192445000Y-101115000D01*
X192445000Y-100815000D01*
X192445722Y-100800297D01*
X192447882Y-100785736D01*
X192451459Y-100771457D01*
X192456418Y-100757597D01*
X192462712Y-100744290D01*
X192470280Y-100731664D01*
X192479048Y-100719841D01*
X192488934Y-100708934D01*
X192499841Y-100699048D01*
X192511664Y-100690280D01*
X192524290Y-100682712D01*
X192537597Y-100676418D01*
X192551457Y-100671459D01*
X192565736Y-100667882D01*
X192580297Y-100665722D01*
X192595000Y-100665000D01*
X194345000Y-100665000D01*
X194359703Y-100665722D01*
G37*
G36*
X194359703Y-101935722D02*
G01*
X194374264Y-101937882D01*
X194388543Y-101941459D01*
X194402403Y-101946418D01*
X194415710Y-101952712D01*
X194428336Y-101960280D01*
X194440159Y-101969048D01*
X194451066Y-101978934D01*
X194460952Y-101989841D01*
X194469720Y-102001664D01*
X194477288Y-102014290D01*
X194483582Y-102027597D01*
X194488541Y-102041457D01*
X194492118Y-102055736D01*
X194494278Y-102070297D01*
X194495000Y-102085000D01*
X194495000Y-102385000D01*
X194494278Y-102399703D01*
X194492118Y-102414264D01*
X194488541Y-102428543D01*
X194483582Y-102442403D01*
X194477288Y-102455710D01*
X194469720Y-102468336D01*
X194460952Y-102480159D01*
X194451066Y-102491066D01*
X194440159Y-102500952D01*
X194428336Y-102509720D01*
X194415710Y-102517288D01*
X194402403Y-102523582D01*
X194388543Y-102528541D01*
X194374264Y-102532118D01*
X194359703Y-102534278D01*
X194345000Y-102535000D01*
X192595000Y-102535000D01*
X192580297Y-102534278D01*
X192565736Y-102532118D01*
X192551457Y-102528541D01*
X192537597Y-102523582D01*
X192524290Y-102517288D01*
X192511664Y-102509720D01*
X192499841Y-102500952D01*
X192488934Y-102491066D01*
X192479048Y-102480159D01*
X192470280Y-102468336D01*
X192462712Y-102455710D01*
X192456418Y-102442403D01*
X192451459Y-102428543D01*
X192447882Y-102414264D01*
X192445722Y-102399703D01*
X192445000Y-102385000D01*
X192445000Y-102085000D01*
X192445722Y-102070297D01*
X192447882Y-102055736D01*
X192451459Y-102041457D01*
X192456418Y-102027597D01*
X192462712Y-102014290D01*
X192470280Y-102001664D01*
X192479048Y-101989841D01*
X192488934Y-101978934D01*
X192499841Y-101969048D01*
X192511664Y-101960280D01*
X192524290Y-101952712D01*
X192537597Y-101946418D01*
X192551457Y-101941459D01*
X192565736Y-101937882D01*
X192580297Y-101935722D01*
X192595000Y-101935000D01*
X194345000Y-101935000D01*
X194359703Y-101935722D01*
G37*
G36*
X194359703Y-103205722D02*
G01*
X194374264Y-103207882D01*
X194388543Y-103211459D01*
X194402403Y-103216418D01*
X194415710Y-103222712D01*
X194428336Y-103230280D01*
X194440159Y-103239048D01*
X194451066Y-103248934D01*
X194460952Y-103259841D01*
X194469720Y-103271664D01*
X194477288Y-103284290D01*
X194483582Y-103297597D01*
X194488541Y-103311457D01*
X194492118Y-103325736D01*
X194494278Y-103340297D01*
X194495000Y-103355000D01*
X194495000Y-103655000D01*
X194494278Y-103669703D01*
X194492118Y-103684264D01*
X194488541Y-103698543D01*
X194483582Y-103712403D01*
X194477288Y-103725710D01*
X194469720Y-103738336D01*
X194460952Y-103750159D01*
X194451066Y-103761066D01*
X194440159Y-103770952D01*
X194428336Y-103779720D01*
X194415710Y-103787288D01*
X194402403Y-103793582D01*
X194388543Y-103798541D01*
X194374264Y-103802118D01*
X194359703Y-103804278D01*
X194345000Y-103805000D01*
X192595000Y-103805000D01*
X192580297Y-103804278D01*
X192565736Y-103802118D01*
X192551457Y-103798541D01*
X192537597Y-103793582D01*
X192524290Y-103787288D01*
X192511664Y-103779720D01*
X192499841Y-103770952D01*
X192488934Y-103761066D01*
X192479048Y-103750159D01*
X192470280Y-103738336D01*
X192462712Y-103725710D01*
X192456418Y-103712403D01*
X192451459Y-103698543D01*
X192447882Y-103684264D01*
X192445722Y-103669703D01*
X192445000Y-103655000D01*
X192445000Y-103355000D01*
X192445722Y-103340297D01*
X192447882Y-103325736D01*
X192451459Y-103311457D01*
X192456418Y-103297597D01*
X192462712Y-103284290D01*
X192470280Y-103271664D01*
X192479048Y-103259841D01*
X192488934Y-103248934D01*
X192499841Y-103239048D01*
X192511664Y-103230280D01*
X192524290Y-103222712D01*
X192537597Y-103216418D01*
X192551457Y-103211459D01*
X192565736Y-103207882D01*
X192580297Y-103205722D01*
X192595000Y-103205000D01*
X194345000Y-103205000D01*
X194359703Y-103205722D01*
G37*
G36*
X194359703Y-104475722D02*
G01*
X194374264Y-104477882D01*
X194388543Y-104481459D01*
X194402403Y-104486418D01*
X194415710Y-104492712D01*
X194428336Y-104500280D01*
X194440159Y-104509048D01*
X194451066Y-104518934D01*
X194460952Y-104529841D01*
X194469720Y-104541664D01*
X194477288Y-104554290D01*
X194483582Y-104567597D01*
X194488541Y-104581457D01*
X194492118Y-104595736D01*
X194494278Y-104610297D01*
X194495000Y-104625000D01*
X194495000Y-104925000D01*
X194494278Y-104939703D01*
X194492118Y-104954264D01*
X194488541Y-104968543D01*
X194483582Y-104982403D01*
X194477288Y-104995710D01*
X194469720Y-105008336D01*
X194460952Y-105020159D01*
X194451066Y-105031066D01*
X194440159Y-105040952D01*
X194428336Y-105049720D01*
X194415710Y-105057288D01*
X194402403Y-105063582D01*
X194388543Y-105068541D01*
X194374264Y-105072118D01*
X194359703Y-105074278D01*
X194345000Y-105075000D01*
X192595000Y-105075000D01*
X192580297Y-105074278D01*
X192565736Y-105072118D01*
X192551457Y-105068541D01*
X192537597Y-105063582D01*
X192524290Y-105057288D01*
X192511664Y-105049720D01*
X192499841Y-105040952D01*
X192488934Y-105031066D01*
X192479048Y-105020159D01*
X192470280Y-105008336D01*
X192462712Y-104995710D01*
X192456418Y-104982403D01*
X192451459Y-104968543D01*
X192447882Y-104954264D01*
X192445722Y-104939703D01*
X192445000Y-104925000D01*
X192445000Y-104625000D01*
X192445722Y-104610297D01*
X192447882Y-104595736D01*
X192451459Y-104581457D01*
X192456418Y-104567597D01*
X192462712Y-104554290D01*
X192470280Y-104541664D01*
X192479048Y-104529841D01*
X192488934Y-104518934D01*
X192499841Y-104509048D01*
X192511664Y-104500280D01*
X192524290Y-104492712D01*
X192537597Y-104486418D01*
X192551457Y-104481459D01*
X192565736Y-104477882D01*
X192580297Y-104475722D01*
X192595000Y-104475000D01*
X194345000Y-104475000D01*
X194359703Y-104475722D01*
G37*
G36*
X203659703Y-104475722D02*
G01*
X203674264Y-104477882D01*
X203688543Y-104481459D01*
X203702403Y-104486418D01*
X203715710Y-104492712D01*
X203728336Y-104500280D01*
X203740159Y-104509048D01*
X203751066Y-104518934D01*
X203760952Y-104529841D01*
X203769720Y-104541664D01*
X203777288Y-104554290D01*
X203783582Y-104567597D01*
X203788541Y-104581457D01*
X203792118Y-104595736D01*
X203794278Y-104610297D01*
X203795000Y-104625000D01*
X203795000Y-104925000D01*
X203794278Y-104939703D01*
X203792118Y-104954264D01*
X203788541Y-104968543D01*
X203783582Y-104982403D01*
X203777288Y-104995710D01*
X203769720Y-105008336D01*
X203760952Y-105020159D01*
X203751066Y-105031066D01*
X203740159Y-105040952D01*
X203728336Y-105049720D01*
X203715710Y-105057288D01*
X203702403Y-105063582D01*
X203688543Y-105068541D01*
X203674264Y-105072118D01*
X203659703Y-105074278D01*
X203645000Y-105075000D01*
X201895000Y-105075000D01*
X201880297Y-105074278D01*
X201865736Y-105072118D01*
X201851457Y-105068541D01*
X201837597Y-105063582D01*
X201824290Y-105057288D01*
X201811664Y-105049720D01*
X201799841Y-105040952D01*
X201788934Y-105031066D01*
X201779048Y-105020159D01*
X201770280Y-105008336D01*
X201762712Y-104995710D01*
X201756418Y-104982403D01*
X201751459Y-104968543D01*
X201747882Y-104954264D01*
X201745722Y-104939703D01*
X201745000Y-104925000D01*
X201745000Y-104625000D01*
X201745722Y-104610297D01*
X201747882Y-104595736D01*
X201751459Y-104581457D01*
X201756418Y-104567597D01*
X201762712Y-104554290D01*
X201770280Y-104541664D01*
X201779048Y-104529841D01*
X201788934Y-104518934D01*
X201799841Y-104509048D01*
X201811664Y-104500280D01*
X201824290Y-104492712D01*
X201837597Y-104486418D01*
X201851457Y-104481459D01*
X201865736Y-104477882D01*
X201880297Y-104475722D01*
X201895000Y-104475000D01*
X203645000Y-104475000D01*
X203659703Y-104475722D01*
G37*
G36*
X203659703Y-103205722D02*
G01*
X203674264Y-103207882D01*
X203688543Y-103211459D01*
X203702403Y-103216418D01*
X203715710Y-103222712D01*
X203728336Y-103230280D01*
X203740159Y-103239048D01*
X203751066Y-103248934D01*
X203760952Y-103259841D01*
X203769720Y-103271664D01*
X203777288Y-103284290D01*
X203783582Y-103297597D01*
X203788541Y-103311457D01*
X203792118Y-103325736D01*
X203794278Y-103340297D01*
X203795000Y-103355000D01*
X203795000Y-103655000D01*
X203794278Y-103669703D01*
X203792118Y-103684264D01*
X203788541Y-103698543D01*
X203783582Y-103712403D01*
X203777288Y-103725710D01*
X203769720Y-103738336D01*
X203760952Y-103750159D01*
X203751066Y-103761066D01*
X203740159Y-103770952D01*
X203728336Y-103779720D01*
X203715710Y-103787288D01*
X203702403Y-103793582D01*
X203688543Y-103798541D01*
X203674264Y-103802118D01*
X203659703Y-103804278D01*
X203645000Y-103805000D01*
X201895000Y-103805000D01*
X201880297Y-103804278D01*
X201865736Y-103802118D01*
X201851457Y-103798541D01*
X201837597Y-103793582D01*
X201824290Y-103787288D01*
X201811664Y-103779720D01*
X201799841Y-103770952D01*
X201788934Y-103761066D01*
X201779048Y-103750159D01*
X201770280Y-103738336D01*
X201762712Y-103725710D01*
X201756418Y-103712403D01*
X201751459Y-103698543D01*
X201747882Y-103684264D01*
X201745722Y-103669703D01*
X201745000Y-103655000D01*
X201745000Y-103355000D01*
X201745722Y-103340297D01*
X201747882Y-103325736D01*
X201751459Y-103311457D01*
X201756418Y-103297597D01*
X201762712Y-103284290D01*
X201770280Y-103271664D01*
X201779048Y-103259841D01*
X201788934Y-103248934D01*
X201799841Y-103239048D01*
X201811664Y-103230280D01*
X201824290Y-103222712D01*
X201837597Y-103216418D01*
X201851457Y-103211459D01*
X201865736Y-103207882D01*
X201880297Y-103205722D01*
X201895000Y-103205000D01*
X203645000Y-103205000D01*
X203659703Y-103205722D01*
G37*
G36*
X203659703Y-101935722D02*
G01*
X203674264Y-101937882D01*
X203688543Y-101941459D01*
X203702403Y-101946418D01*
X203715710Y-101952712D01*
X203728336Y-101960280D01*
X203740159Y-101969048D01*
X203751066Y-101978934D01*
X203760952Y-101989841D01*
X203769720Y-102001664D01*
X203777288Y-102014290D01*
X203783582Y-102027597D01*
X203788541Y-102041457D01*
X203792118Y-102055736D01*
X203794278Y-102070297D01*
X203795000Y-102085000D01*
X203795000Y-102385000D01*
X203794278Y-102399703D01*
X203792118Y-102414264D01*
X203788541Y-102428543D01*
X203783582Y-102442403D01*
X203777288Y-102455710D01*
X203769720Y-102468336D01*
X203760952Y-102480159D01*
X203751066Y-102491066D01*
X203740159Y-102500952D01*
X203728336Y-102509720D01*
X203715710Y-102517288D01*
X203702403Y-102523582D01*
X203688543Y-102528541D01*
X203674264Y-102532118D01*
X203659703Y-102534278D01*
X203645000Y-102535000D01*
X201895000Y-102535000D01*
X201880297Y-102534278D01*
X201865736Y-102532118D01*
X201851457Y-102528541D01*
X201837597Y-102523582D01*
X201824290Y-102517288D01*
X201811664Y-102509720D01*
X201799841Y-102500952D01*
X201788934Y-102491066D01*
X201779048Y-102480159D01*
X201770280Y-102468336D01*
X201762712Y-102455710D01*
X201756418Y-102442403D01*
X201751459Y-102428543D01*
X201747882Y-102414264D01*
X201745722Y-102399703D01*
X201745000Y-102385000D01*
X201745000Y-102085000D01*
X201745722Y-102070297D01*
X201747882Y-102055736D01*
X201751459Y-102041457D01*
X201756418Y-102027597D01*
X201762712Y-102014290D01*
X201770280Y-102001664D01*
X201779048Y-101989841D01*
X201788934Y-101978934D01*
X201799841Y-101969048D01*
X201811664Y-101960280D01*
X201824290Y-101952712D01*
X201837597Y-101946418D01*
X201851457Y-101941459D01*
X201865736Y-101937882D01*
X201880297Y-101935722D01*
X201895000Y-101935000D01*
X203645000Y-101935000D01*
X203659703Y-101935722D01*
G37*
G36*
X203659703Y-100665722D02*
G01*
X203674264Y-100667882D01*
X203688543Y-100671459D01*
X203702403Y-100676418D01*
X203715710Y-100682712D01*
X203728336Y-100690280D01*
X203740159Y-100699048D01*
X203751066Y-100708934D01*
X203760952Y-100719841D01*
X203769720Y-100731664D01*
X203777288Y-100744290D01*
X203783582Y-100757597D01*
X203788541Y-100771457D01*
X203792118Y-100785736D01*
X203794278Y-100800297D01*
X203795000Y-100815000D01*
X203795000Y-101115000D01*
X203794278Y-101129703D01*
X203792118Y-101144264D01*
X203788541Y-101158543D01*
X203783582Y-101172403D01*
X203777288Y-101185710D01*
X203769720Y-101198336D01*
X203760952Y-101210159D01*
X203751066Y-101221066D01*
X203740159Y-101230952D01*
X203728336Y-101239720D01*
X203715710Y-101247288D01*
X203702403Y-101253582D01*
X203688543Y-101258541D01*
X203674264Y-101262118D01*
X203659703Y-101264278D01*
X203645000Y-101265000D01*
X201895000Y-101265000D01*
X201880297Y-101264278D01*
X201865736Y-101262118D01*
X201851457Y-101258541D01*
X201837597Y-101253582D01*
X201824290Y-101247288D01*
X201811664Y-101239720D01*
X201799841Y-101230952D01*
X201788934Y-101221066D01*
X201779048Y-101210159D01*
X201770280Y-101198336D01*
X201762712Y-101185710D01*
X201756418Y-101172403D01*
X201751459Y-101158543D01*
X201747882Y-101144264D01*
X201745722Y-101129703D01*
X201745000Y-101115000D01*
X201745000Y-100815000D01*
X201745722Y-100800297D01*
X201747882Y-100785736D01*
X201751459Y-100771457D01*
X201756418Y-100757597D01*
X201762712Y-100744290D01*
X201770280Y-100731664D01*
X201779048Y-100719841D01*
X201788934Y-100708934D01*
X201799841Y-100699048D01*
X201811664Y-100690280D01*
X201824290Y-100682712D01*
X201837597Y-100676418D01*
X201851457Y-100671459D01*
X201865736Y-100667882D01*
X201880297Y-100665722D01*
X201895000Y-100665000D01*
X203645000Y-100665000D01*
X203659703Y-100665722D01*
G37*
G36*
X203659703Y-99395722D02*
G01*
X203674264Y-99397882D01*
X203688543Y-99401459D01*
X203702403Y-99406418D01*
X203715710Y-99412712D01*
X203728336Y-99420280D01*
X203740159Y-99429048D01*
X203751066Y-99438934D01*
X203760952Y-99449841D01*
X203769720Y-99461664D01*
X203777288Y-99474290D01*
X203783582Y-99487597D01*
X203788541Y-99501457D01*
X203792118Y-99515736D01*
X203794278Y-99530297D01*
X203795000Y-99545000D01*
X203795000Y-99845000D01*
X203794278Y-99859703D01*
X203792118Y-99874264D01*
X203788541Y-99888543D01*
X203783582Y-99902403D01*
X203777288Y-99915710D01*
X203769720Y-99928336D01*
X203760952Y-99940159D01*
X203751066Y-99951066D01*
X203740159Y-99960952D01*
X203728336Y-99969720D01*
X203715710Y-99977288D01*
X203702403Y-99983582D01*
X203688543Y-99988541D01*
X203674264Y-99992118D01*
X203659703Y-99994278D01*
X203645000Y-99995000D01*
X201895000Y-99995000D01*
X201880297Y-99994278D01*
X201865736Y-99992118D01*
X201851457Y-99988541D01*
X201837597Y-99983582D01*
X201824290Y-99977288D01*
X201811664Y-99969720D01*
X201799841Y-99960952D01*
X201788934Y-99951066D01*
X201779048Y-99940159D01*
X201770280Y-99928336D01*
X201762712Y-99915710D01*
X201756418Y-99902403D01*
X201751459Y-99888543D01*
X201747882Y-99874264D01*
X201745722Y-99859703D01*
X201745000Y-99845000D01*
X201745000Y-99545000D01*
X201745722Y-99530297D01*
X201747882Y-99515736D01*
X201751459Y-99501457D01*
X201756418Y-99487597D01*
X201762712Y-99474290D01*
X201770280Y-99461664D01*
X201779048Y-99449841D01*
X201788934Y-99438934D01*
X201799841Y-99429048D01*
X201811664Y-99420280D01*
X201824290Y-99412712D01*
X201837597Y-99406418D01*
X201851457Y-99401459D01*
X201865736Y-99397882D01*
X201880297Y-99395722D01*
X201895000Y-99395000D01*
X203645000Y-99395000D01*
X203659703Y-99395722D01*
G37*
G36*
X203659703Y-98125722D02*
G01*
X203674264Y-98127882D01*
X203688543Y-98131459D01*
X203702403Y-98136418D01*
X203715710Y-98142712D01*
X203728336Y-98150280D01*
X203740159Y-98159048D01*
X203751066Y-98168934D01*
X203760952Y-98179841D01*
X203769720Y-98191664D01*
X203777288Y-98204290D01*
X203783582Y-98217597D01*
X203788541Y-98231457D01*
X203792118Y-98245736D01*
X203794278Y-98260297D01*
X203795000Y-98275000D01*
X203795000Y-98575000D01*
X203794278Y-98589703D01*
X203792118Y-98604264D01*
X203788541Y-98618543D01*
X203783582Y-98632403D01*
X203777288Y-98645710D01*
X203769720Y-98658336D01*
X203760952Y-98670159D01*
X203751066Y-98681066D01*
X203740159Y-98690952D01*
X203728336Y-98699720D01*
X203715710Y-98707288D01*
X203702403Y-98713582D01*
X203688543Y-98718541D01*
X203674264Y-98722118D01*
X203659703Y-98724278D01*
X203645000Y-98725000D01*
X201895000Y-98725000D01*
X201880297Y-98724278D01*
X201865736Y-98722118D01*
X201851457Y-98718541D01*
X201837597Y-98713582D01*
X201824290Y-98707288D01*
X201811664Y-98699720D01*
X201799841Y-98690952D01*
X201788934Y-98681066D01*
X201779048Y-98670159D01*
X201770280Y-98658336D01*
X201762712Y-98645710D01*
X201756418Y-98632403D01*
X201751459Y-98618543D01*
X201747882Y-98604264D01*
X201745722Y-98589703D01*
X201745000Y-98575000D01*
X201745000Y-98275000D01*
X201745722Y-98260297D01*
X201747882Y-98245736D01*
X201751459Y-98231457D01*
X201756418Y-98217597D01*
X201762712Y-98204290D01*
X201770280Y-98191664D01*
X201779048Y-98179841D01*
X201788934Y-98168934D01*
X201799841Y-98159048D01*
X201811664Y-98150280D01*
X201824290Y-98142712D01*
X201837597Y-98136418D01*
X201851457Y-98131459D01*
X201865736Y-98127882D01*
X201880297Y-98125722D01*
X201895000Y-98125000D01*
X203645000Y-98125000D01*
X203659703Y-98125722D01*
G37*
G36*
X203659703Y-96855722D02*
G01*
X203674264Y-96857882D01*
X203688543Y-96861459D01*
X203702403Y-96866418D01*
X203715710Y-96872712D01*
X203728336Y-96880280D01*
X203740159Y-96889048D01*
X203751066Y-96898934D01*
X203760952Y-96909841D01*
X203769720Y-96921664D01*
X203777288Y-96934290D01*
X203783582Y-96947597D01*
X203788541Y-96961457D01*
X203792118Y-96975736D01*
X203794278Y-96990297D01*
X203795000Y-97005000D01*
X203795000Y-97305000D01*
X203794278Y-97319703D01*
X203792118Y-97334264D01*
X203788541Y-97348543D01*
X203783582Y-97362403D01*
X203777288Y-97375710D01*
X203769720Y-97388336D01*
X203760952Y-97400159D01*
X203751066Y-97411066D01*
X203740159Y-97420952D01*
X203728336Y-97429720D01*
X203715710Y-97437288D01*
X203702403Y-97443582D01*
X203688543Y-97448541D01*
X203674264Y-97452118D01*
X203659703Y-97454278D01*
X203645000Y-97455000D01*
X201895000Y-97455000D01*
X201880297Y-97454278D01*
X201865736Y-97452118D01*
X201851457Y-97448541D01*
X201837597Y-97443582D01*
X201824290Y-97437288D01*
X201811664Y-97429720D01*
X201799841Y-97420952D01*
X201788934Y-97411066D01*
X201779048Y-97400159D01*
X201770280Y-97388336D01*
X201762712Y-97375710D01*
X201756418Y-97362403D01*
X201751459Y-97348543D01*
X201747882Y-97334264D01*
X201745722Y-97319703D01*
X201745000Y-97305000D01*
X201745000Y-97005000D01*
X201745722Y-96990297D01*
X201747882Y-96975736D01*
X201751459Y-96961457D01*
X201756418Y-96947597D01*
X201762712Y-96934290D01*
X201770280Y-96921664D01*
X201779048Y-96909841D01*
X201788934Y-96898934D01*
X201799841Y-96889048D01*
X201811664Y-96880280D01*
X201824290Y-96872712D01*
X201837597Y-96866418D01*
X201851457Y-96861459D01*
X201865736Y-96857882D01*
X201880297Y-96855722D01*
X201895000Y-96855000D01*
X203645000Y-96855000D01*
X203659703Y-96855722D01*
G37*
G36*
X203659703Y-95585722D02*
G01*
X203674264Y-95587882D01*
X203688543Y-95591459D01*
X203702403Y-95596418D01*
X203715710Y-95602712D01*
X203728336Y-95610280D01*
X203740159Y-95619048D01*
X203751066Y-95628934D01*
X203760952Y-95639841D01*
X203769720Y-95651664D01*
X203777288Y-95664290D01*
X203783582Y-95677597D01*
X203788541Y-95691457D01*
X203792118Y-95705736D01*
X203794278Y-95720297D01*
X203795000Y-95735000D01*
X203795000Y-96035000D01*
X203794278Y-96049703D01*
X203792118Y-96064264D01*
X203788541Y-96078543D01*
X203783582Y-96092403D01*
X203777288Y-96105710D01*
X203769720Y-96118336D01*
X203760952Y-96130159D01*
X203751066Y-96141066D01*
X203740159Y-96150952D01*
X203728336Y-96159720D01*
X203715710Y-96167288D01*
X203702403Y-96173582D01*
X203688543Y-96178541D01*
X203674264Y-96182118D01*
X203659703Y-96184278D01*
X203645000Y-96185000D01*
X201895000Y-96185000D01*
X201880297Y-96184278D01*
X201865736Y-96182118D01*
X201851457Y-96178541D01*
X201837597Y-96173582D01*
X201824290Y-96167288D01*
X201811664Y-96159720D01*
X201799841Y-96150952D01*
X201788934Y-96141066D01*
X201779048Y-96130159D01*
X201770280Y-96118336D01*
X201762712Y-96105710D01*
X201756418Y-96092403D01*
X201751459Y-96078543D01*
X201747882Y-96064264D01*
X201745722Y-96049703D01*
X201745000Y-96035000D01*
X201745000Y-95735000D01*
X201745722Y-95720297D01*
X201747882Y-95705736D01*
X201751459Y-95691457D01*
X201756418Y-95677597D01*
X201762712Y-95664290D01*
X201770280Y-95651664D01*
X201779048Y-95639841D01*
X201788934Y-95628934D01*
X201799841Y-95619048D01*
X201811664Y-95610280D01*
X201824290Y-95602712D01*
X201837597Y-95596418D01*
X201851457Y-95591459D01*
X201865736Y-95587882D01*
X201880297Y-95585722D01*
X201895000Y-95585000D01*
X203645000Y-95585000D01*
X203659703Y-95585722D01*
G37*
G36*
X203659703Y-94315722D02*
G01*
X203674264Y-94317882D01*
X203688543Y-94321459D01*
X203702403Y-94326418D01*
X203715710Y-94332712D01*
X203728336Y-94340280D01*
X203740159Y-94349048D01*
X203751066Y-94358934D01*
X203760952Y-94369841D01*
X203769720Y-94381664D01*
X203777288Y-94394290D01*
X203783582Y-94407597D01*
X203788541Y-94421457D01*
X203792118Y-94435736D01*
X203794278Y-94450297D01*
X203795000Y-94465000D01*
X203795000Y-94765000D01*
X203794278Y-94779703D01*
X203792118Y-94794264D01*
X203788541Y-94808543D01*
X203783582Y-94822403D01*
X203777288Y-94835710D01*
X203769720Y-94848336D01*
X203760952Y-94860159D01*
X203751066Y-94871066D01*
X203740159Y-94880952D01*
X203728336Y-94889720D01*
X203715710Y-94897288D01*
X203702403Y-94903582D01*
X203688543Y-94908541D01*
X203674264Y-94912118D01*
X203659703Y-94914278D01*
X203645000Y-94915000D01*
X201895000Y-94915000D01*
X201880297Y-94914278D01*
X201865736Y-94912118D01*
X201851457Y-94908541D01*
X201837597Y-94903582D01*
X201824290Y-94897288D01*
X201811664Y-94889720D01*
X201799841Y-94880952D01*
X201788934Y-94871066D01*
X201779048Y-94860159D01*
X201770280Y-94848336D01*
X201762712Y-94835710D01*
X201756418Y-94822403D01*
X201751459Y-94808543D01*
X201747882Y-94794264D01*
X201745722Y-94779703D01*
X201745000Y-94765000D01*
X201745000Y-94465000D01*
X201745722Y-94450297D01*
X201747882Y-94435736D01*
X201751459Y-94421457D01*
X201756418Y-94407597D01*
X201762712Y-94394290D01*
X201770280Y-94381664D01*
X201779048Y-94369841D01*
X201788934Y-94358934D01*
X201799841Y-94349048D01*
X201811664Y-94340280D01*
X201824290Y-94332712D01*
X201837597Y-94326418D01*
X201851457Y-94321459D01*
X201865736Y-94317882D01*
X201880297Y-94315722D01*
X201895000Y-94315000D01*
X203645000Y-94315000D01*
X203659703Y-94315722D01*
G37*
G36*
X203659703Y-93045722D02*
G01*
X203674264Y-93047882D01*
X203688543Y-93051459D01*
X203702403Y-93056418D01*
X203715710Y-93062712D01*
X203728336Y-93070280D01*
X203740159Y-93079048D01*
X203751066Y-93088934D01*
X203760952Y-93099841D01*
X203769720Y-93111664D01*
X203777288Y-93124290D01*
X203783582Y-93137597D01*
X203788541Y-93151457D01*
X203792118Y-93165736D01*
X203794278Y-93180297D01*
X203795000Y-93195000D01*
X203795000Y-93495000D01*
X203794278Y-93509703D01*
X203792118Y-93524264D01*
X203788541Y-93538543D01*
X203783582Y-93552403D01*
X203777288Y-93565710D01*
X203769720Y-93578336D01*
X203760952Y-93590159D01*
X203751066Y-93601066D01*
X203740159Y-93610952D01*
X203728336Y-93619720D01*
X203715710Y-93627288D01*
X203702403Y-93633582D01*
X203688543Y-93638541D01*
X203674264Y-93642118D01*
X203659703Y-93644278D01*
X203645000Y-93645000D01*
X201895000Y-93645000D01*
X201880297Y-93644278D01*
X201865736Y-93642118D01*
X201851457Y-93638541D01*
X201837597Y-93633582D01*
X201824290Y-93627288D01*
X201811664Y-93619720D01*
X201799841Y-93610952D01*
X201788934Y-93601066D01*
X201779048Y-93590159D01*
X201770280Y-93578336D01*
X201762712Y-93565710D01*
X201756418Y-93552403D01*
X201751459Y-93538543D01*
X201747882Y-93524264D01*
X201745722Y-93509703D01*
X201745000Y-93495000D01*
X201745000Y-93195000D01*
X201745722Y-93180297D01*
X201747882Y-93165736D01*
X201751459Y-93151457D01*
X201756418Y-93137597D01*
X201762712Y-93124290D01*
X201770280Y-93111664D01*
X201779048Y-93099841D01*
X201788934Y-93088934D01*
X201799841Y-93079048D01*
X201811664Y-93070280D01*
X201824290Y-93062712D01*
X201837597Y-93056418D01*
X201851457Y-93051459D01*
X201865736Y-93047882D01*
X201880297Y-93045722D01*
X201895000Y-93045000D01*
X203645000Y-93045000D01*
X203659703Y-93045722D01*
G37*
G36*
X210829505Y-88311204D02*
G01*
X210853773Y-88314804D01*
X210877572Y-88320765D01*
X210900671Y-88329030D01*
X210922850Y-88339520D01*
X210943893Y-88352132D01*
X210963599Y-88366747D01*
X210981777Y-88383223D01*
X210998253Y-88401401D01*
X211012868Y-88421107D01*
X211025480Y-88442150D01*
X211035970Y-88464329D01*
X211044235Y-88487428D01*
X211050196Y-88511227D01*
X211053796Y-88535495D01*
X211055000Y-88559999D01*
X211055000Y-89260001D01*
X211053796Y-89284505D01*
X211050196Y-89308773D01*
X211044235Y-89332572D01*
X211035970Y-89355671D01*
X211025480Y-89377850D01*
X211012868Y-89398893D01*
X210998253Y-89418599D01*
X210981777Y-89436777D01*
X210963599Y-89453253D01*
X210943893Y-89467868D01*
X210922850Y-89480480D01*
X210900671Y-89490970D01*
X210877572Y-89499235D01*
X210853773Y-89505196D01*
X210829505Y-89508796D01*
X210805001Y-89510000D01*
X209504999Y-89510000D01*
X209480495Y-89508796D01*
X209456227Y-89505196D01*
X209432428Y-89499235D01*
X209409329Y-89490970D01*
X209387150Y-89480480D01*
X209366107Y-89467868D01*
X209346401Y-89453253D01*
X209328223Y-89436777D01*
X209311747Y-89418599D01*
X209297132Y-89398893D01*
X209284520Y-89377850D01*
X209274030Y-89355671D01*
X209265765Y-89332572D01*
X209259804Y-89308773D01*
X209256204Y-89284505D01*
X209255000Y-89260001D01*
X209255000Y-88559999D01*
X209256204Y-88535495D01*
X209259804Y-88511227D01*
X209265765Y-88487428D01*
X209274030Y-88464329D01*
X209284520Y-88442150D01*
X209297132Y-88421107D01*
X209311747Y-88401401D01*
X209328223Y-88383223D01*
X209346401Y-88366747D01*
X209366107Y-88352132D01*
X209387150Y-88339520D01*
X209409329Y-88329030D01*
X209432428Y-88320765D01*
X209456227Y-88314804D01*
X209480495Y-88311204D01*
X209504999Y-88310000D01*
X210805001Y-88310000D01*
X210829505Y-88311204D01*
G37*
G36*
X210829505Y-95911204D02*
G01*
X210853773Y-95914804D01*
X210877572Y-95920765D01*
X210900671Y-95929030D01*
X210922850Y-95939520D01*
X210943893Y-95952132D01*
X210963599Y-95966747D01*
X210981777Y-95983223D01*
X210998253Y-96001401D01*
X211012868Y-96021107D01*
X211025480Y-96042150D01*
X211035970Y-96064329D01*
X211044235Y-96087428D01*
X211050196Y-96111227D01*
X211053796Y-96135495D01*
X211055000Y-96159999D01*
X211055000Y-96860001D01*
X211053796Y-96884505D01*
X211050196Y-96908773D01*
X211044235Y-96932572D01*
X211035970Y-96955671D01*
X211025480Y-96977850D01*
X211012868Y-96998893D01*
X210998253Y-97018599D01*
X210981777Y-97036777D01*
X210963599Y-97053253D01*
X210943893Y-97067868D01*
X210922850Y-97080480D01*
X210900671Y-97090970D01*
X210877572Y-97099235D01*
X210853773Y-97105196D01*
X210829505Y-97108796D01*
X210805001Y-97110000D01*
X209504999Y-97110000D01*
X209480495Y-97108796D01*
X209456227Y-97105196D01*
X209432428Y-97099235D01*
X209409329Y-97090970D01*
X209387150Y-97080480D01*
X209366107Y-97067868D01*
X209346401Y-97053253D01*
X209328223Y-97036777D01*
X209311747Y-97018599D01*
X209297132Y-96998893D01*
X209284520Y-96977850D01*
X209274030Y-96955671D01*
X209265765Y-96932572D01*
X209259804Y-96908773D01*
X209256204Y-96884505D01*
X209255000Y-96860001D01*
X209255000Y-96159999D01*
X209256204Y-96135495D01*
X209259804Y-96111227D01*
X209265765Y-96087428D01*
X209274030Y-96064329D01*
X209284520Y-96042150D01*
X209297132Y-96021107D01*
X209311747Y-96001401D01*
X209328223Y-95983223D01*
X209346401Y-95966747D01*
X209366107Y-95952132D01*
X209387150Y-95939520D01*
X209409329Y-95929030D01*
X209432428Y-95920765D01*
X209456227Y-95914804D01*
X209480495Y-95911204D01*
X209504999Y-95910000D01*
X210805001Y-95910000D01*
X210829505Y-95911204D01*
G37*
G36*
X206919703Y-89910722D02*
G01*
X206934264Y-89912882D01*
X206948543Y-89916459D01*
X206962403Y-89921418D01*
X206975710Y-89927712D01*
X206988336Y-89935280D01*
X207000159Y-89944048D01*
X207011066Y-89953934D01*
X207020952Y-89964841D01*
X207029720Y-89976664D01*
X207037288Y-89989290D01*
X207043582Y-90002597D01*
X207048541Y-90016457D01*
X207052118Y-90030736D01*
X207054278Y-90045297D01*
X207055000Y-90060000D01*
X207055000Y-90360000D01*
X207054278Y-90374703D01*
X207052118Y-90389264D01*
X207048541Y-90403543D01*
X207043582Y-90417403D01*
X207037288Y-90430710D01*
X207029720Y-90443336D01*
X207020952Y-90455159D01*
X207011066Y-90466066D01*
X207000159Y-90475952D01*
X206988336Y-90484720D01*
X206975710Y-90492288D01*
X206962403Y-90498582D01*
X206948543Y-90503541D01*
X206934264Y-90507118D01*
X206919703Y-90509278D01*
X206905000Y-90510000D01*
X205655000Y-90510000D01*
X205640297Y-90509278D01*
X205625736Y-90507118D01*
X205611457Y-90503541D01*
X205597597Y-90498582D01*
X205584290Y-90492288D01*
X205571664Y-90484720D01*
X205559841Y-90475952D01*
X205548934Y-90466066D01*
X205539048Y-90455159D01*
X205530280Y-90443336D01*
X205522712Y-90430710D01*
X205516418Y-90417403D01*
X205511459Y-90403543D01*
X205507882Y-90389264D01*
X205505722Y-90374703D01*
X205505000Y-90360000D01*
X205505000Y-90060000D01*
X205505722Y-90045297D01*
X205507882Y-90030736D01*
X205511459Y-90016457D01*
X205516418Y-90002597D01*
X205522712Y-89989290D01*
X205530280Y-89976664D01*
X205539048Y-89964841D01*
X205548934Y-89953934D01*
X205559841Y-89944048D01*
X205571664Y-89935280D01*
X205584290Y-89927712D01*
X205597597Y-89921418D01*
X205611457Y-89916459D01*
X205625736Y-89912882D01*
X205640297Y-89910722D01*
X205655000Y-89910000D01*
X206905000Y-89910000D01*
X206919703Y-89910722D01*
G37*
G36*
X206919703Y-90910722D02*
G01*
X206934264Y-90912882D01*
X206948543Y-90916459D01*
X206962403Y-90921418D01*
X206975710Y-90927712D01*
X206988336Y-90935280D01*
X207000159Y-90944048D01*
X207011066Y-90953934D01*
X207020952Y-90964841D01*
X207029720Y-90976664D01*
X207037288Y-90989290D01*
X207043582Y-91002597D01*
X207048541Y-91016457D01*
X207052118Y-91030736D01*
X207054278Y-91045297D01*
X207055000Y-91060000D01*
X207055000Y-91360000D01*
X207054278Y-91374703D01*
X207052118Y-91389264D01*
X207048541Y-91403543D01*
X207043582Y-91417403D01*
X207037288Y-91430710D01*
X207029720Y-91443336D01*
X207020952Y-91455159D01*
X207011066Y-91466066D01*
X207000159Y-91475952D01*
X206988336Y-91484720D01*
X206975710Y-91492288D01*
X206962403Y-91498582D01*
X206948543Y-91503541D01*
X206934264Y-91507118D01*
X206919703Y-91509278D01*
X206905000Y-91510000D01*
X205655000Y-91510000D01*
X205640297Y-91509278D01*
X205625736Y-91507118D01*
X205611457Y-91503541D01*
X205597597Y-91498582D01*
X205584290Y-91492288D01*
X205571664Y-91484720D01*
X205559841Y-91475952D01*
X205548934Y-91466066D01*
X205539048Y-91455159D01*
X205530280Y-91443336D01*
X205522712Y-91430710D01*
X205516418Y-91417403D01*
X205511459Y-91403543D01*
X205507882Y-91389264D01*
X205505722Y-91374703D01*
X205505000Y-91360000D01*
X205505000Y-91060000D01*
X205505722Y-91045297D01*
X205507882Y-91030736D01*
X205511459Y-91016457D01*
X205516418Y-91002597D01*
X205522712Y-90989290D01*
X205530280Y-90976664D01*
X205539048Y-90964841D01*
X205548934Y-90953934D01*
X205559841Y-90944048D01*
X205571664Y-90935280D01*
X205584290Y-90927712D01*
X205597597Y-90921418D01*
X205611457Y-90916459D01*
X205625736Y-90912882D01*
X205640297Y-90910722D01*
X205655000Y-90910000D01*
X206905000Y-90910000D01*
X206919703Y-90910722D01*
G37*
G36*
X206919703Y-91910722D02*
G01*
X206934264Y-91912882D01*
X206948543Y-91916459D01*
X206962403Y-91921418D01*
X206975710Y-91927712D01*
X206988336Y-91935280D01*
X207000159Y-91944048D01*
X207011066Y-91953934D01*
X207020952Y-91964841D01*
X207029720Y-91976664D01*
X207037288Y-91989290D01*
X207043582Y-92002597D01*
X207048541Y-92016457D01*
X207052118Y-92030736D01*
X207054278Y-92045297D01*
X207055000Y-92060000D01*
X207055000Y-92360000D01*
X207054278Y-92374703D01*
X207052118Y-92389264D01*
X207048541Y-92403543D01*
X207043582Y-92417403D01*
X207037288Y-92430710D01*
X207029720Y-92443336D01*
X207020952Y-92455159D01*
X207011066Y-92466066D01*
X207000159Y-92475952D01*
X206988336Y-92484720D01*
X206975710Y-92492288D01*
X206962403Y-92498582D01*
X206948543Y-92503541D01*
X206934264Y-92507118D01*
X206919703Y-92509278D01*
X206905000Y-92510000D01*
X205655000Y-92510000D01*
X205640297Y-92509278D01*
X205625736Y-92507118D01*
X205611457Y-92503541D01*
X205597597Y-92498582D01*
X205584290Y-92492288D01*
X205571664Y-92484720D01*
X205559841Y-92475952D01*
X205548934Y-92466066D01*
X205539048Y-92455159D01*
X205530280Y-92443336D01*
X205522712Y-92430710D01*
X205516418Y-92417403D01*
X205511459Y-92403543D01*
X205507882Y-92389264D01*
X205505722Y-92374703D01*
X205505000Y-92360000D01*
X205505000Y-92060000D01*
X205505722Y-92045297D01*
X205507882Y-92030736D01*
X205511459Y-92016457D01*
X205516418Y-92002597D01*
X205522712Y-91989290D01*
X205530280Y-91976664D01*
X205539048Y-91964841D01*
X205548934Y-91953934D01*
X205559841Y-91944048D01*
X205571664Y-91935280D01*
X205584290Y-91927712D01*
X205597597Y-91921418D01*
X205611457Y-91916459D01*
X205625736Y-91912882D01*
X205640297Y-91910722D01*
X205655000Y-91910000D01*
X206905000Y-91910000D01*
X206919703Y-91910722D01*
G37*
G36*
X206919703Y-92910722D02*
G01*
X206934264Y-92912882D01*
X206948543Y-92916459D01*
X206962403Y-92921418D01*
X206975710Y-92927712D01*
X206988336Y-92935280D01*
X207000159Y-92944048D01*
X207011066Y-92953934D01*
X207020952Y-92964841D01*
X207029720Y-92976664D01*
X207037288Y-92989290D01*
X207043582Y-93002597D01*
X207048541Y-93016457D01*
X207052118Y-93030736D01*
X207054278Y-93045297D01*
X207055000Y-93060000D01*
X207055000Y-93360000D01*
X207054278Y-93374703D01*
X207052118Y-93389264D01*
X207048541Y-93403543D01*
X207043582Y-93417403D01*
X207037288Y-93430710D01*
X207029720Y-93443336D01*
X207020952Y-93455159D01*
X207011066Y-93466066D01*
X207000159Y-93475952D01*
X206988336Y-93484720D01*
X206975710Y-93492288D01*
X206962403Y-93498582D01*
X206948543Y-93503541D01*
X206934264Y-93507118D01*
X206919703Y-93509278D01*
X206905000Y-93510000D01*
X205655000Y-93510000D01*
X205640297Y-93509278D01*
X205625736Y-93507118D01*
X205611457Y-93503541D01*
X205597597Y-93498582D01*
X205584290Y-93492288D01*
X205571664Y-93484720D01*
X205559841Y-93475952D01*
X205548934Y-93466066D01*
X205539048Y-93455159D01*
X205530280Y-93443336D01*
X205522712Y-93430710D01*
X205516418Y-93417403D01*
X205511459Y-93403543D01*
X205507882Y-93389264D01*
X205505722Y-93374703D01*
X205505000Y-93360000D01*
X205505000Y-93060000D01*
X205505722Y-93045297D01*
X205507882Y-93030736D01*
X205511459Y-93016457D01*
X205516418Y-93002597D01*
X205522712Y-92989290D01*
X205530280Y-92976664D01*
X205539048Y-92964841D01*
X205548934Y-92953934D01*
X205559841Y-92944048D01*
X205571664Y-92935280D01*
X205584290Y-92927712D01*
X205597597Y-92921418D01*
X205611457Y-92916459D01*
X205625736Y-92912882D01*
X205640297Y-92910722D01*
X205655000Y-92910000D01*
X206905000Y-92910000D01*
X206919703Y-92910722D01*
G37*
G36*
X206919703Y-93910722D02*
G01*
X206934264Y-93912882D01*
X206948543Y-93916459D01*
X206962403Y-93921418D01*
X206975710Y-93927712D01*
X206988336Y-93935280D01*
X207000159Y-93944048D01*
X207011066Y-93953934D01*
X207020952Y-93964841D01*
X207029720Y-93976664D01*
X207037288Y-93989290D01*
X207043582Y-94002597D01*
X207048541Y-94016457D01*
X207052118Y-94030736D01*
X207054278Y-94045297D01*
X207055000Y-94060000D01*
X207055000Y-94360000D01*
X207054278Y-94374703D01*
X207052118Y-94389264D01*
X207048541Y-94403543D01*
X207043582Y-94417403D01*
X207037288Y-94430710D01*
X207029720Y-94443336D01*
X207020952Y-94455159D01*
X207011066Y-94466066D01*
X207000159Y-94475952D01*
X206988336Y-94484720D01*
X206975710Y-94492288D01*
X206962403Y-94498582D01*
X206948543Y-94503541D01*
X206934264Y-94507118D01*
X206919703Y-94509278D01*
X206905000Y-94510000D01*
X205655000Y-94510000D01*
X205640297Y-94509278D01*
X205625736Y-94507118D01*
X205611457Y-94503541D01*
X205597597Y-94498582D01*
X205584290Y-94492288D01*
X205571664Y-94484720D01*
X205559841Y-94475952D01*
X205548934Y-94466066D01*
X205539048Y-94455159D01*
X205530280Y-94443336D01*
X205522712Y-94430710D01*
X205516418Y-94417403D01*
X205511459Y-94403543D01*
X205507882Y-94389264D01*
X205505722Y-94374703D01*
X205505000Y-94360000D01*
X205505000Y-94060000D01*
X205505722Y-94045297D01*
X205507882Y-94030736D01*
X205511459Y-94016457D01*
X205516418Y-94002597D01*
X205522712Y-93989290D01*
X205530280Y-93976664D01*
X205539048Y-93964841D01*
X205548934Y-93953934D01*
X205559841Y-93944048D01*
X205571664Y-93935280D01*
X205584290Y-93927712D01*
X205597597Y-93921418D01*
X205611457Y-93916459D01*
X205625736Y-93912882D01*
X205640297Y-93910722D01*
X205655000Y-93910000D01*
X206905000Y-93910000D01*
X206919703Y-93910722D01*
G37*
G36*
X206919703Y-94910722D02*
G01*
X206934264Y-94912882D01*
X206948543Y-94916459D01*
X206962403Y-94921418D01*
X206975710Y-94927712D01*
X206988336Y-94935280D01*
X207000159Y-94944048D01*
X207011066Y-94953934D01*
X207020952Y-94964841D01*
X207029720Y-94976664D01*
X207037288Y-94989290D01*
X207043582Y-95002597D01*
X207048541Y-95016457D01*
X207052118Y-95030736D01*
X207054278Y-95045297D01*
X207055000Y-95060000D01*
X207055000Y-95360000D01*
X207054278Y-95374703D01*
X207052118Y-95389264D01*
X207048541Y-95403543D01*
X207043582Y-95417403D01*
X207037288Y-95430710D01*
X207029720Y-95443336D01*
X207020952Y-95455159D01*
X207011066Y-95466066D01*
X207000159Y-95475952D01*
X206988336Y-95484720D01*
X206975710Y-95492288D01*
X206962403Y-95498582D01*
X206948543Y-95503541D01*
X206934264Y-95507118D01*
X206919703Y-95509278D01*
X206905000Y-95510000D01*
X205655000Y-95510000D01*
X205640297Y-95509278D01*
X205625736Y-95507118D01*
X205611457Y-95503541D01*
X205597597Y-95498582D01*
X205584290Y-95492288D01*
X205571664Y-95484720D01*
X205559841Y-95475952D01*
X205548934Y-95466066D01*
X205539048Y-95455159D01*
X205530280Y-95443336D01*
X205522712Y-95430710D01*
X205516418Y-95417403D01*
X205511459Y-95403543D01*
X205507882Y-95389264D01*
X205505722Y-95374703D01*
X205505000Y-95360000D01*
X205505000Y-95060000D01*
X205505722Y-95045297D01*
X205507882Y-95030736D01*
X205511459Y-95016457D01*
X205516418Y-95002597D01*
X205522712Y-94989290D01*
X205530280Y-94976664D01*
X205539048Y-94964841D01*
X205548934Y-94953934D01*
X205559841Y-94944048D01*
X205571664Y-94935280D01*
X205584290Y-94927712D01*
X205597597Y-94921418D01*
X205611457Y-94916459D01*
X205625736Y-94912882D01*
X205640297Y-94910722D01*
X205655000Y-94910000D01*
X206905000Y-94910000D01*
X206919703Y-94910722D01*
G37*
G36*
X210829505Y-98201204D02*
G01*
X210853773Y-98204804D01*
X210877572Y-98210765D01*
X210900671Y-98219030D01*
X210922850Y-98229520D01*
X210943893Y-98242132D01*
X210963599Y-98256747D01*
X210981777Y-98273223D01*
X210998253Y-98291401D01*
X211012868Y-98311107D01*
X211025480Y-98332150D01*
X211035970Y-98354329D01*
X211044235Y-98377428D01*
X211050196Y-98401227D01*
X211053796Y-98425495D01*
X211055000Y-98449999D01*
X211055000Y-99150001D01*
X211053796Y-99174505D01*
X211050196Y-99198773D01*
X211044235Y-99222572D01*
X211035970Y-99245671D01*
X211025480Y-99267850D01*
X211012868Y-99288893D01*
X210998253Y-99308599D01*
X210981777Y-99326777D01*
X210963599Y-99343253D01*
X210943893Y-99357868D01*
X210922850Y-99370480D01*
X210900671Y-99380970D01*
X210877572Y-99389235D01*
X210853773Y-99395196D01*
X210829505Y-99398796D01*
X210805001Y-99400000D01*
X209504999Y-99400000D01*
X209480495Y-99398796D01*
X209456227Y-99395196D01*
X209432428Y-99389235D01*
X209409329Y-99380970D01*
X209387150Y-99370480D01*
X209366107Y-99357868D01*
X209346401Y-99343253D01*
X209328223Y-99326777D01*
X209311747Y-99308599D01*
X209297132Y-99288893D01*
X209284520Y-99267850D01*
X209274030Y-99245671D01*
X209265765Y-99222572D01*
X209259804Y-99198773D01*
X209256204Y-99174505D01*
X209255000Y-99150001D01*
X209255000Y-98449999D01*
X209256204Y-98425495D01*
X209259804Y-98401227D01*
X209265765Y-98377428D01*
X209274030Y-98354329D01*
X209284520Y-98332150D01*
X209297132Y-98311107D01*
X209311747Y-98291401D01*
X209328223Y-98273223D01*
X209346401Y-98256747D01*
X209366107Y-98242132D01*
X209387150Y-98229520D01*
X209409329Y-98219030D01*
X209432428Y-98210765D01*
X209456227Y-98204804D01*
X209480495Y-98201204D01*
X209504999Y-98200000D01*
X210805001Y-98200000D01*
X210829505Y-98201204D01*
G37*
G36*
X210829505Y-103801204D02*
G01*
X210853773Y-103804804D01*
X210877572Y-103810765D01*
X210900671Y-103819030D01*
X210922850Y-103829520D01*
X210943893Y-103842132D01*
X210963599Y-103856747D01*
X210981777Y-103873223D01*
X210998253Y-103891401D01*
X211012868Y-103911107D01*
X211025480Y-103932150D01*
X211035970Y-103954329D01*
X211044235Y-103977428D01*
X211050196Y-104001227D01*
X211053796Y-104025495D01*
X211055000Y-104049999D01*
X211055000Y-104750001D01*
X211053796Y-104774505D01*
X211050196Y-104798773D01*
X211044235Y-104822572D01*
X211035970Y-104845671D01*
X211025480Y-104867850D01*
X211012868Y-104888893D01*
X210998253Y-104908599D01*
X210981777Y-104926777D01*
X210963599Y-104943253D01*
X210943893Y-104957868D01*
X210922850Y-104970480D01*
X210900671Y-104980970D01*
X210877572Y-104989235D01*
X210853773Y-104995196D01*
X210829505Y-104998796D01*
X210805001Y-105000000D01*
X209504999Y-105000000D01*
X209480495Y-104998796D01*
X209456227Y-104995196D01*
X209432428Y-104989235D01*
X209409329Y-104980970D01*
X209387150Y-104970480D01*
X209366107Y-104957868D01*
X209346401Y-104943253D01*
X209328223Y-104926777D01*
X209311747Y-104908599D01*
X209297132Y-104888893D01*
X209284520Y-104867850D01*
X209274030Y-104845671D01*
X209265765Y-104822572D01*
X209259804Y-104798773D01*
X209256204Y-104774505D01*
X209255000Y-104750001D01*
X209255000Y-104049999D01*
X209256204Y-104025495D01*
X209259804Y-104001227D01*
X209265765Y-103977428D01*
X209274030Y-103954329D01*
X209284520Y-103932150D01*
X209297132Y-103911107D01*
X209311747Y-103891401D01*
X209328223Y-103873223D01*
X209346401Y-103856747D01*
X209366107Y-103842132D01*
X209387150Y-103829520D01*
X209409329Y-103819030D01*
X209432428Y-103810765D01*
X209456227Y-103804804D01*
X209480495Y-103801204D01*
X209504999Y-103800000D01*
X210805001Y-103800000D01*
X210829505Y-103801204D01*
G37*
G36*
X206919703Y-99800722D02*
G01*
X206934264Y-99802882D01*
X206948543Y-99806459D01*
X206962403Y-99811418D01*
X206975710Y-99817712D01*
X206988336Y-99825280D01*
X207000159Y-99834048D01*
X207011066Y-99843934D01*
X207020952Y-99854841D01*
X207029720Y-99866664D01*
X207037288Y-99879290D01*
X207043582Y-99892597D01*
X207048541Y-99906457D01*
X207052118Y-99920736D01*
X207054278Y-99935297D01*
X207055000Y-99950000D01*
X207055000Y-100250000D01*
X207054278Y-100264703D01*
X207052118Y-100279264D01*
X207048541Y-100293543D01*
X207043582Y-100307403D01*
X207037288Y-100320710D01*
X207029720Y-100333336D01*
X207020952Y-100345159D01*
X207011066Y-100356066D01*
X207000159Y-100365952D01*
X206988336Y-100374720D01*
X206975710Y-100382288D01*
X206962403Y-100388582D01*
X206948543Y-100393541D01*
X206934264Y-100397118D01*
X206919703Y-100399278D01*
X206905000Y-100400000D01*
X205655000Y-100400000D01*
X205640297Y-100399278D01*
X205625736Y-100397118D01*
X205611457Y-100393541D01*
X205597597Y-100388582D01*
X205584290Y-100382288D01*
X205571664Y-100374720D01*
X205559841Y-100365952D01*
X205548934Y-100356066D01*
X205539048Y-100345159D01*
X205530280Y-100333336D01*
X205522712Y-100320710D01*
X205516418Y-100307403D01*
X205511459Y-100293543D01*
X205507882Y-100279264D01*
X205505722Y-100264703D01*
X205505000Y-100250000D01*
X205505000Y-99950000D01*
X205505722Y-99935297D01*
X205507882Y-99920736D01*
X205511459Y-99906457D01*
X205516418Y-99892597D01*
X205522712Y-99879290D01*
X205530280Y-99866664D01*
X205539048Y-99854841D01*
X205548934Y-99843934D01*
X205559841Y-99834048D01*
X205571664Y-99825280D01*
X205584290Y-99817712D01*
X205597597Y-99811418D01*
X205611457Y-99806459D01*
X205625736Y-99802882D01*
X205640297Y-99800722D01*
X205655000Y-99800000D01*
X206905000Y-99800000D01*
X206919703Y-99800722D01*
G37*
G36*
X206919703Y-100800722D02*
G01*
X206934264Y-100802882D01*
X206948543Y-100806459D01*
X206962403Y-100811418D01*
X206975710Y-100817712D01*
X206988336Y-100825280D01*
X207000159Y-100834048D01*
X207011066Y-100843934D01*
X207020952Y-100854841D01*
X207029720Y-100866664D01*
X207037288Y-100879290D01*
X207043582Y-100892597D01*
X207048541Y-100906457D01*
X207052118Y-100920736D01*
X207054278Y-100935297D01*
X207055000Y-100950000D01*
X207055000Y-101250000D01*
X207054278Y-101264703D01*
X207052118Y-101279264D01*
X207048541Y-101293543D01*
X207043582Y-101307403D01*
X207037288Y-101320710D01*
X207029720Y-101333336D01*
X207020952Y-101345159D01*
X207011066Y-101356066D01*
X207000159Y-101365952D01*
X206988336Y-101374720D01*
X206975710Y-101382288D01*
X206962403Y-101388582D01*
X206948543Y-101393541D01*
X206934264Y-101397118D01*
X206919703Y-101399278D01*
X206905000Y-101400000D01*
X205655000Y-101400000D01*
X205640297Y-101399278D01*
X205625736Y-101397118D01*
X205611457Y-101393541D01*
X205597597Y-101388582D01*
X205584290Y-101382288D01*
X205571664Y-101374720D01*
X205559841Y-101365952D01*
X205548934Y-101356066D01*
X205539048Y-101345159D01*
X205530280Y-101333336D01*
X205522712Y-101320710D01*
X205516418Y-101307403D01*
X205511459Y-101293543D01*
X205507882Y-101279264D01*
X205505722Y-101264703D01*
X205505000Y-101250000D01*
X205505000Y-100950000D01*
X205505722Y-100935297D01*
X205507882Y-100920736D01*
X205511459Y-100906457D01*
X205516418Y-100892597D01*
X205522712Y-100879290D01*
X205530280Y-100866664D01*
X205539048Y-100854841D01*
X205548934Y-100843934D01*
X205559841Y-100834048D01*
X205571664Y-100825280D01*
X205584290Y-100817712D01*
X205597597Y-100811418D01*
X205611457Y-100806459D01*
X205625736Y-100802882D01*
X205640297Y-100800722D01*
X205655000Y-100800000D01*
X206905000Y-100800000D01*
X206919703Y-100800722D01*
G37*
G36*
X206919703Y-101800722D02*
G01*
X206934264Y-101802882D01*
X206948543Y-101806459D01*
X206962403Y-101811418D01*
X206975710Y-101817712D01*
X206988336Y-101825280D01*
X207000159Y-101834048D01*
X207011066Y-101843934D01*
X207020952Y-101854841D01*
X207029720Y-101866664D01*
X207037288Y-101879290D01*
X207043582Y-101892597D01*
X207048541Y-101906457D01*
X207052118Y-101920736D01*
X207054278Y-101935297D01*
X207055000Y-101950000D01*
X207055000Y-102250000D01*
X207054278Y-102264703D01*
X207052118Y-102279264D01*
X207048541Y-102293543D01*
X207043582Y-102307403D01*
X207037288Y-102320710D01*
X207029720Y-102333336D01*
X207020952Y-102345159D01*
X207011066Y-102356066D01*
X207000159Y-102365952D01*
X206988336Y-102374720D01*
X206975710Y-102382288D01*
X206962403Y-102388582D01*
X206948543Y-102393541D01*
X206934264Y-102397118D01*
X206919703Y-102399278D01*
X206905000Y-102400000D01*
X205655000Y-102400000D01*
X205640297Y-102399278D01*
X205625736Y-102397118D01*
X205611457Y-102393541D01*
X205597597Y-102388582D01*
X205584290Y-102382288D01*
X205571664Y-102374720D01*
X205559841Y-102365952D01*
X205548934Y-102356066D01*
X205539048Y-102345159D01*
X205530280Y-102333336D01*
X205522712Y-102320710D01*
X205516418Y-102307403D01*
X205511459Y-102293543D01*
X205507882Y-102279264D01*
X205505722Y-102264703D01*
X205505000Y-102250000D01*
X205505000Y-101950000D01*
X205505722Y-101935297D01*
X205507882Y-101920736D01*
X205511459Y-101906457D01*
X205516418Y-101892597D01*
X205522712Y-101879290D01*
X205530280Y-101866664D01*
X205539048Y-101854841D01*
X205548934Y-101843934D01*
X205559841Y-101834048D01*
X205571664Y-101825280D01*
X205584290Y-101817712D01*
X205597597Y-101811418D01*
X205611457Y-101806459D01*
X205625736Y-101802882D01*
X205640297Y-101800722D01*
X205655000Y-101800000D01*
X206905000Y-101800000D01*
X206919703Y-101800722D01*
G37*
G36*
X206919703Y-102800722D02*
G01*
X206934264Y-102802882D01*
X206948543Y-102806459D01*
X206962403Y-102811418D01*
X206975710Y-102817712D01*
X206988336Y-102825280D01*
X207000159Y-102834048D01*
X207011066Y-102843934D01*
X207020952Y-102854841D01*
X207029720Y-102866664D01*
X207037288Y-102879290D01*
X207043582Y-102892597D01*
X207048541Y-102906457D01*
X207052118Y-102920736D01*
X207054278Y-102935297D01*
X207055000Y-102950000D01*
X207055000Y-103250000D01*
X207054278Y-103264703D01*
X207052118Y-103279264D01*
X207048541Y-103293543D01*
X207043582Y-103307403D01*
X207037288Y-103320710D01*
X207029720Y-103333336D01*
X207020952Y-103345159D01*
X207011066Y-103356066D01*
X207000159Y-103365952D01*
X206988336Y-103374720D01*
X206975710Y-103382288D01*
X206962403Y-103388582D01*
X206948543Y-103393541D01*
X206934264Y-103397118D01*
X206919703Y-103399278D01*
X206905000Y-103400000D01*
X205655000Y-103400000D01*
X205640297Y-103399278D01*
X205625736Y-103397118D01*
X205611457Y-103393541D01*
X205597597Y-103388582D01*
X205584290Y-103382288D01*
X205571664Y-103374720D01*
X205559841Y-103365952D01*
X205548934Y-103356066D01*
X205539048Y-103345159D01*
X205530280Y-103333336D01*
X205522712Y-103320710D01*
X205516418Y-103307403D01*
X205511459Y-103293543D01*
X205507882Y-103279264D01*
X205505722Y-103264703D01*
X205505000Y-103250000D01*
X205505000Y-102950000D01*
X205505722Y-102935297D01*
X205507882Y-102920736D01*
X205511459Y-102906457D01*
X205516418Y-102892597D01*
X205522712Y-102879290D01*
X205530280Y-102866664D01*
X205539048Y-102854841D01*
X205548934Y-102843934D01*
X205559841Y-102834048D01*
X205571664Y-102825280D01*
X205584290Y-102817712D01*
X205597597Y-102811418D01*
X205611457Y-102806459D01*
X205625736Y-102802882D01*
X205640297Y-102800722D01*
X205655000Y-102800000D01*
X206905000Y-102800000D01*
X206919703Y-102800722D01*
G37*
G36*
X185489505Y-103301204D02*
G01*
X185513773Y-103304804D01*
X185537572Y-103310765D01*
X185560671Y-103319030D01*
X185582850Y-103329520D01*
X185603893Y-103342132D01*
X185623599Y-103356747D01*
X185641777Y-103373223D01*
X185658253Y-103391401D01*
X185672868Y-103411107D01*
X185685480Y-103432150D01*
X185695970Y-103454329D01*
X185704235Y-103477428D01*
X185710196Y-103501227D01*
X185713796Y-103525495D01*
X185715000Y-103549999D01*
X185715000Y-104250001D01*
X185713796Y-104274505D01*
X185710196Y-104298773D01*
X185704235Y-104322572D01*
X185695970Y-104345671D01*
X185685480Y-104367850D01*
X185672868Y-104388893D01*
X185658253Y-104408599D01*
X185641777Y-104426777D01*
X185623599Y-104443253D01*
X185603893Y-104457868D01*
X185582850Y-104470480D01*
X185560671Y-104480970D01*
X185537572Y-104489235D01*
X185513773Y-104495196D01*
X185489505Y-104498796D01*
X185465001Y-104500000D01*
X184164999Y-104500000D01*
X184140495Y-104498796D01*
X184116227Y-104495196D01*
X184092428Y-104489235D01*
X184069329Y-104480970D01*
X184047150Y-104470480D01*
X184026107Y-104457868D01*
X184006401Y-104443253D01*
X183988223Y-104426777D01*
X183971747Y-104408599D01*
X183957132Y-104388893D01*
X183944520Y-104367850D01*
X183934030Y-104345671D01*
X183925765Y-104322572D01*
X183919804Y-104298773D01*
X183916204Y-104274505D01*
X183915000Y-104250001D01*
X183915000Y-103549999D01*
X183916204Y-103525495D01*
X183919804Y-103501227D01*
X183925765Y-103477428D01*
X183934030Y-103454329D01*
X183944520Y-103432150D01*
X183957132Y-103411107D01*
X183971747Y-103391401D01*
X183988223Y-103373223D01*
X184006401Y-103356747D01*
X184026107Y-103342132D01*
X184047150Y-103329520D01*
X184069329Y-103319030D01*
X184092428Y-103310765D01*
X184116227Y-103304804D01*
X184140495Y-103301204D01*
X184164999Y-103300000D01*
X185465001Y-103300000D01*
X185489505Y-103301204D01*
G37*
G36*
X185489505Y-98701204D02*
G01*
X185513773Y-98704804D01*
X185537572Y-98710765D01*
X185560671Y-98719030D01*
X185582850Y-98729520D01*
X185603893Y-98742132D01*
X185623599Y-98756747D01*
X185641777Y-98773223D01*
X185658253Y-98791401D01*
X185672868Y-98811107D01*
X185685480Y-98832150D01*
X185695970Y-98854329D01*
X185704235Y-98877428D01*
X185710196Y-98901227D01*
X185713796Y-98925495D01*
X185715000Y-98949999D01*
X185715000Y-99650001D01*
X185713796Y-99674505D01*
X185710196Y-99698773D01*
X185704235Y-99722572D01*
X185695970Y-99745671D01*
X185685480Y-99767850D01*
X185672868Y-99788893D01*
X185658253Y-99808599D01*
X185641777Y-99826777D01*
X185623599Y-99843253D01*
X185603893Y-99857868D01*
X185582850Y-99870480D01*
X185560671Y-99880970D01*
X185537572Y-99889235D01*
X185513773Y-99895196D01*
X185489505Y-99898796D01*
X185465001Y-99900000D01*
X184164999Y-99900000D01*
X184140495Y-99898796D01*
X184116227Y-99895196D01*
X184092428Y-99889235D01*
X184069329Y-99880970D01*
X184047150Y-99870480D01*
X184026107Y-99857868D01*
X184006401Y-99843253D01*
X183988223Y-99826777D01*
X183971747Y-99808599D01*
X183957132Y-99788893D01*
X183944520Y-99767850D01*
X183934030Y-99745671D01*
X183925765Y-99722572D01*
X183919804Y-99698773D01*
X183916204Y-99674505D01*
X183915000Y-99650001D01*
X183915000Y-98949999D01*
X183916204Y-98925495D01*
X183919804Y-98901227D01*
X183925765Y-98877428D01*
X183934030Y-98854329D01*
X183944520Y-98832150D01*
X183957132Y-98811107D01*
X183971747Y-98791401D01*
X183988223Y-98773223D01*
X184006401Y-98756747D01*
X184026107Y-98742132D01*
X184047150Y-98729520D01*
X184069329Y-98719030D01*
X184092428Y-98710765D01*
X184116227Y-98704804D01*
X184140495Y-98701204D01*
X184164999Y-98700000D01*
X185465001Y-98700000D01*
X185489505Y-98701204D01*
G37*
G36*
X189329703Y-102300722D02*
G01*
X189344264Y-102302882D01*
X189358543Y-102306459D01*
X189372403Y-102311418D01*
X189385710Y-102317712D01*
X189398336Y-102325280D01*
X189410159Y-102334048D01*
X189421066Y-102343934D01*
X189430952Y-102354841D01*
X189439720Y-102366664D01*
X189447288Y-102379290D01*
X189453582Y-102392597D01*
X189458541Y-102406457D01*
X189462118Y-102420736D01*
X189464278Y-102435297D01*
X189465000Y-102450000D01*
X189465000Y-102750000D01*
X189464278Y-102764703D01*
X189462118Y-102779264D01*
X189458541Y-102793543D01*
X189453582Y-102807403D01*
X189447288Y-102820710D01*
X189439720Y-102833336D01*
X189430952Y-102845159D01*
X189421066Y-102856066D01*
X189410159Y-102865952D01*
X189398336Y-102874720D01*
X189385710Y-102882288D01*
X189372403Y-102888582D01*
X189358543Y-102893541D01*
X189344264Y-102897118D01*
X189329703Y-102899278D01*
X189315000Y-102900000D01*
X188065000Y-102900000D01*
X188050297Y-102899278D01*
X188035736Y-102897118D01*
X188021457Y-102893541D01*
X188007597Y-102888582D01*
X187994290Y-102882288D01*
X187981664Y-102874720D01*
X187969841Y-102865952D01*
X187958934Y-102856066D01*
X187949048Y-102845159D01*
X187940280Y-102833336D01*
X187932712Y-102820710D01*
X187926418Y-102807403D01*
X187921459Y-102793543D01*
X187917882Y-102779264D01*
X187915722Y-102764703D01*
X187915000Y-102750000D01*
X187915000Y-102450000D01*
X187915722Y-102435297D01*
X187917882Y-102420736D01*
X187921459Y-102406457D01*
X187926418Y-102392597D01*
X187932712Y-102379290D01*
X187940280Y-102366664D01*
X187949048Y-102354841D01*
X187958934Y-102343934D01*
X187969841Y-102334048D01*
X187981664Y-102325280D01*
X187994290Y-102317712D01*
X188007597Y-102311418D01*
X188021457Y-102306459D01*
X188035736Y-102302882D01*
X188050297Y-102300722D01*
X188065000Y-102300000D01*
X189315000Y-102300000D01*
X189329703Y-102300722D01*
G37*
G36*
X189329703Y-101300722D02*
G01*
X189344264Y-101302882D01*
X189358543Y-101306459D01*
X189372403Y-101311418D01*
X189385710Y-101317712D01*
X189398336Y-101325280D01*
X189410159Y-101334048D01*
X189421066Y-101343934D01*
X189430952Y-101354841D01*
X189439720Y-101366664D01*
X189447288Y-101379290D01*
X189453582Y-101392597D01*
X189458541Y-101406457D01*
X189462118Y-101420736D01*
X189464278Y-101435297D01*
X189465000Y-101450000D01*
X189465000Y-101750000D01*
X189464278Y-101764703D01*
X189462118Y-101779264D01*
X189458541Y-101793543D01*
X189453582Y-101807403D01*
X189447288Y-101820710D01*
X189439720Y-101833336D01*
X189430952Y-101845159D01*
X189421066Y-101856066D01*
X189410159Y-101865952D01*
X189398336Y-101874720D01*
X189385710Y-101882288D01*
X189372403Y-101888582D01*
X189358543Y-101893541D01*
X189344264Y-101897118D01*
X189329703Y-101899278D01*
X189315000Y-101900000D01*
X188065000Y-101900000D01*
X188050297Y-101899278D01*
X188035736Y-101897118D01*
X188021457Y-101893541D01*
X188007597Y-101888582D01*
X187994290Y-101882288D01*
X187981664Y-101874720D01*
X187969841Y-101865952D01*
X187958934Y-101856066D01*
X187949048Y-101845159D01*
X187940280Y-101833336D01*
X187932712Y-101820710D01*
X187926418Y-101807403D01*
X187921459Y-101793543D01*
X187917882Y-101779264D01*
X187915722Y-101764703D01*
X187915000Y-101750000D01*
X187915000Y-101450000D01*
X187915722Y-101435297D01*
X187917882Y-101420736D01*
X187921459Y-101406457D01*
X187926418Y-101392597D01*
X187932712Y-101379290D01*
X187940280Y-101366664D01*
X187949048Y-101354841D01*
X187958934Y-101343934D01*
X187969841Y-101334048D01*
X187981664Y-101325280D01*
X187994290Y-101317712D01*
X188007597Y-101311418D01*
X188021457Y-101306459D01*
X188035736Y-101302882D01*
X188050297Y-101300722D01*
X188065000Y-101300000D01*
X189315000Y-101300000D01*
X189329703Y-101300722D01*
G37*
G36*
X189329703Y-100300722D02*
G01*
X189344264Y-100302882D01*
X189358543Y-100306459D01*
X189372403Y-100311418D01*
X189385710Y-100317712D01*
X189398336Y-100325280D01*
X189410159Y-100334048D01*
X189421066Y-100343934D01*
X189430952Y-100354841D01*
X189439720Y-100366664D01*
X189447288Y-100379290D01*
X189453582Y-100392597D01*
X189458541Y-100406457D01*
X189462118Y-100420736D01*
X189464278Y-100435297D01*
X189465000Y-100450000D01*
X189465000Y-100750000D01*
X189464278Y-100764703D01*
X189462118Y-100779264D01*
X189458541Y-100793543D01*
X189453582Y-100807403D01*
X189447288Y-100820710D01*
X189439720Y-100833336D01*
X189430952Y-100845159D01*
X189421066Y-100856066D01*
X189410159Y-100865952D01*
X189398336Y-100874720D01*
X189385710Y-100882288D01*
X189372403Y-100888582D01*
X189358543Y-100893541D01*
X189344264Y-100897118D01*
X189329703Y-100899278D01*
X189315000Y-100900000D01*
X188065000Y-100900000D01*
X188050297Y-100899278D01*
X188035736Y-100897118D01*
X188021457Y-100893541D01*
X188007597Y-100888582D01*
X187994290Y-100882288D01*
X187981664Y-100874720D01*
X187969841Y-100865952D01*
X187958934Y-100856066D01*
X187949048Y-100845159D01*
X187940280Y-100833336D01*
X187932712Y-100820710D01*
X187926418Y-100807403D01*
X187921459Y-100793543D01*
X187917882Y-100779264D01*
X187915722Y-100764703D01*
X187915000Y-100750000D01*
X187915000Y-100450000D01*
X187915722Y-100435297D01*
X187917882Y-100420736D01*
X187921459Y-100406457D01*
X187926418Y-100392597D01*
X187932712Y-100379290D01*
X187940280Y-100366664D01*
X187949048Y-100354841D01*
X187958934Y-100343934D01*
X187969841Y-100334048D01*
X187981664Y-100325280D01*
X187994290Y-100317712D01*
X188007597Y-100311418D01*
X188021457Y-100306459D01*
X188035736Y-100302882D01*
X188050297Y-100300722D01*
X188065000Y-100300000D01*
X189315000Y-100300000D01*
X189329703Y-100300722D01*
G37*
G36*
X194579504Y-89296204D02*
G01*
X194603773Y-89299804D01*
X194627571Y-89305765D01*
X194650671Y-89314030D01*
X194672849Y-89324520D01*
X194693893Y-89337133D01*
X194713598Y-89351747D01*
X194731777Y-89368223D01*
X194748253Y-89386402D01*
X194762867Y-89406107D01*
X194775480Y-89427151D01*
X194785970Y-89449329D01*
X194794235Y-89472429D01*
X194800196Y-89496227D01*
X194803796Y-89520496D01*
X194805000Y-89545000D01*
X194805000Y-90795000D01*
X194803796Y-90819504D01*
X194800196Y-90843773D01*
X194794235Y-90867571D01*
X194785970Y-90890671D01*
X194775480Y-90912849D01*
X194762867Y-90933893D01*
X194748253Y-90953598D01*
X194731777Y-90971777D01*
X194713598Y-90988253D01*
X194693893Y-91002867D01*
X194672849Y-91015480D01*
X194650671Y-91025970D01*
X194627571Y-91034235D01*
X194603773Y-91040196D01*
X194579504Y-91043796D01*
X194555000Y-91045000D01*
X193805000Y-91045000D01*
X193780496Y-91043796D01*
X193756227Y-91040196D01*
X193732429Y-91034235D01*
X193709329Y-91025970D01*
X193687151Y-91015480D01*
X193666107Y-91002867D01*
X193646402Y-90988253D01*
X193628223Y-90971777D01*
X193611747Y-90953598D01*
X193597133Y-90933893D01*
X193584520Y-90912849D01*
X193574030Y-90890671D01*
X193565765Y-90867571D01*
X193559804Y-90843773D01*
X193556204Y-90819504D01*
X193555000Y-90795000D01*
X193555000Y-89545000D01*
X193556204Y-89520496D01*
X193559804Y-89496227D01*
X193565765Y-89472429D01*
X193574030Y-89449329D01*
X193584520Y-89427151D01*
X193597133Y-89406107D01*
X193611747Y-89386402D01*
X193628223Y-89368223D01*
X193646402Y-89351747D01*
X193666107Y-89337133D01*
X193687151Y-89324520D01*
X193709329Y-89314030D01*
X193732429Y-89305765D01*
X193756227Y-89299804D01*
X193780496Y-89296204D01*
X193805000Y-89295000D01*
X194555000Y-89295000D01*
X194579504Y-89296204D01*
G37*
G36*
X197379504Y-89296204D02*
G01*
X197403773Y-89299804D01*
X197427571Y-89305765D01*
X197450671Y-89314030D01*
X197472849Y-89324520D01*
X197493893Y-89337133D01*
X197513598Y-89351747D01*
X197531777Y-89368223D01*
X197548253Y-89386402D01*
X197562867Y-89406107D01*
X197575480Y-89427151D01*
X197585970Y-89449329D01*
X197594235Y-89472429D01*
X197600196Y-89496227D01*
X197603796Y-89520496D01*
X197605000Y-89545000D01*
X197605000Y-90795000D01*
X197603796Y-90819504D01*
X197600196Y-90843773D01*
X197594235Y-90867571D01*
X197585970Y-90890671D01*
X197575480Y-90912849D01*
X197562867Y-90933893D01*
X197548253Y-90953598D01*
X197531777Y-90971777D01*
X197513598Y-90988253D01*
X197493893Y-91002867D01*
X197472849Y-91015480D01*
X197450671Y-91025970D01*
X197427571Y-91034235D01*
X197403773Y-91040196D01*
X197379504Y-91043796D01*
X197355000Y-91045000D01*
X196605000Y-91045000D01*
X196580496Y-91043796D01*
X196556227Y-91040196D01*
X196532429Y-91034235D01*
X196509329Y-91025970D01*
X196487151Y-91015480D01*
X196466107Y-91002867D01*
X196446402Y-90988253D01*
X196428223Y-90971777D01*
X196411747Y-90953598D01*
X196397133Y-90933893D01*
X196384520Y-90912849D01*
X196374030Y-90890671D01*
X196365765Y-90867571D01*
X196359804Y-90843773D01*
X196356204Y-90819504D01*
X196355000Y-90795000D01*
X196355000Y-89545000D01*
X196356204Y-89520496D01*
X196359804Y-89496227D01*
X196365765Y-89472429D01*
X196374030Y-89449329D01*
X196384520Y-89427151D01*
X196397133Y-89406107D01*
X196411747Y-89386402D01*
X196428223Y-89368223D01*
X196446402Y-89351747D01*
X196466107Y-89337133D01*
X196487151Y-89324520D01*
X196509329Y-89314030D01*
X196532429Y-89305765D01*
X196556227Y-89299804D01*
X196580496Y-89296204D01*
X196605000Y-89295000D01*
X197355000Y-89295000D01*
X197379504Y-89296204D01*
G37*
G36*
X191074504Y-106041204D02*
G01*
X191098773Y-106044804D01*
X191122571Y-106050765D01*
X191145671Y-106059030D01*
X191167849Y-106069520D01*
X191188893Y-106082133D01*
X191208598Y-106096747D01*
X191226777Y-106113223D01*
X191243253Y-106131402D01*
X191257867Y-106151107D01*
X191270480Y-106172151D01*
X191280970Y-106194329D01*
X191289235Y-106217429D01*
X191295196Y-106241227D01*
X191298796Y-106265496D01*
X191300000Y-106290000D01*
X191300000Y-109290000D01*
X191298796Y-109314504D01*
X191295196Y-109338773D01*
X191289235Y-109362571D01*
X191280970Y-109385671D01*
X191270480Y-109407849D01*
X191257867Y-109428893D01*
X191243253Y-109448598D01*
X191226777Y-109466777D01*
X191208598Y-109483253D01*
X191188893Y-109497867D01*
X191167849Y-109510480D01*
X191145671Y-109520970D01*
X191122571Y-109529235D01*
X191098773Y-109535196D01*
X191074504Y-109538796D01*
X191050000Y-109540000D01*
X189950000Y-109540000D01*
X189925496Y-109538796D01*
X189901227Y-109535196D01*
X189877429Y-109529235D01*
X189854329Y-109520970D01*
X189832151Y-109510480D01*
X189811107Y-109497867D01*
X189791402Y-109483253D01*
X189773223Y-109466777D01*
X189756747Y-109448598D01*
X189742133Y-109428893D01*
X189729520Y-109407849D01*
X189719030Y-109385671D01*
X189710765Y-109362571D01*
X189704804Y-109338773D01*
X189701204Y-109314504D01*
X189700000Y-109290000D01*
X189700000Y-106290000D01*
X189701204Y-106265496D01*
X189704804Y-106241227D01*
X189710765Y-106217429D01*
X189719030Y-106194329D01*
X189729520Y-106172151D01*
X189742133Y-106151107D01*
X189756747Y-106131402D01*
X189773223Y-106113223D01*
X189791402Y-106096747D01*
X189811107Y-106082133D01*
X189832151Y-106069520D01*
X189854329Y-106059030D01*
X189877429Y-106050765D01*
X189901227Y-106044804D01*
X189925496Y-106041204D01*
X189950000Y-106040000D01*
X191050000Y-106040000D01*
X191074504Y-106041204D01*
G37*
G36*
X191074504Y-111441204D02*
G01*
X191098773Y-111444804D01*
X191122571Y-111450765D01*
X191145671Y-111459030D01*
X191167849Y-111469520D01*
X191188893Y-111482133D01*
X191208598Y-111496747D01*
X191226777Y-111513223D01*
X191243253Y-111531402D01*
X191257867Y-111551107D01*
X191270480Y-111572151D01*
X191280970Y-111594329D01*
X191289235Y-111617429D01*
X191295196Y-111641227D01*
X191298796Y-111665496D01*
X191300000Y-111690000D01*
X191300000Y-114690000D01*
X191298796Y-114714504D01*
X191295196Y-114738773D01*
X191289235Y-114762571D01*
X191280970Y-114785671D01*
X191270480Y-114807849D01*
X191257867Y-114828893D01*
X191243253Y-114848598D01*
X191226777Y-114866777D01*
X191208598Y-114883253D01*
X191188893Y-114897867D01*
X191167849Y-114910480D01*
X191145671Y-114920970D01*
X191122571Y-114929235D01*
X191098773Y-114935196D01*
X191074504Y-114938796D01*
X191050000Y-114940000D01*
X189950000Y-114940000D01*
X189925496Y-114938796D01*
X189901227Y-114935196D01*
X189877429Y-114929235D01*
X189854329Y-114920970D01*
X189832151Y-114910480D01*
X189811107Y-114897867D01*
X189791402Y-114883253D01*
X189773223Y-114866777D01*
X189756747Y-114848598D01*
X189742133Y-114828893D01*
X189729520Y-114807849D01*
X189719030Y-114785671D01*
X189710765Y-114762571D01*
X189704804Y-114738773D01*
X189701204Y-114714504D01*
X189700000Y-114690000D01*
X189700000Y-111690000D01*
X189701204Y-111665496D01*
X189704804Y-111641227D01*
X189710765Y-111617429D01*
X189719030Y-111594329D01*
X189729520Y-111572151D01*
X189742133Y-111551107D01*
X189756747Y-111531402D01*
X189773223Y-111513223D01*
X189791402Y-111496747D01*
X189811107Y-111482133D01*
X189832151Y-111469520D01*
X189854329Y-111459030D01*
X189877429Y-111450765D01*
X189901227Y-111444804D01*
X189925496Y-111441204D01*
X189950000Y-111440000D01*
X191050000Y-111440000D01*
X191074504Y-111441204D01*
G37*
G36*
X203729504Y-89296204D02*
G01*
X203753773Y-89299804D01*
X203777571Y-89305765D01*
X203800671Y-89314030D01*
X203822849Y-89324520D01*
X203843893Y-89337133D01*
X203863598Y-89351747D01*
X203881777Y-89368223D01*
X203898253Y-89386402D01*
X203912867Y-89406107D01*
X203925480Y-89427151D01*
X203935970Y-89449329D01*
X203944235Y-89472429D01*
X203950196Y-89496227D01*
X203953796Y-89520496D01*
X203955000Y-89545000D01*
X203955000Y-90795000D01*
X203953796Y-90819504D01*
X203950196Y-90843773D01*
X203944235Y-90867571D01*
X203935970Y-90890671D01*
X203925480Y-90912849D01*
X203912867Y-90933893D01*
X203898253Y-90953598D01*
X203881777Y-90971777D01*
X203863598Y-90988253D01*
X203843893Y-91002867D01*
X203822849Y-91015480D01*
X203800671Y-91025970D01*
X203777571Y-91034235D01*
X203753773Y-91040196D01*
X203729504Y-91043796D01*
X203705000Y-91045000D01*
X202955000Y-91045000D01*
X202930496Y-91043796D01*
X202906227Y-91040196D01*
X202882429Y-91034235D01*
X202859329Y-91025970D01*
X202837151Y-91015480D01*
X202816107Y-91002867D01*
X202796402Y-90988253D01*
X202778223Y-90971777D01*
X202761747Y-90953598D01*
X202747133Y-90933893D01*
X202734520Y-90912849D01*
X202724030Y-90890671D01*
X202715765Y-90867571D01*
X202709804Y-90843773D01*
X202706204Y-90819504D01*
X202705000Y-90795000D01*
X202705000Y-89545000D01*
X202706204Y-89520496D01*
X202709804Y-89496227D01*
X202715765Y-89472429D01*
X202724030Y-89449329D01*
X202734520Y-89427151D01*
X202747133Y-89406107D01*
X202761747Y-89386402D01*
X202778223Y-89368223D01*
X202796402Y-89351747D01*
X202816107Y-89337133D01*
X202837151Y-89324520D01*
X202859329Y-89314030D01*
X202882429Y-89305765D01*
X202906227Y-89299804D01*
X202930496Y-89296204D01*
X202955000Y-89295000D01*
X203705000Y-89295000D01*
X203729504Y-89296204D01*
G37*
G36*
X200929504Y-89296204D02*
G01*
X200953773Y-89299804D01*
X200977571Y-89305765D01*
X201000671Y-89314030D01*
X201022849Y-89324520D01*
X201043893Y-89337133D01*
X201063598Y-89351747D01*
X201081777Y-89368223D01*
X201098253Y-89386402D01*
X201112867Y-89406107D01*
X201125480Y-89427151D01*
X201135970Y-89449329D01*
X201144235Y-89472429D01*
X201150196Y-89496227D01*
X201153796Y-89520496D01*
X201155000Y-89545000D01*
X201155000Y-90795000D01*
X201153796Y-90819504D01*
X201150196Y-90843773D01*
X201144235Y-90867571D01*
X201135970Y-90890671D01*
X201125480Y-90912849D01*
X201112867Y-90933893D01*
X201098253Y-90953598D01*
X201081777Y-90971777D01*
X201063598Y-90988253D01*
X201043893Y-91002867D01*
X201022849Y-91015480D01*
X201000671Y-91025970D01*
X200977571Y-91034235D01*
X200953773Y-91040196D01*
X200929504Y-91043796D01*
X200905000Y-91045000D01*
X200155000Y-91045000D01*
X200130496Y-91043796D01*
X200106227Y-91040196D01*
X200082429Y-91034235D01*
X200059329Y-91025970D01*
X200037151Y-91015480D01*
X200016107Y-91002867D01*
X199996402Y-90988253D01*
X199978223Y-90971777D01*
X199961747Y-90953598D01*
X199947133Y-90933893D01*
X199934520Y-90912849D01*
X199924030Y-90890671D01*
X199915765Y-90867571D01*
X199909804Y-90843773D01*
X199906204Y-90819504D01*
X199905000Y-90795000D01*
X199905000Y-89545000D01*
X199906204Y-89520496D01*
X199909804Y-89496227D01*
X199915765Y-89472429D01*
X199924030Y-89449329D01*
X199934520Y-89427151D01*
X199947133Y-89406107D01*
X199961747Y-89386402D01*
X199978223Y-89368223D01*
X199996402Y-89351747D01*
X200016107Y-89337133D01*
X200037151Y-89324520D01*
X200059329Y-89314030D01*
X200082429Y-89305765D01*
X200106227Y-89299804D01*
X200130496Y-89296204D01*
X200155000Y-89295000D01*
X200905000Y-89295000D01*
X200929504Y-89296204D01*
G37*
G36*
X208679504Y-107076204D02*
G01*
X208703773Y-107079804D01*
X208727571Y-107085765D01*
X208750671Y-107094030D01*
X208772849Y-107104520D01*
X208793893Y-107117133D01*
X208813598Y-107131747D01*
X208831777Y-107148223D01*
X208848253Y-107166402D01*
X208862867Y-107186107D01*
X208875480Y-107207151D01*
X208885970Y-107229329D01*
X208894235Y-107252429D01*
X208900196Y-107276227D01*
X208903796Y-107300496D01*
X208905000Y-107325000D01*
X208905000Y-108575000D01*
X208903796Y-108599504D01*
X208900196Y-108623773D01*
X208894235Y-108647571D01*
X208885970Y-108670671D01*
X208875480Y-108692849D01*
X208862867Y-108713893D01*
X208848253Y-108733598D01*
X208831777Y-108751777D01*
X208813598Y-108768253D01*
X208793893Y-108782867D01*
X208772849Y-108795480D01*
X208750671Y-108805970D01*
X208727571Y-108814235D01*
X208703773Y-108820196D01*
X208679504Y-108823796D01*
X208655000Y-108825000D01*
X207905000Y-108825000D01*
X207880496Y-108823796D01*
X207856227Y-108820196D01*
X207832429Y-108814235D01*
X207809329Y-108805970D01*
X207787151Y-108795480D01*
X207766107Y-108782867D01*
X207746402Y-108768253D01*
X207728223Y-108751777D01*
X207711747Y-108733598D01*
X207697133Y-108713893D01*
X207684520Y-108692849D01*
X207674030Y-108670671D01*
X207665765Y-108647571D01*
X207659804Y-108623773D01*
X207656204Y-108599504D01*
X207655000Y-108575000D01*
X207655000Y-107325000D01*
X207656204Y-107300496D01*
X207659804Y-107276227D01*
X207665765Y-107252429D01*
X207674030Y-107229329D01*
X207684520Y-107207151D01*
X207697133Y-107186107D01*
X207711747Y-107166402D01*
X207728223Y-107148223D01*
X207746402Y-107131747D01*
X207766107Y-107117133D01*
X207787151Y-107104520D01*
X207809329Y-107094030D01*
X207832429Y-107085765D01*
X207856227Y-107079804D01*
X207880496Y-107076204D01*
X207905000Y-107075000D01*
X208655000Y-107075000D01*
X208679504Y-107076204D01*
G37*
G36*
X205879504Y-107076204D02*
G01*
X205903773Y-107079804D01*
X205927571Y-107085765D01*
X205950671Y-107094030D01*
X205972849Y-107104520D01*
X205993893Y-107117133D01*
X206013598Y-107131747D01*
X206031777Y-107148223D01*
X206048253Y-107166402D01*
X206062867Y-107186107D01*
X206075480Y-107207151D01*
X206085970Y-107229329D01*
X206094235Y-107252429D01*
X206100196Y-107276227D01*
X206103796Y-107300496D01*
X206105000Y-107325000D01*
X206105000Y-108575000D01*
X206103796Y-108599504D01*
X206100196Y-108623773D01*
X206094235Y-108647571D01*
X206085970Y-108670671D01*
X206075480Y-108692849D01*
X206062867Y-108713893D01*
X206048253Y-108733598D01*
X206031777Y-108751777D01*
X206013598Y-108768253D01*
X205993893Y-108782867D01*
X205972849Y-108795480D01*
X205950671Y-108805970D01*
X205927571Y-108814235D01*
X205903773Y-108820196D01*
X205879504Y-108823796D01*
X205855000Y-108825000D01*
X205105000Y-108825000D01*
X205080496Y-108823796D01*
X205056227Y-108820196D01*
X205032429Y-108814235D01*
X205009329Y-108805970D01*
X204987151Y-108795480D01*
X204966107Y-108782867D01*
X204946402Y-108768253D01*
X204928223Y-108751777D01*
X204911747Y-108733598D01*
X204897133Y-108713893D01*
X204884520Y-108692849D01*
X204874030Y-108670671D01*
X204865765Y-108647571D01*
X204859804Y-108623773D01*
X204856204Y-108599504D01*
X204855000Y-108575000D01*
X204855000Y-107325000D01*
X204856204Y-107300496D01*
X204859804Y-107276227D01*
X204865765Y-107252429D01*
X204874030Y-107229329D01*
X204884520Y-107207151D01*
X204897133Y-107186107D01*
X204911747Y-107166402D01*
X204928223Y-107148223D01*
X204946402Y-107131747D01*
X204966107Y-107117133D01*
X204987151Y-107104520D01*
X205009329Y-107094030D01*
X205032429Y-107085765D01*
X205056227Y-107079804D01*
X205080496Y-107076204D01*
X205105000Y-107075000D01*
X205855000Y-107075000D01*
X205879504Y-107076204D01*
G37*
G36*
X208767004Y-110886204D02*
G01*
X208791273Y-110889804D01*
X208815071Y-110895765D01*
X208838171Y-110904030D01*
X208860349Y-110914520D01*
X208881393Y-110927133D01*
X208901098Y-110941747D01*
X208919277Y-110958223D01*
X208935753Y-110976402D01*
X208950367Y-110996107D01*
X208962980Y-111017151D01*
X208973470Y-111039329D01*
X208981735Y-111062429D01*
X208987696Y-111086227D01*
X208991296Y-111110496D01*
X208992500Y-111135000D01*
X208992500Y-112385000D01*
X208991296Y-112409504D01*
X208987696Y-112433773D01*
X208981735Y-112457571D01*
X208973470Y-112480671D01*
X208962980Y-112502849D01*
X208950367Y-112523893D01*
X208935753Y-112543598D01*
X208919277Y-112561777D01*
X208901098Y-112578253D01*
X208881393Y-112592867D01*
X208860349Y-112605480D01*
X208838171Y-112615970D01*
X208815071Y-112624235D01*
X208791273Y-112630196D01*
X208767004Y-112633796D01*
X208742500Y-112635000D01*
X207817500Y-112635000D01*
X207792996Y-112633796D01*
X207768727Y-112630196D01*
X207744929Y-112624235D01*
X207721829Y-112615970D01*
X207699651Y-112605480D01*
X207678607Y-112592867D01*
X207658902Y-112578253D01*
X207640723Y-112561777D01*
X207624247Y-112543598D01*
X207609633Y-112523893D01*
X207597020Y-112502849D01*
X207586530Y-112480671D01*
X207578265Y-112457571D01*
X207572304Y-112433773D01*
X207568704Y-112409504D01*
X207567500Y-112385000D01*
X207567500Y-111135000D01*
X207568704Y-111110496D01*
X207572304Y-111086227D01*
X207578265Y-111062429D01*
X207586530Y-111039329D01*
X207597020Y-111017151D01*
X207609633Y-110996107D01*
X207624247Y-110976402D01*
X207640723Y-110958223D01*
X207658902Y-110941747D01*
X207678607Y-110927133D01*
X207699651Y-110914520D01*
X207721829Y-110904030D01*
X207744929Y-110895765D01*
X207768727Y-110889804D01*
X207792996Y-110886204D01*
X207817500Y-110885000D01*
X208742500Y-110885000D01*
X208767004Y-110886204D01*
G37*
G36*
X205792004Y-110886204D02*
G01*
X205816273Y-110889804D01*
X205840071Y-110895765D01*
X205863171Y-110904030D01*
X205885349Y-110914520D01*
X205906393Y-110927133D01*
X205926098Y-110941747D01*
X205944277Y-110958223D01*
X205960753Y-110976402D01*
X205975367Y-110996107D01*
X205987980Y-111017151D01*
X205998470Y-111039329D01*
X206006735Y-111062429D01*
X206012696Y-111086227D01*
X206016296Y-111110496D01*
X206017500Y-111135000D01*
X206017500Y-112385000D01*
X206016296Y-112409504D01*
X206012696Y-112433773D01*
X206006735Y-112457571D01*
X205998470Y-112480671D01*
X205987980Y-112502849D01*
X205975367Y-112523893D01*
X205960753Y-112543598D01*
X205944277Y-112561777D01*
X205926098Y-112578253D01*
X205906393Y-112592867D01*
X205885349Y-112605480D01*
X205863171Y-112615970D01*
X205840071Y-112624235D01*
X205816273Y-112630196D01*
X205792004Y-112633796D01*
X205767500Y-112635000D01*
X204842500Y-112635000D01*
X204817996Y-112633796D01*
X204793727Y-112630196D01*
X204769929Y-112624235D01*
X204746829Y-112615970D01*
X204724651Y-112605480D01*
X204703607Y-112592867D01*
X204683902Y-112578253D01*
X204665723Y-112561777D01*
X204649247Y-112543598D01*
X204634633Y-112523893D01*
X204622020Y-112502849D01*
X204611530Y-112480671D01*
X204603265Y-112457571D01*
X204597304Y-112433773D01*
X204593704Y-112409504D01*
X204592500Y-112385000D01*
X204592500Y-111135000D01*
X204593704Y-111110496D01*
X204597304Y-111086227D01*
X204603265Y-111062429D01*
X204611530Y-111039329D01*
X204622020Y-111017151D01*
X204634633Y-110996107D01*
X204649247Y-110976402D01*
X204665723Y-110958223D01*
X204683902Y-110941747D01*
X204703607Y-110927133D01*
X204724651Y-110914520D01*
X204746829Y-110904030D01*
X204769929Y-110895765D01*
X204793727Y-110889804D01*
X204817996Y-110886204D01*
X204842500Y-110885000D01*
X205767500Y-110885000D01*
X205792004Y-110886204D01*
G37*
M02*
