G04 #@! TF.GenerationSoftware,KiCad,Pcbnew,(5.1.5)-3*
G04 #@! TF.CreationDate,2020-04-20T18:44:57+02:00*
G04 #@! TF.ProjectId,RS485-Modbus-Tiny-Sensor-Module,52533438-352d-44d6-9f64-6275732d5469,rev?*
G04 #@! TF.SameCoordinates,Original*
G04 #@! TF.FileFunction,Legend,Bot*
G04 #@! TF.FilePolarity,Positive*
%FSLAX46Y46*%
G04 Gerber Fmt 4.6, Leading zero omitted, Abs format (unit mm)*
G04 Created by KiCad (PCBNEW (5.1.5)-3) date 2020-04-20 18:44:57*
%MOMM*%
%LPD*%
G04 APERTURE LIST*
%ADD10C,0.150000*%
%ADD11C,0.050000*%
%ADD12C,0.120000*%
G04 APERTURE END LIST*
D10*
X198311333Y-114162666D02*
X198644666Y-114396000D01*
X198311333Y-114562666D02*
X199011333Y-114562666D01*
X199011333Y-114296000D01*
X198978000Y-114229333D01*
X198944666Y-114196000D01*
X198878000Y-114162666D01*
X198778000Y-114162666D01*
X198711333Y-114196000D01*
X198678000Y-114229333D01*
X198644666Y-114296000D01*
X198644666Y-114562666D01*
X199011333Y-113929333D02*
X198311333Y-113462666D01*
X199011333Y-113462666D02*
X198311333Y-113929333D01*
X200214666Y-115133333D02*
X200248000Y-115100000D01*
X200281333Y-115033333D01*
X200281333Y-114866666D01*
X200248000Y-114800000D01*
X200214666Y-114766666D01*
X200148000Y-114733333D01*
X200081333Y-114733333D01*
X199981333Y-114766666D01*
X199581333Y-115166666D01*
X199581333Y-114733333D01*
X200048000Y-114133333D02*
X199581333Y-114133333D01*
X200314666Y-114300000D02*
X199814666Y-114466666D01*
X199814666Y-114033333D01*
X200281333Y-113866666D02*
X199581333Y-113633333D01*
X200281333Y-113400000D01*
X201518000Y-114833333D02*
X201551333Y-114900000D01*
X201551333Y-115000000D01*
X201518000Y-115100000D01*
X201451333Y-115166666D01*
X201384666Y-115200000D01*
X201251333Y-115233333D01*
X201151333Y-115233333D01*
X201018000Y-115200000D01*
X200951333Y-115166666D01*
X200884666Y-115100000D01*
X200851333Y-115000000D01*
X200851333Y-114933333D01*
X200884666Y-114833333D01*
X200918000Y-114800000D01*
X201151333Y-114800000D01*
X201151333Y-114933333D01*
X200851333Y-114500000D02*
X201551333Y-114500000D01*
X200851333Y-114100000D01*
X201551333Y-114100000D01*
X200851333Y-113766666D02*
X201551333Y-113766666D01*
X201551333Y-113600000D01*
X201518000Y-113500000D01*
X201451333Y-113433333D01*
X201384666Y-113400000D01*
X201251333Y-113366666D01*
X201151333Y-113366666D01*
X201018000Y-113400000D01*
X200951333Y-113433333D01*
X200884666Y-113500000D01*
X200851333Y-113600000D01*
X200851333Y-113766666D01*
X197741333Y-114579333D02*
X197741333Y-114179333D01*
X197041333Y-114379333D02*
X197741333Y-114379333D01*
X197741333Y-114012666D02*
X197041333Y-113546000D01*
X197741333Y-113546000D02*
X197041333Y-114012666D01*
D11*
X213360000Y-115570000D02*
X182880000Y-115570000D01*
X213360000Y-83820000D02*
X213360000Y-115570000D01*
X182880000Y-83820000D02*
X213360000Y-83820000D01*
X182880000Y-115570000D02*
X182880000Y-83820000D01*
D12*
X194940000Y-101530000D02*
X194940000Y-102630000D01*
X194670000Y-101530000D02*
X194940000Y-101530000D01*
X194670000Y-100030000D02*
X194670000Y-101530000D01*
X201300000Y-101530000D02*
X201300000Y-104360000D01*
X201570000Y-101530000D02*
X201300000Y-101530000D01*
X201570000Y-100030000D02*
X201570000Y-101530000D01*
X201330000Y-113175000D02*
X197450000Y-113175000D01*
X196280000Y-108705000D02*
X197330000Y-108705000D01*
X196280000Y-111205000D02*
X196280000Y-108705000D01*
X201450000Y-108705000D02*
X201450000Y-107715000D01*
X202500000Y-108705000D02*
X201450000Y-108705000D01*
X202500000Y-111205000D02*
X202500000Y-108705000D01*
X190870000Y-97450000D02*
X193320000Y-97450000D01*
X192670000Y-100670000D02*
X190870000Y-100670000D01*
X188320000Y-94582064D02*
X188320000Y-93377936D01*
X190140000Y-94582064D02*
X190140000Y-93377936D01*
X198592064Y-90530000D02*
X197387936Y-90530000D01*
X198592064Y-92350000D02*
X197387936Y-92350000D01*
D10*
X203072380Y-97869523D02*
X203072380Y-97393333D01*
X202072380Y-97393333D01*
X203072380Y-98202857D02*
X202072380Y-98202857D01*
X202072380Y-98440952D01*
X202120000Y-98583809D01*
X202215238Y-98679047D01*
X202310476Y-98726666D01*
X202500952Y-98774285D01*
X202643809Y-98774285D01*
X202834285Y-98726666D01*
X202929523Y-98679047D01*
X203024761Y-98583809D01*
X203072380Y-98440952D01*
X203072380Y-98202857D01*
X202072380Y-99393333D02*
X202072380Y-99583809D01*
X202120000Y-99679047D01*
X202215238Y-99774285D01*
X202405714Y-99821904D01*
X202739047Y-99821904D01*
X202929523Y-99774285D01*
X203024761Y-99679047D01*
X203072380Y-99583809D01*
X203072380Y-99393333D01*
X203024761Y-99298095D01*
X202929523Y-99202857D01*
X202739047Y-99155238D01*
X202405714Y-99155238D01*
X202215238Y-99202857D01*
X202120000Y-99298095D01*
X202072380Y-99393333D01*
X203072380Y-100774285D02*
X203072380Y-100202857D01*
X203072380Y-100488571D02*
X202072380Y-100488571D01*
X202215238Y-100393333D01*
X202310476Y-100298095D01*
X202358095Y-100202857D01*
X201842380Y-106962380D02*
X202175714Y-106486190D01*
X202413809Y-106962380D02*
X202413809Y-105962380D01*
X202032857Y-105962380D01*
X201937619Y-106010000D01*
X201890000Y-106057619D01*
X201842380Y-106152857D01*
X201842380Y-106295714D01*
X201890000Y-106390952D01*
X201937619Y-106438571D01*
X202032857Y-106486190D01*
X202413809Y-106486190D01*
X201461428Y-106914761D02*
X201318571Y-106962380D01*
X201080476Y-106962380D01*
X200985238Y-106914761D01*
X200937619Y-106867142D01*
X200890000Y-106771904D01*
X200890000Y-106676666D01*
X200937619Y-106581428D01*
X200985238Y-106533809D01*
X201080476Y-106486190D01*
X201270952Y-106438571D01*
X201366190Y-106390952D01*
X201413809Y-106343333D01*
X201461428Y-106248095D01*
X201461428Y-106152857D01*
X201413809Y-106057619D01*
X201366190Y-106010000D01*
X201270952Y-105962380D01*
X201032857Y-105962380D01*
X200890000Y-106010000D01*
X200032857Y-106295714D02*
X200032857Y-106962380D01*
X200270952Y-105914761D02*
X200509047Y-106629047D01*
X199890000Y-106629047D01*
X199366190Y-106390952D02*
X199461428Y-106343333D01*
X199509047Y-106295714D01*
X199556666Y-106200476D01*
X199556666Y-106152857D01*
X199509047Y-106057619D01*
X199461428Y-106010000D01*
X199366190Y-105962380D01*
X199175714Y-105962380D01*
X199080476Y-106010000D01*
X199032857Y-106057619D01*
X198985238Y-106152857D01*
X198985238Y-106200476D01*
X199032857Y-106295714D01*
X199080476Y-106343333D01*
X199175714Y-106390952D01*
X199366190Y-106390952D01*
X199461428Y-106438571D01*
X199509047Y-106486190D01*
X199556666Y-106581428D01*
X199556666Y-106771904D01*
X199509047Y-106867142D01*
X199461428Y-106914761D01*
X199366190Y-106962380D01*
X199175714Y-106962380D01*
X199080476Y-106914761D01*
X199032857Y-106867142D01*
X198985238Y-106771904D01*
X198985238Y-106581428D01*
X199032857Y-106486190D01*
X199080476Y-106438571D01*
X199175714Y-106390952D01*
X198080476Y-105962380D02*
X198556666Y-105962380D01*
X198604285Y-106438571D01*
X198556666Y-106390952D01*
X198461428Y-106343333D01*
X198223333Y-106343333D01*
X198128095Y-106390952D01*
X198080476Y-106438571D01*
X198032857Y-106533809D01*
X198032857Y-106771904D01*
X198080476Y-106867142D01*
X198128095Y-106914761D01*
X198223333Y-106962380D01*
X198461428Y-106962380D01*
X198556666Y-106914761D01*
X198604285Y-106867142D01*
X197842380Y-107057619D02*
X197080476Y-107057619D01*
X196890000Y-106057619D02*
X196842380Y-106010000D01*
X196747142Y-105962380D01*
X196509047Y-105962380D01*
X196413809Y-106010000D01*
X196366190Y-106057619D01*
X196318571Y-106152857D01*
X196318571Y-106248095D01*
X196366190Y-106390952D01*
X196937619Y-106962380D01*
X196318571Y-106962380D01*
X192960476Y-96612380D02*
X193436666Y-96612380D01*
X193436666Y-95612380D01*
X192627142Y-96612380D02*
X192627142Y-95612380D01*
X192389047Y-95612380D01*
X192246190Y-95660000D01*
X192150952Y-95755238D01*
X192103333Y-95850476D01*
X192055714Y-96040952D01*
X192055714Y-96183809D01*
X192103333Y-96374285D01*
X192150952Y-96469523D01*
X192246190Y-96564761D01*
X192389047Y-96612380D01*
X192627142Y-96612380D01*
X191436666Y-95612380D02*
X191246190Y-95612380D01*
X191150952Y-95660000D01*
X191055714Y-95755238D01*
X191008095Y-95945714D01*
X191008095Y-96279047D01*
X191055714Y-96469523D01*
X191150952Y-96564761D01*
X191246190Y-96612380D01*
X191436666Y-96612380D01*
X191531904Y-96564761D01*
X191627142Y-96469523D01*
X191674761Y-96279047D01*
X191674761Y-95945714D01*
X191627142Y-95755238D01*
X191531904Y-95660000D01*
X191436666Y-95612380D01*
X190627142Y-95707619D02*
X190579523Y-95660000D01*
X190484285Y-95612380D01*
X190246190Y-95612380D01*
X190150952Y-95660000D01*
X190103333Y-95707619D01*
X190055714Y-95802857D01*
X190055714Y-95898095D01*
X190103333Y-96040952D01*
X190674761Y-96612380D01*
X190055714Y-96612380D01*
X191407142Y-93813333D02*
X191454761Y-93765714D01*
X191502380Y-93622857D01*
X191502380Y-93527619D01*
X191454761Y-93384761D01*
X191359523Y-93289523D01*
X191264285Y-93241904D01*
X191073809Y-93194285D01*
X190930952Y-93194285D01*
X190740476Y-93241904D01*
X190645238Y-93289523D01*
X190550000Y-93384761D01*
X190502380Y-93527619D01*
X190502380Y-93622857D01*
X190550000Y-93765714D01*
X190597619Y-93813333D01*
X190597619Y-94194285D02*
X190550000Y-94241904D01*
X190502380Y-94337142D01*
X190502380Y-94575238D01*
X190550000Y-94670476D01*
X190597619Y-94718095D01*
X190692857Y-94765714D01*
X190788095Y-94765714D01*
X190930952Y-94718095D01*
X191502380Y-94146666D01*
X191502380Y-94765714D01*
X201017142Y-91273333D02*
X201064761Y-91225714D01*
X201112380Y-91082857D01*
X201112380Y-90987619D01*
X201064761Y-90844761D01*
X200969523Y-90749523D01*
X200874285Y-90701904D01*
X200683809Y-90654285D01*
X200540952Y-90654285D01*
X200350476Y-90701904D01*
X200255238Y-90749523D01*
X200160000Y-90844761D01*
X200112380Y-90987619D01*
X200112380Y-91082857D01*
X200160000Y-91225714D01*
X200207619Y-91273333D01*
X201112380Y-92225714D02*
X201112380Y-91654285D01*
X201112380Y-91940000D02*
X200112380Y-91940000D01*
X200255238Y-91844761D01*
X200350476Y-91749523D01*
X200398095Y-91654285D01*
M02*
