G04 #@! TF.GenerationSoftware,KiCad,Pcbnew,(5.1.5)-3*
G04 #@! TF.CreationDate,2020-04-20T18:44:57+02:00*
G04 #@! TF.ProjectId,RS485-Modbus-Tiny-Sensor-Module,52533438-352d-44d6-9f64-6275732d5469,rev?*
G04 #@! TF.SameCoordinates,Original*
G04 #@! TF.FileFunction,Soldermask,Bot*
G04 #@! TF.FilePolarity,Negative*
%FSLAX46Y46*%
G04 Gerber Fmt 4.6, Leading zero omitted, Abs format (unit mm)*
G04 Created by KiCad (PCBNEW (5.1.5)-3) date 2020-04-20 18:44:57*
%MOMM*%
%LPD*%
G04 APERTURE LIST*
%ADD10C,0.050000*%
%ADD11C,0.100000*%
G04 APERTURE END LIST*
D10*
X213360000Y-115570000D02*
X182880000Y-115570000D01*
X213360000Y-83820000D02*
X213360000Y-115570000D01*
X182880000Y-83820000D02*
X213360000Y-83820000D01*
X182880000Y-115570000D02*
X182880000Y-83820000D01*
D11*
G36*
X202681242Y-111418404D02*
G01*
X202718337Y-111429657D01*
X202752515Y-111447925D01*
X202782481Y-111472519D01*
X202807075Y-111502485D01*
X202825343Y-111536663D01*
X202836596Y-111573758D01*
X202841000Y-111618474D01*
X202841000Y-113111526D01*
X202836596Y-113156242D01*
X202825343Y-113193337D01*
X202807075Y-113227515D01*
X202782481Y-113257481D01*
X202752515Y-113282075D01*
X202718337Y-113300343D01*
X202681242Y-113311596D01*
X202636526Y-113316000D01*
X201743474Y-113316000D01*
X201698758Y-113311596D01*
X201661663Y-113300343D01*
X201627485Y-113282075D01*
X201597519Y-113257481D01*
X201572925Y-113227515D01*
X201554657Y-113193337D01*
X201543404Y-113156242D01*
X201539000Y-113111526D01*
X201539000Y-111618474D01*
X201543404Y-111573758D01*
X201554657Y-111536663D01*
X201572925Y-111502485D01*
X201597519Y-111472519D01*
X201627485Y-111447925D01*
X201661663Y-111429657D01*
X201698758Y-111418404D01*
X201743474Y-111414000D01*
X202636526Y-111414000D01*
X202681242Y-111418404D01*
G37*
G36*
X197081242Y-111418404D02*
G01*
X197118337Y-111429657D01*
X197152515Y-111447925D01*
X197182481Y-111472519D01*
X197207075Y-111502485D01*
X197225343Y-111536663D01*
X197236596Y-111573758D01*
X197241000Y-111618474D01*
X197241000Y-113111526D01*
X197236596Y-113156242D01*
X197225343Y-113193337D01*
X197207075Y-113227515D01*
X197182481Y-113257481D01*
X197152515Y-113282075D01*
X197118337Y-113300343D01*
X197081242Y-113311596D01*
X197036526Y-113316000D01*
X196143474Y-113316000D01*
X196098758Y-113311596D01*
X196061663Y-113300343D01*
X196027485Y-113282075D01*
X195997519Y-113257481D01*
X195972925Y-113227515D01*
X195954657Y-113193337D01*
X195943404Y-113156242D01*
X195939000Y-113111526D01*
X195939000Y-111618474D01*
X195943404Y-111573758D01*
X195954657Y-111536663D01*
X195972925Y-111502485D01*
X195997519Y-111472519D01*
X196027485Y-111447925D01*
X196061663Y-111429657D01*
X196098758Y-111418404D01*
X196143474Y-111414000D01*
X197036526Y-111414000D01*
X197081242Y-111418404D01*
G37*
G36*
X201149928Y-107666764D02*
G01*
X201171009Y-107673160D01*
X201190445Y-107683548D01*
X201207476Y-107697524D01*
X201221452Y-107714555D01*
X201231840Y-107733991D01*
X201238236Y-107755072D01*
X201241000Y-107783140D01*
X201241000Y-109196860D01*
X201238236Y-109224928D01*
X201231840Y-109246009D01*
X201221452Y-109265445D01*
X201207476Y-109282476D01*
X201190445Y-109296452D01*
X201171009Y-109306840D01*
X201149928Y-109313236D01*
X201121860Y-109316000D01*
X200658140Y-109316000D01*
X200630072Y-109313236D01*
X200608991Y-109306840D01*
X200589555Y-109296452D01*
X200572524Y-109282476D01*
X200558548Y-109265445D01*
X200548160Y-109246009D01*
X200541764Y-109224928D01*
X200539000Y-109196860D01*
X200539000Y-107783140D01*
X200541764Y-107755072D01*
X200548160Y-107733991D01*
X200558548Y-107714555D01*
X200572524Y-107697524D01*
X200589555Y-107683548D01*
X200608991Y-107673160D01*
X200630072Y-107666764D01*
X200658140Y-107664000D01*
X201121860Y-107664000D01*
X201149928Y-107666764D01*
G37*
G36*
X200149928Y-107666764D02*
G01*
X200171009Y-107673160D01*
X200190445Y-107683548D01*
X200207476Y-107697524D01*
X200221452Y-107714555D01*
X200231840Y-107733991D01*
X200238236Y-107755072D01*
X200241000Y-107783140D01*
X200241000Y-109196860D01*
X200238236Y-109224928D01*
X200231840Y-109246009D01*
X200221452Y-109265445D01*
X200207476Y-109282476D01*
X200190445Y-109296452D01*
X200171009Y-109306840D01*
X200149928Y-109313236D01*
X200121860Y-109316000D01*
X199658140Y-109316000D01*
X199630072Y-109313236D01*
X199608991Y-109306840D01*
X199589555Y-109296452D01*
X199572524Y-109282476D01*
X199558548Y-109265445D01*
X199548160Y-109246009D01*
X199541764Y-109224928D01*
X199539000Y-109196860D01*
X199539000Y-107783140D01*
X199541764Y-107755072D01*
X199548160Y-107733991D01*
X199558548Y-107714555D01*
X199572524Y-107697524D01*
X199589555Y-107683548D01*
X199608991Y-107673160D01*
X199630072Y-107666764D01*
X199658140Y-107664000D01*
X200121860Y-107664000D01*
X200149928Y-107666764D01*
G37*
G36*
X199149928Y-107666764D02*
G01*
X199171009Y-107673160D01*
X199190445Y-107683548D01*
X199207476Y-107697524D01*
X199221452Y-107714555D01*
X199231840Y-107733991D01*
X199238236Y-107755072D01*
X199241000Y-107783140D01*
X199241000Y-109196860D01*
X199238236Y-109224928D01*
X199231840Y-109246009D01*
X199221452Y-109265445D01*
X199207476Y-109282476D01*
X199190445Y-109296452D01*
X199171009Y-109306840D01*
X199149928Y-109313236D01*
X199121860Y-109316000D01*
X198658140Y-109316000D01*
X198630072Y-109313236D01*
X198608991Y-109306840D01*
X198589555Y-109296452D01*
X198572524Y-109282476D01*
X198558548Y-109265445D01*
X198548160Y-109246009D01*
X198541764Y-109224928D01*
X198539000Y-109196860D01*
X198539000Y-107783140D01*
X198541764Y-107755072D01*
X198548160Y-107733991D01*
X198558548Y-107714555D01*
X198572524Y-107697524D01*
X198589555Y-107683548D01*
X198608991Y-107673160D01*
X198630072Y-107666764D01*
X198658140Y-107664000D01*
X199121860Y-107664000D01*
X199149928Y-107666764D01*
G37*
G36*
X198149928Y-107666764D02*
G01*
X198171009Y-107673160D01*
X198190445Y-107683548D01*
X198207476Y-107697524D01*
X198221452Y-107714555D01*
X198231840Y-107733991D01*
X198238236Y-107755072D01*
X198241000Y-107783140D01*
X198241000Y-109196860D01*
X198238236Y-109224928D01*
X198231840Y-109246009D01*
X198221452Y-109265445D01*
X198207476Y-109282476D01*
X198190445Y-109296452D01*
X198171009Y-109306840D01*
X198149928Y-109313236D01*
X198121860Y-109316000D01*
X197658140Y-109316000D01*
X197630072Y-109313236D01*
X197608991Y-109306840D01*
X197589555Y-109296452D01*
X197572524Y-109282476D01*
X197558548Y-109265445D01*
X197548160Y-109246009D01*
X197541764Y-109224928D01*
X197539000Y-109196860D01*
X197539000Y-107783140D01*
X197541764Y-107755072D01*
X197548160Y-107733991D01*
X197558548Y-107714555D01*
X197572524Y-107697524D01*
X197589555Y-107683548D01*
X197608991Y-107673160D01*
X197630072Y-107666764D01*
X197658140Y-107664000D01*
X198121860Y-107664000D01*
X198149928Y-107666764D01*
G37*
G36*
X196491000Y-104411000D02*
G01*
X195189000Y-104411000D01*
X195189000Y-102109000D01*
X196491000Y-102109000D01*
X196491000Y-104411000D01*
G37*
G36*
X201051000Y-104411000D02*
G01*
X199749000Y-104411000D01*
X199749000Y-102109000D01*
X201051000Y-102109000D01*
X201051000Y-104411000D01*
G37*
G36*
X193451000Y-100386000D02*
G01*
X192289000Y-100386000D01*
X192289000Y-97734000D01*
X193451000Y-97734000D01*
X193451000Y-100386000D01*
G37*
G36*
X191251000Y-100386000D02*
G01*
X190089000Y-100386000D01*
X190089000Y-99634000D01*
X191251000Y-99634000D01*
X191251000Y-100386000D01*
G37*
G36*
X201071000Y-100211000D02*
G01*
X195169000Y-100211000D01*
X195169000Y-93709000D01*
X201071000Y-93709000D01*
X201071000Y-100211000D01*
G37*
G36*
X191251000Y-98486000D02*
G01*
X190089000Y-98486000D01*
X190089000Y-97734000D01*
X191251000Y-97734000D01*
X191251000Y-98486000D01*
G37*
G36*
X189998604Y-94708347D02*
G01*
X190035144Y-94719432D01*
X190068821Y-94737433D01*
X190098341Y-94761659D01*
X190122567Y-94791179D01*
X190140568Y-94824856D01*
X190151653Y-94861396D01*
X190156000Y-94905538D01*
X190156000Y-95854462D01*
X190151653Y-95898604D01*
X190140568Y-95935144D01*
X190122567Y-95968821D01*
X190098341Y-95998341D01*
X190068821Y-96022567D01*
X190035144Y-96040568D01*
X189998604Y-96051653D01*
X189954462Y-96056000D01*
X188505538Y-96056000D01*
X188461396Y-96051653D01*
X188424856Y-96040568D01*
X188391179Y-96022567D01*
X188361659Y-95998341D01*
X188337433Y-95968821D01*
X188319432Y-95935144D01*
X188308347Y-95898604D01*
X188304000Y-95854462D01*
X188304000Y-94905538D01*
X188308347Y-94861396D01*
X188319432Y-94824856D01*
X188337433Y-94791179D01*
X188361659Y-94761659D01*
X188391179Y-94737433D01*
X188424856Y-94719432D01*
X188461396Y-94708347D01*
X188505538Y-94704000D01*
X189954462Y-94704000D01*
X189998604Y-94708347D01*
G37*
G36*
X189998604Y-91908347D02*
G01*
X190035144Y-91919432D01*
X190068821Y-91937433D01*
X190098341Y-91961659D01*
X190122567Y-91991179D01*
X190140568Y-92024856D01*
X190151653Y-92061396D01*
X190156000Y-92105538D01*
X190156000Y-93054462D01*
X190151653Y-93098604D01*
X190140568Y-93135144D01*
X190122567Y-93168821D01*
X190098341Y-93198341D01*
X190068821Y-93222567D01*
X190035144Y-93240568D01*
X189998604Y-93251653D01*
X189954462Y-93256000D01*
X188505538Y-93256000D01*
X188461396Y-93251653D01*
X188424856Y-93240568D01*
X188391179Y-93222567D01*
X188361659Y-93198341D01*
X188337433Y-93168821D01*
X188319432Y-93135144D01*
X188308347Y-93098604D01*
X188304000Y-93054462D01*
X188304000Y-92105538D01*
X188308347Y-92061396D01*
X188319432Y-92024856D01*
X188337433Y-91991179D01*
X188361659Y-91961659D01*
X188391179Y-91937433D01*
X188424856Y-91919432D01*
X188461396Y-91908347D01*
X188505538Y-91904000D01*
X189954462Y-91904000D01*
X189998604Y-91908347D01*
G37*
G36*
X197108604Y-90518347D02*
G01*
X197145144Y-90529432D01*
X197178821Y-90547433D01*
X197208341Y-90571659D01*
X197232567Y-90601179D01*
X197250568Y-90634856D01*
X197261653Y-90671396D01*
X197266000Y-90715538D01*
X197266000Y-92164462D01*
X197261653Y-92208604D01*
X197250568Y-92245144D01*
X197232567Y-92278821D01*
X197208341Y-92308341D01*
X197178821Y-92332567D01*
X197145144Y-92350568D01*
X197108604Y-92361653D01*
X197064462Y-92366000D01*
X196115538Y-92366000D01*
X196071396Y-92361653D01*
X196034856Y-92350568D01*
X196001179Y-92332567D01*
X195971659Y-92308341D01*
X195947433Y-92278821D01*
X195929432Y-92245144D01*
X195918347Y-92208604D01*
X195914000Y-92164462D01*
X195914000Y-90715538D01*
X195918347Y-90671396D01*
X195929432Y-90634856D01*
X195947433Y-90601179D01*
X195971659Y-90571659D01*
X196001179Y-90547433D01*
X196034856Y-90529432D01*
X196071396Y-90518347D01*
X196115538Y-90514000D01*
X197064462Y-90514000D01*
X197108604Y-90518347D01*
G37*
G36*
X199908604Y-90518347D02*
G01*
X199945144Y-90529432D01*
X199978821Y-90547433D01*
X200008341Y-90571659D01*
X200032567Y-90601179D01*
X200050568Y-90634856D01*
X200061653Y-90671396D01*
X200066000Y-90715538D01*
X200066000Y-92164462D01*
X200061653Y-92208604D01*
X200050568Y-92245144D01*
X200032567Y-92278821D01*
X200008341Y-92308341D01*
X199978821Y-92332567D01*
X199945144Y-92350568D01*
X199908604Y-92361653D01*
X199864462Y-92366000D01*
X198915538Y-92366000D01*
X198871396Y-92361653D01*
X198834856Y-92350568D01*
X198801179Y-92332567D01*
X198771659Y-92308341D01*
X198747433Y-92278821D01*
X198729432Y-92245144D01*
X198718347Y-92208604D01*
X198714000Y-92164462D01*
X198714000Y-90715538D01*
X198718347Y-90671396D01*
X198729432Y-90634856D01*
X198747433Y-90601179D01*
X198771659Y-90571659D01*
X198801179Y-90547433D01*
X198834856Y-90529432D01*
X198871396Y-90518347D01*
X198915538Y-90514000D01*
X199864462Y-90514000D01*
X199908604Y-90518347D01*
G37*
G36*
X189343512Y-84955927D02*
G01*
X189492812Y-84985624D01*
X189656784Y-85053544D01*
X189804354Y-85152147D01*
X189929853Y-85277646D01*
X190028456Y-85425216D01*
X190096376Y-85589188D01*
X190131000Y-85763259D01*
X190131000Y-85940741D01*
X190096376Y-86114812D01*
X190028456Y-86278784D01*
X189929853Y-86426354D01*
X189804354Y-86551853D01*
X189656784Y-86650456D01*
X189492812Y-86718376D01*
X189343512Y-86748073D01*
X189318742Y-86753000D01*
X189141258Y-86753000D01*
X189116488Y-86748073D01*
X188967188Y-86718376D01*
X188803216Y-86650456D01*
X188655646Y-86551853D01*
X188530147Y-86426354D01*
X188431544Y-86278784D01*
X188363624Y-86114812D01*
X188329000Y-85940741D01*
X188329000Y-85763259D01*
X188363624Y-85589188D01*
X188431544Y-85425216D01*
X188530147Y-85277646D01*
X188655646Y-85152147D01*
X188803216Y-85053544D01*
X188967188Y-84985624D01*
X189116488Y-84955927D01*
X189141258Y-84951000D01*
X189318742Y-84951000D01*
X189343512Y-84955927D01*
G37*
G36*
X209663512Y-84955927D02*
G01*
X209812812Y-84985624D01*
X209976784Y-85053544D01*
X210124354Y-85152147D01*
X210249853Y-85277646D01*
X210348456Y-85425216D01*
X210416376Y-85589188D01*
X210451000Y-85763259D01*
X210451000Y-85940741D01*
X210416376Y-86114812D01*
X210348456Y-86278784D01*
X210249853Y-86426354D01*
X210124354Y-86551853D01*
X209976784Y-86650456D01*
X209812812Y-86718376D01*
X209663512Y-86748073D01*
X209638742Y-86753000D01*
X209461258Y-86753000D01*
X209436488Y-86748073D01*
X209287188Y-86718376D01*
X209123216Y-86650456D01*
X208975646Y-86551853D01*
X208850147Y-86426354D01*
X208751544Y-86278784D01*
X208683624Y-86114812D01*
X208649000Y-85940741D01*
X208649000Y-85763259D01*
X208683624Y-85589188D01*
X208751544Y-85425216D01*
X208850147Y-85277646D01*
X208975646Y-85152147D01*
X209123216Y-85053544D01*
X209287188Y-84985624D01*
X209436488Y-84955927D01*
X209461258Y-84951000D01*
X209638742Y-84951000D01*
X209663512Y-84955927D01*
G37*
G36*
X207123512Y-84955927D02*
G01*
X207272812Y-84985624D01*
X207436784Y-85053544D01*
X207584354Y-85152147D01*
X207709853Y-85277646D01*
X207808456Y-85425216D01*
X207876376Y-85589188D01*
X207911000Y-85763259D01*
X207911000Y-85940741D01*
X207876376Y-86114812D01*
X207808456Y-86278784D01*
X207709853Y-86426354D01*
X207584354Y-86551853D01*
X207436784Y-86650456D01*
X207272812Y-86718376D01*
X207123512Y-86748073D01*
X207098742Y-86753000D01*
X206921258Y-86753000D01*
X206896488Y-86748073D01*
X206747188Y-86718376D01*
X206583216Y-86650456D01*
X206435646Y-86551853D01*
X206310147Y-86426354D01*
X206211544Y-86278784D01*
X206143624Y-86114812D01*
X206109000Y-85940741D01*
X206109000Y-85763259D01*
X206143624Y-85589188D01*
X206211544Y-85425216D01*
X206310147Y-85277646D01*
X206435646Y-85152147D01*
X206583216Y-85053544D01*
X206747188Y-84985624D01*
X206896488Y-84955927D01*
X206921258Y-84951000D01*
X207098742Y-84951000D01*
X207123512Y-84955927D01*
G37*
G36*
X204583512Y-84955927D02*
G01*
X204732812Y-84985624D01*
X204896784Y-85053544D01*
X205044354Y-85152147D01*
X205169853Y-85277646D01*
X205268456Y-85425216D01*
X205336376Y-85589188D01*
X205371000Y-85763259D01*
X205371000Y-85940741D01*
X205336376Y-86114812D01*
X205268456Y-86278784D01*
X205169853Y-86426354D01*
X205044354Y-86551853D01*
X204896784Y-86650456D01*
X204732812Y-86718376D01*
X204583512Y-86748073D01*
X204558742Y-86753000D01*
X204381258Y-86753000D01*
X204356488Y-86748073D01*
X204207188Y-86718376D01*
X204043216Y-86650456D01*
X203895646Y-86551853D01*
X203770147Y-86426354D01*
X203671544Y-86278784D01*
X203603624Y-86114812D01*
X203569000Y-85940741D01*
X203569000Y-85763259D01*
X203603624Y-85589188D01*
X203671544Y-85425216D01*
X203770147Y-85277646D01*
X203895646Y-85152147D01*
X204043216Y-85053544D01*
X204207188Y-84985624D01*
X204356488Y-84955927D01*
X204381258Y-84951000D01*
X204558742Y-84951000D01*
X204583512Y-84955927D01*
G37*
G36*
X202043512Y-84955927D02*
G01*
X202192812Y-84985624D01*
X202356784Y-85053544D01*
X202504354Y-85152147D01*
X202629853Y-85277646D01*
X202728456Y-85425216D01*
X202796376Y-85589188D01*
X202831000Y-85763259D01*
X202831000Y-85940741D01*
X202796376Y-86114812D01*
X202728456Y-86278784D01*
X202629853Y-86426354D01*
X202504354Y-86551853D01*
X202356784Y-86650456D01*
X202192812Y-86718376D01*
X202043512Y-86748073D01*
X202018742Y-86753000D01*
X201841258Y-86753000D01*
X201816488Y-86748073D01*
X201667188Y-86718376D01*
X201503216Y-86650456D01*
X201355646Y-86551853D01*
X201230147Y-86426354D01*
X201131544Y-86278784D01*
X201063624Y-86114812D01*
X201029000Y-85940741D01*
X201029000Y-85763259D01*
X201063624Y-85589188D01*
X201131544Y-85425216D01*
X201230147Y-85277646D01*
X201355646Y-85152147D01*
X201503216Y-85053544D01*
X201667188Y-84985624D01*
X201816488Y-84955927D01*
X201841258Y-84951000D01*
X202018742Y-84951000D01*
X202043512Y-84955927D01*
G37*
G36*
X199503512Y-84955927D02*
G01*
X199652812Y-84985624D01*
X199816784Y-85053544D01*
X199964354Y-85152147D01*
X200089853Y-85277646D01*
X200188456Y-85425216D01*
X200256376Y-85589188D01*
X200291000Y-85763259D01*
X200291000Y-85940741D01*
X200256376Y-86114812D01*
X200188456Y-86278784D01*
X200089853Y-86426354D01*
X199964354Y-86551853D01*
X199816784Y-86650456D01*
X199652812Y-86718376D01*
X199503512Y-86748073D01*
X199478742Y-86753000D01*
X199301258Y-86753000D01*
X199276488Y-86748073D01*
X199127188Y-86718376D01*
X198963216Y-86650456D01*
X198815646Y-86551853D01*
X198690147Y-86426354D01*
X198591544Y-86278784D01*
X198523624Y-86114812D01*
X198489000Y-85940741D01*
X198489000Y-85763259D01*
X198523624Y-85589188D01*
X198591544Y-85425216D01*
X198690147Y-85277646D01*
X198815646Y-85152147D01*
X198963216Y-85053544D01*
X199127188Y-84985624D01*
X199276488Y-84955927D01*
X199301258Y-84951000D01*
X199478742Y-84951000D01*
X199503512Y-84955927D01*
G37*
G36*
X196963512Y-84955927D02*
G01*
X197112812Y-84985624D01*
X197276784Y-85053544D01*
X197424354Y-85152147D01*
X197549853Y-85277646D01*
X197648456Y-85425216D01*
X197716376Y-85589188D01*
X197751000Y-85763259D01*
X197751000Y-85940741D01*
X197716376Y-86114812D01*
X197648456Y-86278784D01*
X197549853Y-86426354D01*
X197424354Y-86551853D01*
X197276784Y-86650456D01*
X197112812Y-86718376D01*
X196963512Y-86748073D01*
X196938742Y-86753000D01*
X196761258Y-86753000D01*
X196736488Y-86748073D01*
X196587188Y-86718376D01*
X196423216Y-86650456D01*
X196275646Y-86551853D01*
X196150147Y-86426354D01*
X196051544Y-86278784D01*
X195983624Y-86114812D01*
X195949000Y-85940741D01*
X195949000Y-85763259D01*
X195983624Y-85589188D01*
X196051544Y-85425216D01*
X196150147Y-85277646D01*
X196275646Y-85152147D01*
X196423216Y-85053544D01*
X196587188Y-84985624D01*
X196736488Y-84955927D01*
X196761258Y-84951000D01*
X196938742Y-84951000D01*
X196963512Y-84955927D01*
G37*
G36*
X194423512Y-84955927D02*
G01*
X194572812Y-84985624D01*
X194736784Y-85053544D01*
X194884354Y-85152147D01*
X195009853Y-85277646D01*
X195108456Y-85425216D01*
X195176376Y-85589188D01*
X195211000Y-85763259D01*
X195211000Y-85940741D01*
X195176376Y-86114812D01*
X195108456Y-86278784D01*
X195009853Y-86426354D01*
X194884354Y-86551853D01*
X194736784Y-86650456D01*
X194572812Y-86718376D01*
X194423512Y-86748073D01*
X194398742Y-86753000D01*
X194221258Y-86753000D01*
X194196488Y-86748073D01*
X194047188Y-86718376D01*
X193883216Y-86650456D01*
X193735646Y-86551853D01*
X193610147Y-86426354D01*
X193511544Y-86278784D01*
X193443624Y-86114812D01*
X193409000Y-85940741D01*
X193409000Y-85763259D01*
X193443624Y-85589188D01*
X193511544Y-85425216D01*
X193610147Y-85277646D01*
X193735646Y-85152147D01*
X193883216Y-85053544D01*
X194047188Y-84985624D01*
X194196488Y-84955927D01*
X194221258Y-84951000D01*
X194398742Y-84951000D01*
X194423512Y-84955927D01*
G37*
G36*
X191883512Y-84955927D02*
G01*
X192032812Y-84985624D01*
X192196784Y-85053544D01*
X192344354Y-85152147D01*
X192469853Y-85277646D01*
X192568456Y-85425216D01*
X192636376Y-85589188D01*
X192671000Y-85763259D01*
X192671000Y-85940741D01*
X192636376Y-86114812D01*
X192568456Y-86278784D01*
X192469853Y-86426354D01*
X192344354Y-86551853D01*
X192196784Y-86650456D01*
X192032812Y-86718376D01*
X191883512Y-86748073D01*
X191858742Y-86753000D01*
X191681258Y-86753000D01*
X191656488Y-86748073D01*
X191507188Y-86718376D01*
X191343216Y-86650456D01*
X191195646Y-86551853D01*
X191070147Y-86426354D01*
X190971544Y-86278784D01*
X190903624Y-86114812D01*
X190869000Y-85940741D01*
X190869000Y-85763259D01*
X190903624Y-85589188D01*
X190971544Y-85425216D01*
X191070147Y-85277646D01*
X191195646Y-85152147D01*
X191343216Y-85053544D01*
X191507188Y-84985624D01*
X191656488Y-84955927D01*
X191681258Y-84951000D01*
X191858742Y-84951000D01*
X191883512Y-84955927D01*
G37*
G36*
X187591000Y-86753000D02*
G01*
X185789000Y-86753000D01*
X185789000Y-84951000D01*
X187591000Y-84951000D01*
X187591000Y-86753000D01*
G37*
M02*
