M48
; DRILL file {KiCad (5.1.5)-3} date 20/04/2020 18:45:04
; FORMAT={-:-/ absolute / inch / decimal}
; #@! TF.CreationDate,2020-04-20T18:45:04+02:00
; #@! TF.GenerationSoftware,Kicad,Pcbnew,(5.1.5)-3
FMAT,2
INCH
T1C0.0157
T2C0.0394
%
G90
G05
T1
X7.37Y-3.54
X7.3993Y-3.8524
X7.5398Y-3.6902
X7.55Y-3.6
X7.6563Y-4.2437
X7.68Y-4.18
X7.73Y-4.1515
X7.8Y-4.0
X7.8441Y-4.1559
X7.95Y-3.6
X8.1Y-3.5
X8.1331Y-4.1369
X8.1962Y-3.8462
X8.2Y-3.65
X8.25Y-3.6
X8.33Y-3.68
T2
X7.35Y-3.38
X7.45Y-3.38
X7.55Y-3.38
X7.65Y-3.38
X7.75Y-3.38
X7.85Y-3.38
X7.95Y-3.38
X8.05Y-3.38
X8.15Y-3.38
X8.25Y-3.38
T0
M30
