G04 #@! TF.GenerationSoftware,KiCad,Pcbnew,(5.1.5)-3*
G04 #@! TF.CreationDate,2020-04-20T18:44:57+02:00*
G04 #@! TF.ProjectId,RS485-Modbus-Tiny-Sensor-Module,52533438-352d-44d6-9f64-6275732d5469,rev?*
G04 #@! TF.SameCoordinates,Original*
G04 #@! TF.FileFunction,Paste,Bot*
G04 #@! TF.FilePolarity,Positive*
%FSLAX46Y46*%
G04 Gerber Fmt 4.6, Leading zero omitted, Abs format (unit mm)*
G04 Created by KiCad (PCBNEW (5.1.5)-3) date 2020-04-20 18:44:57*
%MOMM*%
%LPD*%
G04 APERTURE LIST*
%ADD10C,0.050000*%
%ADD11R,2.750000X3.050000*%
%ADD12R,1.200000X2.200000*%
%ADD13C,0.100000*%
%ADD14R,1.060000X0.650000*%
G04 APERTURE END LIST*
D10*
X213360000Y-115570000D02*
X182880000Y-115570000D01*
X213360000Y-83820000D02*
X213360000Y-115570000D01*
X182880000Y-83820000D02*
X213360000Y-83820000D01*
X182880000Y-115570000D02*
X182880000Y-83820000D01*
D11*
X196595000Y-98635000D03*
X199645000Y-95285000D03*
X199645000Y-98635000D03*
X196595000Y-95285000D03*
D12*
X195840000Y-103260000D03*
X200400000Y-103260000D03*
D13*
G36*
X196964505Y-111466204D02*
G01*
X196988773Y-111469804D01*
X197012572Y-111475765D01*
X197035671Y-111484030D01*
X197057850Y-111494520D01*
X197078893Y-111507132D01*
X197098599Y-111521747D01*
X197116777Y-111538223D01*
X197133253Y-111556401D01*
X197147868Y-111576107D01*
X197160480Y-111597150D01*
X197170970Y-111619329D01*
X197179235Y-111642428D01*
X197185196Y-111666227D01*
X197188796Y-111690495D01*
X197190000Y-111714999D01*
X197190000Y-113015001D01*
X197188796Y-113039505D01*
X197185196Y-113063773D01*
X197179235Y-113087572D01*
X197170970Y-113110671D01*
X197160480Y-113132850D01*
X197147868Y-113153893D01*
X197133253Y-113173599D01*
X197116777Y-113191777D01*
X197098599Y-113208253D01*
X197078893Y-113222868D01*
X197057850Y-113235480D01*
X197035671Y-113245970D01*
X197012572Y-113254235D01*
X196988773Y-113260196D01*
X196964505Y-113263796D01*
X196940001Y-113265000D01*
X196239999Y-113265000D01*
X196215495Y-113263796D01*
X196191227Y-113260196D01*
X196167428Y-113254235D01*
X196144329Y-113245970D01*
X196122150Y-113235480D01*
X196101107Y-113222868D01*
X196081401Y-113208253D01*
X196063223Y-113191777D01*
X196046747Y-113173599D01*
X196032132Y-113153893D01*
X196019520Y-113132850D01*
X196009030Y-113110671D01*
X196000765Y-113087572D01*
X195994804Y-113063773D01*
X195991204Y-113039505D01*
X195990000Y-113015001D01*
X195990000Y-111714999D01*
X195991204Y-111690495D01*
X195994804Y-111666227D01*
X196000765Y-111642428D01*
X196009030Y-111619329D01*
X196019520Y-111597150D01*
X196032132Y-111576107D01*
X196046747Y-111556401D01*
X196063223Y-111538223D01*
X196081401Y-111521747D01*
X196101107Y-111507132D01*
X196122150Y-111494520D01*
X196144329Y-111484030D01*
X196167428Y-111475765D01*
X196191227Y-111469804D01*
X196215495Y-111466204D01*
X196239999Y-111465000D01*
X196940001Y-111465000D01*
X196964505Y-111466204D01*
G37*
G36*
X202564505Y-111466204D02*
G01*
X202588773Y-111469804D01*
X202612572Y-111475765D01*
X202635671Y-111484030D01*
X202657850Y-111494520D01*
X202678893Y-111507132D01*
X202698599Y-111521747D01*
X202716777Y-111538223D01*
X202733253Y-111556401D01*
X202747868Y-111576107D01*
X202760480Y-111597150D01*
X202770970Y-111619329D01*
X202779235Y-111642428D01*
X202785196Y-111666227D01*
X202788796Y-111690495D01*
X202790000Y-111714999D01*
X202790000Y-113015001D01*
X202788796Y-113039505D01*
X202785196Y-113063773D01*
X202779235Y-113087572D01*
X202770970Y-113110671D01*
X202760480Y-113132850D01*
X202747868Y-113153893D01*
X202733253Y-113173599D01*
X202716777Y-113191777D01*
X202698599Y-113208253D01*
X202678893Y-113222868D01*
X202657850Y-113235480D01*
X202635671Y-113245970D01*
X202612572Y-113254235D01*
X202588773Y-113260196D01*
X202564505Y-113263796D01*
X202540001Y-113265000D01*
X201839999Y-113265000D01*
X201815495Y-113263796D01*
X201791227Y-113260196D01*
X201767428Y-113254235D01*
X201744329Y-113245970D01*
X201722150Y-113235480D01*
X201701107Y-113222868D01*
X201681401Y-113208253D01*
X201663223Y-113191777D01*
X201646747Y-113173599D01*
X201632132Y-113153893D01*
X201619520Y-113132850D01*
X201609030Y-113110671D01*
X201600765Y-113087572D01*
X201594804Y-113063773D01*
X201591204Y-113039505D01*
X201590000Y-113015001D01*
X201590000Y-111714999D01*
X201591204Y-111690495D01*
X201594804Y-111666227D01*
X201600765Y-111642428D01*
X201609030Y-111619329D01*
X201619520Y-111597150D01*
X201632132Y-111576107D01*
X201646747Y-111556401D01*
X201663223Y-111538223D01*
X201681401Y-111521747D01*
X201701107Y-111507132D01*
X201722150Y-111494520D01*
X201744329Y-111484030D01*
X201767428Y-111475765D01*
X201791227Y-111469804D01*
X201815495Y-111466204D01*
X201839999Y-111465000D01*
X202540001Y-111465000D01*
X202564505Y-111466204D01*
G37*
G36*
X198054703Y-107715722D02*
G01*
X198069264Y-107717882D01*
X198083543Y-107721459D01*
X198097403Y-107726418D01*
X198110710Y-107732712D01*
X198123336Y-107740280D01*
X198135159Y-107749048D01*
X198146066Y-107758934D01*
X198155952Y-107769841D01*
X198164720Y-107781664D01*
X198172288Y-107794290D01*
X198178582Y-107807597D01*
X198183541Y-107821457D01*
X198187118Y-107835736D01*
X198189278Y-107850297D01*
X198190000Y-107865000D01*
X198190000Y-109115000D01*
X198189278Y-109129703D01*
X198187118Y-109144264D01*
X198183541Y-109158543D01*
X198178582Y-109172403D01*
X198172288Y-109185710D01*
X198164720Y-109198336D01*
X198155952Y-109210159D01*
X198146066Y-109221066D01*
X198135159Y-109230952D01*
X198123336Y-109239720D01*
X198110710Y-109247288D01*
X198097403Y-109253582D01*
X198083543Y-109258541D01*
X198069264Y-109262118D01*
X198054703Y-109264278D01*
X198040000Y-109265000D01*
X197740000Y-109265000D01*
X197725297Y-109264278D01*
X197710736Y-109262118D01*
X197696457Y-109258541D01*
X197682597Y-109253582D01*
X197669290Y-109247288D01*
X197656664Y-109239720D01*
X197644841Y-109230952D01*
X197633934Y-109221066D01*
X197624048Y-109210159D01*
X197615280Y-109198336D01*
X197607712Y-109185710D01*
X197601418Y-109172403D01*
X197596459Y-109158543D01*
X197592882Y-109144264D01*
X197590722Y-109129703D01*
X197590000Y-109115000D01*
X197590000Y-107865000D01*
X197590722Y-107850297D01*
X197592882Y-107835736D01*
X197596459Y-107821457D01*
X197601418Y-107807597D01*
X197607712Y-107794290D01*
X197615280Y-107781664D01*
X197624048Y-107769841D01*
X197633934Y-107758934D01*
X197644841Y-107749048D01*
X197656664Y-107740280D01*
X197669290Y-107732712D01*
X197682597Y-107726418D01*
X197696457Y-107721459D01*
X197710736Y-107717882D01*
X197725297Y-107715722D01*
X197740000Y-107715000D01*
X198040000Y-107715000D01*
X198054703Y-107715722D01*
G37*
G36*
X199054703Y-107715722D02*
G01*
X199069264Y-107717882D01*
X199083543Y-107721459D01*
X199097403Y-107726418D01*
X199110710Y-107732712D01*
X199123336Y-107740280D01*
X199135159Y-107749048D01*
X199146066Y-107758934D01*
X199155952Y-107769841D01*
X199164720Y-107781664D01*
X199172288Y-107794290D01*
X199178582Y-107807597D01*
X199183541Y-107821457D01*
X199187118Y-107835736D01*
X199189278Y-107850297D01*
X199190000Y-107865000D01*
X199190000Y-109115000D01*
X199189278Y-109129703D01*
X199187118Y-109144264D01*
X199183541Y-109158543D01*
X199178582Y-109172403D01*
X199172288Y-109185710D01*
X199164720Y-109198336D01*
X199155952Y-109210159D01*
X199146066Y-109221066D01*
X199135159Y-109230952D01*
X199123336Y-109239720D01*
X199110710Y-109247288D01*
X199097403Y-109253582D01*
X199083543Y-109258541D01*
X199069264Y-109262118D01*
X199054703Y-109264278D01*
X199040000Y-109265000D01*
X198740000Y-109265000D01*
X198725297Y-109264278D01*
X198710736Y-109262118D01*
X198696457Y-109258541D01*
X198682597Y-109253582D01*
X198669290Y-109247288D01*
X198656664Y-109239720D01*
X198644841Y-109230952D01*
X198633934Y-109221066D01*
X198624048Y-109210159D01*
X198615280Y-109198336D01*
X198607712Y-109185710D01*
X198601418Y-109172403D01*
X198596459Y-109158543D01*
X198592882Y-109144264D01*
X198590722Y-109129703D01*
X198590000Y-109115000D01*
X198590000Y-107865000D01*
X198590722Y-107850297D01*
X198592882Y-107835736D01*
X198596459Y-107821457D01*
X198601418Y-107807597D01*
X198607712Y-107794290D01*
X198615280Y-107781664D01*
X198624048Y-107769841D01*
X198633934Y-107758934D01*
X198644841Y-107749048D01*
X198656664Y-107740280D01*
X198669290Y-107732712D01*
X198682597Y-107726418D01*
X198696457Y-107721459D01*
X198710736Y-107717882D01*
X198725297Y-107715722D01*
X198740000Y-107715000D01*
X199040000Y-107715000D01*
X199054703Y-107715722D01*
G37*
G36*
X200054703Y-107715722D02*
G01*
X200069264Y-107717882D01*
X200083543Y-107721459D01*
X200097403Y-107726418D01*
X200110710Y-107732712D01*
X200123336Y-107740280D01*
X200135159Y-107749048D01*
X200146066Y-107758934D01*
X200155952Y-107769841D01*
X200164720Y-107781664D01*
X200172288Y-107794290D01*
X200178582Y-107807597D01*
X200183541Y-107821457D01*
X200187118Y-107835736D01*
X200189278Y-107850297D01*
X200190000Y-107865000D01*
X200190000Y-109115000D01*
X200189278Y-109129703D01*
X200187118Y-109144264D01*
X200183541Y-109158543D01*
X200178582Y-109172403D01*
X200172288Y-109185710D01*
X200164720Y-109198336D01*
X200155952Y-109210159D01*
X200146066Y-109221066D01*
X200135159Y-109230952D01*
X200123336Y-109239720D01*
X200110710Y-109247288D01*
X200097403Y-109253582D01*
X200083543Y-109258541D01*
X200069264Y-109262118D01*
X200054703Y-109264278D01*
X200040000Y-109265000D01*
X199740000Y-109265000D01*
X199725297Y-109264278D01*
X199710736Y-109262118D01*
X199696457Y-109258541D01*
X199682597Y-109253582D01*
X199669290Y-109247288D01*
X199656664Y-109239720D01*
X199644841Y-109230952D01*
X199633934Y-109221066D01*
X199624048Y-109210159D01*
X199615280Y-109198336D01*
X199607712Y-109185710D01*
X199601418Y-109172403D01*
X199596459Y-109158543D01*
X199592882Y-109144264D01*
X199590722Y-109129703D01*
X199590000Y-109115000D01*
X199590000Y-107865000D01*
X199590722Y-107850297D01*
X199592882Y-107835736D01*
X199596459Y-107821457D01*
X199601418Y-107807597D01*
X199607712Y-107794290D01*
X199615280Y-107781664D01*
X199624048Y-107769841D01*
X199633934Y-107758934D01*
X199644841Y-107749048D01*
X199656664Y-107740280D01*
X199669290Y-107732712D01*
X199682597Y-107726418D01*
X199696457Y-107721459D01*
X199710736Y-107717882D01*
X199725297Y-107715722D01*
X199740000Y-107715000D01*
X200040000Y-107715000D01*
X200054703Y-107715722D01*
G37*
G36*
X201054703Y-107715722D02*
G01*
X201069264Y-107717882D01*
X201083543Y-107721459D01*
X201097403Y-107726418D01*
X201110710Y-107732712D01*
X201123336Y-107740280D01*
X201135159Y-107749048D01*
X201146066Y-107758934D01*
X201155952Y-107769841D01*
X201164720Y-107781664D01*
X201172288Y-107794290D01*
X201178582Y-107807597D01*
X201183541Y-107821457D01*
X201187118Y-107835736D01*
X201189278Y-107850297D01*
X201190000Y-107865000D01*
X201190000Y-109115000D01*
X201189278Y-109129703D01*
X201187118Y-109144264D01*
X201183541Y-109158543D01*
X201178582Y-109172403D01*
X201172288Y-109185710D01*
X201164720Y-109198336D01*
X201155952Y-109210159D01*
X201146066Y-109221066D01*
X201135159Y-109230952D01*
X201123336Y-109239720D01*
X201110710Y-109247288D01*
X201097403Y-109253582D01*
X201083543Y-109258541D01*
X201069264Y-109262118D01*
X201054703Y-109264278D01*
X201040000Y-109265000D01*
X200740000Y-109265000D01*
X200725297Y-109264278D01*
X200710736Y-109262118D01*
X200696457Y-109258541D01*
X200682597Y-109253582D01*
X200669290Y-109247288D01*
X200656664Y-109239720D01*
X200644841Y-109230952D01*
X200633934Y-109221066D01*
X200624048Y-109210159D01*
X200615280Y-109198336D01*
X200607712Y-109185710D01*
X200601418Y-109172403D01*
X200596459Y-109158543D01*
X200592882Y-109144264D01*
X200590722Y-109129703D01*
X200590000Y-109115000D01*
X200590000Y-107865000D01*
X200590722Y-107850297D01*
X200592882Y-107835736D01*
X200596459Y-107821457D01*
X200601418Y-107807597D01*
X200607712Y-107794290D01*
X200615280Y-107781664D01*
X200624048Y-107769841D01*
X200633934Y-107758934D01*
X200644841Y-107749048D01*
X200656664Y-107740280D01*
X200669290Y-107732712D01*
X200682597Y-107726418D01*
X200696457Y-107721459D01*
X200710736Y-107717882D01*
X200725297Y-107715722D01*
X200740000Y-107715000D01*
X201040000Y-107715000D01*
X201054703Y-107715722D01*
G37*
D14*
X190670000Y-98110000D03*
X190670000Y-100010000D03*
X192870000Y-100010000D03*
X192870000Y-99060000D03*
X192870000Y-98110000D03*
D13*
G36*
X189879504Y-91956204D02*
G01*
X189903773Y-91959804D01*
X189927571Y-91965765D01*
X189950671Y-91974030D01*
X189972849Y-91984520D01*
X189993893Y-91997133D01*
X190013598Y-92011747D01*
X190031777Y-92028223D01*
X190048253Y-92046402D01*
X190062867Y-92066107D01*
X190075480Y-92087151D01*
X190085970Y-92109329D01*
X190094235Y-92132429D01*
X190100196Y-92156227D01*
X190103796Y-92180496D01*
X190105000Y-92205000D01*
X190105000Y-92955000D01*
X190103796Y-92979504D01*
X190100196Y-93003773D01*
X190094235Y-93027571D01*
X190085970Y-93050671D01*
X190075480Y-93072849D01*
X190062867Y-93093893D01*
X190048253Y-93113598D01*
X190031777Y-93131777D01*
X190013598Y-93148253D01*
X189993893Y-93162867D01*
X189972849Y-93175480D01*
X189950671Y-93185970D01*
X189927571Y-93194235D01*
X189903773Y-93200196D01*
X189879504Y-93203796D01*
X189855000Y-93205000D01*
X188605000Y-93205000D01*
X188580496Y-93203796D01*
X188556227Y-93200196D01*
X188532429Y-93194235D01*
X188509329Y-93185970D01*
X188487151Y-93175480D01*
X188466107Y-93162867D01*
X188446402Y-93148253D01*
X188428223Y-93131777D01*
X188411747Y-93113598D01*
X188397133Y-93093893D01*
X188384520Y-93072849D01*
X188374030Y-93050671D01*
X188365765Y-93027571D01*
X188359804Y-93003773D01*
X188356204Y-92979504D01*
X188355000Y-92955000D01*
X188355000Y-92205000D01*
X188356204Y-92180496D01*
X188359804Y-92156227D01*
X188365765Y-92132429D01*
X188374030Y-92109329D01*
X188384520Y-92087151D01*
X188397133Y-92066107D01*
X188411747Y-92046402D01*
X188428223Y-92028223D01*
X188446402Y-92011747D01*
X188466107Y-91997133D01*
X188487151Y-91984520D01*
X188509329Y-91974030D01*
X188532429Y-91965765D01*
X188556227Y-91959804D01*
X188580496Y-91956204D01*
X188605000Y-91955000D01*
X189855000Y-91955000D01*
X189879504Y-91956204D01*
G37*
G36*
X189879504Y-94756204D02*
G01*
X189903773Y-94759804D01*
X189927571Y-94765765D01*
X189950671Y-94774030D01*
X189972849Y-94784520D01*
X189993893Y-94797133D01*
X190013598Y-94811747D01*
X190031777Y-94828223D01*
X190048253Y-94846402D01*
X190062867Y-94866107D01*
X190075480Y-94887151D01*
X190085970Y-94909329D01*
X190094235Y-94932429D01*
X190100196Y-94956227D01*
X190103796Y-94980496D01*
X190105000Y-95005000D01*
X190105000Y-95755000D01*
X190103796Y-95779504D01*
X190100196Y-95803773D01*
X190094235Y-95827571D01*
X190085970Y-95850671D01*
X190075480Y-95872849D01*
X190062867Y-95893893D01*
X190048253Y-95913598D01*
X190031777Y-95931777D01*
X190013598Y-95948253D01*
X189993893Y-95962867D01*
X189972849Y-95975480D01*
X189950671Y-95985970D01*
X189927571Y-95994235D01*
X189903773Y-96000196D01*
X189879504Y-96003796D01*
X189855000Y-96005000D01*
X188605000Y-96005000D01*
X188580496Y-96003796D01*
X188556227Y-96000196D01*
X188532429Y-95994235D01*
X188509329Y-95985970D01*
X188487151Y-95975480D01*
X188466107Y-95962867D01*
X188446402Y-95948253D01*
X188428223Y-95931777D01*
X188411747Y-95913598D01*
X188397133Y-95893893D01*
X188384520Y-95872849D01*
X188374030Y-95850671D01*
X188365765Y-95827571D01*
X188359804Y-95803773D01*
X188356204Y-95779504D01*
X188355000Y-95755000D01*
X188355000Y-95005000D01*
X188356204Y-94980496D01*
X188359804Y-94956227D01*
X188365765Y-94932429D01*
X188374030Y-94909329D01*
X188384520Y-94887151D01*
X188397133Y-94866107D01*
X188411747Y-94846402D01*
X188428223Y-94828223D01*
X188446402Y-94811747D01*
X188466107Y-94797133D01*
X188487151Y-94784520D01*
X188509329Y-94774030D01*
X188532429Y-94765765D01*
X188556227Y-94759804D01*
X188580496Y-94756204D01*
X188605000Y-94755000D01*
X189855000Y-94755000D01*
X189879504Y-94756204D01*
G37*
G36*
X199789504Y-90566204D02*
G01*
X199813773Y-90569804D01*
X199837571Y-90575765D01*
X199860671Y-90584030D01*
X199882849Y-90594520D01*
X199903893Y-90607133D01*
X199923598Y-90621747D01*
X199941777Y-90638223D01*
X199958253Y-90656402D01*
X199972867Y-90676107D01*
X199985480Y-90697151D01*
X199995970Y-90719329D01*
X200004235Y-90742429D01*
X200010196Y-90766227D01*
X200013796Y-90790496D01*
X200015000Y-90815000D01*
X200015000Y-92065000D01*
X200013796Y-92089504D01*
X200010196Y-92113773D01*
X200004235Y-92137571D01*
X199995970Y-92160671D01*
X199985480Y-92182849D01*
X199972867Y-92203893D01*
X199958253Y-92223598D01*
X199941777Y-92241777D01*
X199923598Y-92258253D01*
X199903893Y-92272867D01*
X199882849Y-92285480D01*
X199860671Y-92295970D01*
X199837571Y-92304235D01*
X199813773Y-92310196D01*
X199789504Y-92313796D01*
X199765000Y-92315000D01*
X199015000Y-92315000D01*
X198990496Y-92313796D01*
X198966227Y-92310196D01*
X198942429Y-92304235D01*
X198919329Y-92295970D01*
X198897151Y-92285480D01*
X198876107Y-92272867D01*
X198856402Y-92258253D01*
X198838223Y-92241777D01*
X198821747Y-92223598D01*
X198807133Y-92203893D01*
X198794520Y-92182849D01*
X198784030Y-92160671D01*
X198775765Y-92137571D01*
X198769804Y-92113773D01*
X198766204Y-92089504D01*
X198765000Y-92065000D01*
X198765000Y-90815000D01*
X198766204Y-90790496D01*
X198769804Y-90766227D01*
X198775765Y-90742429D01*
X198784030Y-90719329D01*
X198794520Y-90697151D01*
X198807133Y-90676107D01*
X198821747Y-90656402D01*
X198838223Y-90638223D01*
X198856402Y-90621747D01*
X198876107Y-90607133D01*
X198897151Y-90594520D01*
X198919329Y-90584030D01*
X198942429Y-90575765D01*
X198966227Y-90569804D01*
X198990496Y-90566204D01*
X199015000Y-90565000D01*
X199765000Y-90565000D01*
X199789504Y-90566204D01*
G37*
G36*
X196989504Y-90566204D02*
G01*
X197013773Y-90569804D01*
X197037571Y-90575765D01*
X197060671Y-90584030D01*
X197082849Y-90594520D01*
X197103893Y-90607133D01*
X197123598Y-90621747D01*
X197141777Y-90638223D01*
X197158253Y-90656402D01*
X197172867Y-90676107D01*
X197185480Y-90697151D01*
X197195970Y-90719329D01*
X197204235Y-90742429D01*
X197210196Y-90766227D01*
X197213796Y-90790496D01*
X197215000Y-90815000D01*
X197215000Y-92065000D01*
X197213796Y-92089504D01*
X197210196Y-92113773D01*
X197204235Y-92137571D01*
X197195970Y-92160671D01*
X197185480Y-92182849D01*
X197172867Y-92203893D01*
X197158253Y-92223598D01*
X197141777Y-92241777D01*
X197123598Y-92258253D01*
X197103893Y-92272867D01*
X197082849Y-92285480D01*
X197060671Y-92295970D01*
X197037571Y-92304235D01*
X197013773Y-92310196D01*
X196989504Y-92313796D01*
X196965000Y-92315000D01*
X196215000Y-92315000D01*
X196190496Y-92313796D01*
X196166227Y-92310196D01*
X196142429Y-92304235D01*
X196119329Y-92295970D01*
X196097151Y-92285480D01*
X196076107Y-92272867D01*
X196056402Y-92258253D01*
X196038223Y-92241777D01*
X196021747Y-92223598D01*
X196007133Y-92203893D01*
X195994520Y-92182849D01*
X195984030Y-92160671D01*
X195975765Y-92137571D01*
X195969804Y-92113773D01*
X195966204Y-92089504D01*
X195965000Y-92065000D01*
X195965000Y-90815000D01*
X195966204Y-90790496D01*
X195969804Y-90766227D01*
X195975765Y-90742429D01*
X195984030Y-90719329D01*
X195994520Y-90697151D01*
X196007133Y-90676107D01*
X196021747Y-90656402D01*
X196038223Y-90638223D01*
X196056402Y-90621747D01*
X196076107Y-90607133D01*
X196097151Y-90594520D01*
X196119329Y-90584030D01*
X196142429Y-90575765D01*
X196166227Y-90569804D01*
X196190496Y-90566204D01*
X196215000Y-90565000D01*
X196965000Y-90565000D01*
X196989504Y-90566204D01*
G37*
M02*
