G04 #@! TF.GenerationSoftware,KiCad,Pcbnew,(5.1.5)-3*
G04 #@! TF.CreationDate,2020-04-20T18:44:57+02:00*
G04 #@! TF.ProjectId,RS485-Modbus-Tiny-Sensor-Module,52533438-352d-44d6-9f64-6275732d5469,rev?*
G04 #@! TF.SameCoordinates,Original*
G04 #@! TF.FileFunction,Copper,L2,Bot*
G04 #@! TF.FilePolarity,Positive*
%FSLAX46Y46*%
G04 Gerber Fmt 4.6, Leading zero omitted, Abs format (unit mm)*
G04 Created by KiCad (PCBNEW (5.1.5)-3) date 2020-04-20 18:44:57*
%MOMM*%
%LPD*%
G04 APERTURE LIST*
%ADD10C,0.050000*%
%ADD11R,5.800000X6.400000*%
%ADD12R,1.200000X2.200000*%
%ADD13C,0.100000*%
%ADD14O,1.700000X1.700000*%
%ADD15R,1.700000X1.700000*%
%ADD16R,1.060000X0.650000*%
%ADD17C,0.800000*%
%ADD18C,0.500000*%
%ADD19C,0.250000*%
%ADD20C,0.254000*%
G04 APERTURE END LIST*
D10*
X213360000Y-115570000D02*
X182880000Y-115570000D01*
X213360000Y-83820000D02*
X213360000Y-115570000D01*
X182880000Y-83820000D02*
X213360000Y-83820000D01*
X182880000Y-115570000D02*
X182880000Y-83820000D01*
D11*
X198120000Y-96960000D03*
D12*
X195840000Y-103260000D03*
X200400000Y-103260000D03*
G04 #@! TA.AperFunction,SMDPad,CuDef*
D13*
G36*
X196964505Y-111466204D02*
G01*
X196988773Y-111469804D01*
X197012572Y-111475765D01*
X197035671Y-111484030D01*
X197057850Y-111494520D01*
X197078893Y-111507132D01*
X197098599Y-111521747D01*
X197116777Y-111538223D01*
X197133253Y-111556401D01*
X197147868Y-111576107D01*
X197160480Y-111597150D01*
X197170970Y-111619329D01*
X197179235Y-111642428D01*
X197185196Y-111666227D01*
X197188796Y-111690495D01*
X197190000Y-111714999D01*
X197190000Y-113015001D01*
X197188796Y-113039505D01*
X197185196Y-113063773D01*
X197179235Y-113087572D01*
X197170970Y-113110671D01*
X197160480Y-113132850D01*
X197147868Y-113153893D01*
X197133253Y-113173599D01*
X197116777Y-113191777D01*
X197098599Y-113208253D01*
X197078893Y-113222868D01*
X197057850Y-113235480D01*
X197035671Y-113245970D01*
X197012572Y-113254235D01*
X196988773Y-113260196D01*
X196964505Y-113263796D01*
X196940001Y-113265000D01*
X196239999Y-113265000D01*
X196215495Y-113263796D01*
X196191227Y-113260196D01*
X196167428Y-113254235D01*
X196144329Y-113245970D01*
X196122150Y-113235480D01*
X196101107Y-113222868D01*
X196081401Y-113208253D01*
X196063223Y-113191777D01*
X196046747Y-113173599D01*
X196032132Y-113153893D01*
X196019520Y-113132850D01*
X196009030Y-113110671D01*
X196000765Y-113087572D01*
X195994804Y-113063773D01*
X195991204Y-113039505D01*
X195990000Y-113015001D01*
X195990000Y-111714999D01*
X195991204Y-111690495D01*
X195994804Y-111666227D01*
X196000765Y-111642428D01*
X196009030Y-111619329D01*
X196019520Y-111597150D01*
X196032132Y-111576107D01*
X196046747Y-111556401D01*
X196063223Y-111538223D01*
X196081401Y-111521747D01*
X196101107Y-111507132D01*
X196122150Y-111494520D01*
X196144329Y-111484030D01*
X196167428Y-111475765D01*
X196191227Y-111469804D01*
X196215495Y-111466204D01*
X196239999Y-111465000D01*
X196940001Y-111465000D01*
X196964505Y-111466204D01*
G37*
G04 #@! TD.AperFunction*
G04 #@! TA.AperFunction,SMDPad,CuDef*
G36*
X202564505Y-111466204D02*
G01*
X202588773Y-111469804D01*
X202612572Y-111475765D01*
X202635671Y-111484030D01*
X202657850Y-111494520D01*
X202678893Y-111507132D01*
X202698599Y-111521747D01*
X202716777Y-111538223D01*
X202733253Y-111556401D01*
X202747868Y-111576107D01*
X202760480Y-111597150D01*
X202770970Y-111619329D01*
X202779235Y-111642428D01*
X202785196Y-111666227D01*
X202788796Y-111690495D01*
X202790000Y-111714999D01*
X202790000Y-113015001D01*
X202788796Y-113039505D01*
X202785196Y-113063773D01*
X202779235Y-113087572D01*
X202770970Y-113110671D01*
X202760480Y-113132850D01*
X202747868Y-113153893D01*
X202733253Y-113173599D01*
X202716777Y-113191777D01*
X202698599Y-113208253D01*
X202678893Y-113222868D01*
X202657850Y-113235480D01*
X202635671Y-113245970D01*
X202612572Y-113254235D01*
X202588773Y-113260196D01*
X202564505Y-113263796D01*
X202540001Y-113265000D01*
X201839999Y-113265000D01*
X201815495Y-113263796D01*
X201791227Y-113260196D01*
X201767428Y-113254235D01*
X201744329Y-113245970D01*
X201722150Y-113235480D01*
X201701107Y-113222868D01*
X201681401Y-113208253D01*
X201663223Y-113191777D01*
X201646747Y-113173599D01*
X201632132Y-113153893D01*
X201619520Y-113132850D01*
X201609030Y-113110671D01*
X201600765Y-113087572D01*
X201594804Y-113063773D01*
X201591204Y-113039505D01*
X201590000Y-113015001D01*
X201590000Y-111714999D01*
X201591204Y-111690495D01*
X201594804Y-111666227D01*
X201600765Y-111642428D01*
X201609030Y-111619329D01*
X201619520Y-111597150D01*
X201632132Y-111576107D01*
X201646747Y-111556401D01*
X201663223Y-111538223D01*
X201681401Y-111521747D01*
X201701107Y-111507132D01*
X201722150Y-111494520D01*
X201744329Y-111484030D01*
X201767428Y-111475765D01*
X201791227Y-111469804D01*
X201815495Y-111466204D01*
X201839999Y-111465000D01*
X202540001Y-111465000D01*
X202564505Y-111466204D01*
G37*
G04 #@! TD.AperFunction*
G04 #@! TA.AperFunction,SMDPad,CuDef*
G36*
X198054703Y-107715722D02*
G01*
X198069264Y-107717882D01*
X198083543Y-107721459D01*
X198097403Y-107726418D01*
X198110710Y-107732712D01*
X198123336Y-107740280D01*
X198135159Y-107749048D01*
X198146066Y-107758934D01*
X198155952Y-107769841D01*
X198164720Y-107781664D01*
X198172288Y-107794290D01*
X198178582Y-107807597D01*
X198183541Y-107821457D01*
X198187118Y-107835736D01*
X198189278Y-107850297D01*
X198190000Y-107865000D01*
X198190000Y-109115000D01*
X198189278Y-109129703D01*
X198187118Y-109144264D01*
X198183541Y-109158543D01*
X198178582Y-109172403D01*
X198172288Y-109185710D01*
X198164720Y-109198336D01*
X198155952Y-109210159D01*
X198146066Y-109221066D01*
X198135159Y-109230952D01*
X198123336Y-109239720D01*
X198110710Y-109247288D01*
X198097403Y-109253582D01*
X198083543Y-109258541D01*
X198069264Y-109262118D01*
X198054703Y-109264278D01*
X198040000Y-109265000D01*
X197740000Y-109265000D01*
X197725297Y-109264278D01*
X197710736Y-109262118D01*
X197696457Y-109258541D01*
X197682597Y-109253582D01*
X197669290Y-109247288D01*
X197656664Y-109239720D01*
X197644841Y-109230952D01*
X197633934Y-109221066D01*
X197624048Y-109210159D01*
X197615280Y-109198336D01*
X197607712Y-109185710D01*
X197601418Y-109172403D01*
X197596459Y-109158543D01*
X197592882Y-109144264D01*
X197590722Y-109129703D01*
X197590000Y-109115000D01*
X197590000Y-107865000D01*
X197590722Y-107850297D01*
X197592882Y-107835736D01*
X197596459Y-107821457D01*
X197601418Y-107807597D01*
X197607712Y-107794290D01*
X197615280Y-107781664D01*
X197624048Y-107769841D01*
X197633934Y-107758934D01*
X197644841Y-107749048D01*
X197656664Y-107740280D01*
X197669290Y-107732712D01*
X197682597Y-107726418D01*
X197696457Y-107721459D01*
X197710736Y-107717882D01*
X197725297Y-107715722D01*
X197740000Y-107715000D01*
X198040000Y-107715000D01*
X198054703Y-107715722D01*
G37*
G04 #@! TD.AperFunction*
G04 #@! TA.AperFunction,SMDPad,CuDef*
G36*
X199054703Y-107715722D02*
G01*
X199069264Y-107717882D01*
X199083543Y-107721459D01*
X199097403Y-107726418D01*
X199110710Y-107732712D01*
X199123336Y-107740280D01*
X199135159Y-107749048D01*
X199146066Y-107758934D01*
X199155952Y-107769841D01*
X199164720Y-107781664D01*
X199172288Y-107794290D01*
X199178582Y-107807597D01*
X199183541Y-107821457D01*
X199187118Y-107835736D01*
X199189278Y-107850297D01*
X199190000Y-107865000D01*
X199190000Y-109115000D01*
X199189278Y-109129703D01*
X199187118Y-109144264D01*
X199183541Y-109158543D01*
X199178582Y-109172403D01*
X199172288Y-109185710D01*
X199164720Y-109198336D01*
X199155952Y-109210159D01*
X199146066Y-109221066D01*
X199135159Y-109230952D01*
X199123336Y-109239720D01*
X199110710Y-109247288D01*
X199097403Y-109253582D01*
X199083543Y-109258541D01*
X199069264Y-109262118D01*
X199054703Y-109264278D01*
X199040000Y-109265000D01*
X198740000Y-109265000D01*
X198725297Y-109264278D01*
X198710736Y-109262118D01*
X198696457Y-109258541D01*
X198682597Y-109253582D01*
X198669290Y-109247288D01*
X198656664Y-109239720D01*
X198644841Y-109230952D01*
X198633934Y-109221066D01*
X198624048Y-109210159D01*
X198615280Y-109198336D01*
X198607712Y-109185710D01*
X198601418Y-109172403D01*
X198596459Y-109158543D01*
X198592882Y-109144264D01*
X198590722Y-109129703D01*
X198590000Y-109115000D01*
X198590000Y-107865000D01*
X198590722Y-107850297D01*
X198592882Y-107835736D01*
X198596459Y-107821457D01*
X198601418Y-107807597D01*
X198607712Y-107794290D01*
X198615280Y-107781664D01*
X198624048Y-107769841D01*
X198633934Y-107758934D01*
X198644841Y-107749048D01*
X198656664Y-107740280D01*
X198669290Y-107732712D01*
X198682597Y-107726418D01*
X198696457Y-107721459D01*
X198710736Y-107717882D01*
X198725297Y-107715722D01*
X198740000Y-107715000D01*
X199040000Y-107715000D01*
X199054703Y-107715722D01*
G37*
G04 #@! TD.AperFunction*
G04 #@! TA.AperFunction,SMDPad,CuDef*
G36*
X200054703Y-107715722D02*
G01*
X200069264Y-107717882D01*
X200083543Y-107721459D01*
X200097403Y-107726418D01*
X200110710Y-107732712D01*
X200123336Y-107740280D01*
X200135159Y-107749048D01*
X200146066Y-107758934D01*
X200155952Y-107769841D01*
X200164720Y-107781664D01*
X200172288Y-107794290D01*
X200178582Y-107807597D01*
X200183541Y-107821457D01*
X200187118Y-107835736D01*
X200189278Y-107850297D01*
X200190000Y-107865000D01*
X200190000Y-109115000D01*
X200189278Y-109129703D01*
X200187118Y-109144264D01*
X200183541Y-109158543D01*
X200178582Y-109172403D01*
X200172288Y-109185710D01*
X200164720Y-109198336D01*
X200155952Y-109210159D01*
X200146066Y-109221066D01*
X200135159Y-109230952D01*
X200123336Y-109239720D01*
X200110710Y-109247288D01*
X200097403Y-109253582D01*
X200083543Y-109258541D01*
X200069264Y-109262118D01*
X200054703Y-109264278D01*
X200040000Y-109265000D01*
X199740000Y-109265000D01*
X199725297Y-109264278D01*
X199710736Y-109262118D01*
X199696457Y-109258541D01*
X199682597Y-109253582D01*
X199669290Y-109247288D01*
X199656664Y-109239720D01*
X199644841Y-109230952D01*
X199633934Y-109221066D01*
X199624048Y-109210159D01*
X199615280Y-109198336D01*
X199607712Y-109185710D01*
X199601418Y-109172403D01*
X199596459Y-109158543D01*
X199592882Y-109144264D01*
X199590722Y-109129703D01*
X199590000Y-109115000D01*
X199590000Y-107865000D01*
X199590722Y-107850297D01*
X199592882Y-107835736D01*
X199596459Y-107821457D01*
X199601418Y-107807597D01*
X199607712Y-107794290D01*
X199615280Y-107781664D01*
X199624048Y-107769841D01*
X199633934Y-107758934D01*
X199644841Y-107749048D01*
X199656664Y-107740280D01*
X199669290Y-107732712D01*
X199682597Y-107726418D01*
X199696457Y-107721459D01*
X199710736Y-107717882D01*
X199725297Y-107715722D01*
X199740000Y-107715000D01*
X200040000Y-107715000D01*
X200054703Y-107715722D01*
G37*
G04 #@! TD.AperFunction*
G04 #@! TA.AperFunction,SMDPad,CuDef*
G36*
X201054703Y-107715722D02*
G01*
X201069264Y-107717882D01*
X201083543Y-107721459D01*
X201097403Y-107726418D01*
X201110710Y-107732712D01*
X201123336Y-107740280D01*
X201135159Y-107749048D01*
X201146066Y-107758934D01*
X201155952Y-107769841D01*
X201164720Y-107781664D01*
X201172288Y-107794290D01*
X201178582Y-107807597D01*
X201183541Y-107821457D01*
X201187118Y-107835736D01*
X201189278Y-107850297D01*
X201190000Y-107865000D01*
X201190000Y-109115000D01*
X201189278Y-109129703D01*
X201187118Y-109144264D01*
X201183541Y-109158543D01*
X201178582Y-109172403D01*
X201172288Y-109185710D01*
X201164720Y-109198336D01*
X201155952Y-109210159D01*
X201146066Y-109221066D01*
X201135159Y-109230952D01*
X201123336Y-109239720D01*
X201110710Y-109247288D01*
X201097403Y-109253582D01*
X201083543Y-109258541D01*
X201069264Y-109262118D01*
X201054703Y-109264278D01*
X201040000Y-109265000D01*
X200740000Y-109265000D01*
X200725297Y-109264278D01*
X200710736Y-109262118D01*
X200696457Y-109258541D01*
X200682597Y-109253582D01*
X200669290Y-109247288D01*
X200656664Y-109239720D01*
X200644841Y-109230952D01*
X200633934Y-109221066D01*
X200624048Y-109210159D01*
X200615280Y-109198336D01*
X200607712Y-109185710D01*
X200601418Y-109172403D01*
X200596459Y-109158543D01*
X200592882Y-109144264D01*
X200590722Y-109129703D01*
X200590000Y-109115000D01*
X200590000Y-107865000D01*
X200590722Y-107850297D01*
X200592882Y-107835736D01*
X200596459Y-107821457D01*
X200601418Y-107807597D01*
X200607712Y-107794290D01*
X200615280Y-107781664D01*
X200624048Y-107769841D01*
X200633934Y-107758934D01*
X200644841Y-107749048D01*
X200656664Y-107740280D01*
X200669290Y-107732712D01*
X200682597Y-107726418D01*
X200696457Y-107721459D01*
X200710736Y-107717882D01*
X200725297Y-107715722D01*
X200740000Y-107715000D01*
X201040000Y-107715000D01*
X201054703Y-107715722D01*
G37*
G04 #@! TD.AperFunction*
D14*
X209550000Y-85852000D03*
X207010000Y-85852000D03*
X204470000Y-85852000D03*
X201930000Y-85852000D03*
X199390000Y-85852000D03*
X196850000Y-85852000D03*
X194310000Y-85852000D03*
X191770000Y-85852000D03*
X189230000Y-85852000D03*
D15*
X186690000Y-85852000D03*
D16*
X190670000Y-98110000D03*
X190670000Y-100010000D03*
X192870000Y-100010000D03*
X192870000Y-99060000D03*
X192870000Y-98110000D03*
G04 #@! TA.AperFunction,SMDPad,CuDef*
D13*
G36*
X189879504Y-91956204D02*
G01*
X189903773Y-91959804D01*
X189927571Y-91965765D01*
X189950671Y-91974030D01*
X189972849Y-91984520D01*
X189993893Y-91997133D01*
X190013598Y-92011747D01*
X190031777Y-92028223D01*
X190048253Y-92046402D01*
X190062867Y-92066107D01*
X190075480Y-92087151D01*
X190085970Y-92109329D01*
X190094235Y-92132429D01*
X190100196Y-92156227D01*
X190103796Y-92180496D01*
X190105000Y-92205000D01*
X190105000Y-92955000D01*
X190103796Y-92979504D01*
X190100196Y-93003773D01*
X190094235Y-93027571D01*
X190085970Y-93050671D01*
X190075480Y-93072849D01*
X190062867Y-93093893D01*
X190048253Y-93113598D01*
X190031777Y-93131777D01*
X190013598Y-93148253D01*
X189993893Y-93162867D01*
X189972849Y-93175480D01*
X189950671Y-93185970D01*
X189927571Y-93194235D01*
X189903773Y-93200196D01*
X189879504Y-93203796D01*
X189855000Y-93205000D01*
X188605000Y-93205000D01*
X188580496Y-93203796D01*
X188556227Y-93200196D01*
X188532429Y-93194235D01*
X188509329Y-93185970D01*
X188487151Y-93175480D01*
X188466107Y-93162867D01*
X188446402Y-93148253D01*
X188428223Y-93131777D01*
X188411747Y-93113598D01*
X188397133Y-93093893D01*
X188384520Y-93072849D01*
X188374030Y-93050671D01*
X188365765Y-93027571D01*
X188359804Y-93003773D01*
X188356204Y-92979504D01*
X188355000Y-92955000D01*
X188355000Y-92205000D01*
X188356204Y-92180496D01*
X188359804Y-92156227D01*
X188365765Y-92132429D01*
X188374030Y-92109329D01*
X188384520Y-92087151D01*
X188397133Y-92066107D01*
X188411747Y-92046402D01*
X188428223Y-92028223D01*
X188446402Y-92011747D01*
X188466107Y-91997133D01*
X188487151Y-91984520D01*
X188509329Y-91974030D01*
X188532429Y-91965765D01*
X188556227Y-91959804D01*
X188580496Y-91956204D01*
X188605000Y-91955000D01*
X189855000Y-91955000D01*
X189879504Y-91956204D01*
G37*
G04 #@! TD.AperFunction*
G04 #@! TA.AperFunction,SMDPad,CuDef*
G36*
X189879504Y-94756204D02*
G01*
X189903773Y-94759804D01*
X189927571Y-94765765D01*
X189950671Y-94774030D01*
X189972849Y-94784520D01*
X189993893Y-94797133D01*
X190013598Y-94811747D01*
X190031777Y-94828223D01*
X190048253Y-94846402D01*
X190062867Y-94866107D01*
X190075480Y-94887151D01*
X190085970Y-94909329D01*
X190094235Y-94932429D01*
X190100196Y-94956227D01*
X190103796Y-94980496D01*
X190105000Y-95005000D01*
X190105000Y-95755000D01*
X190103796Y-95779504D01*
X190100196Y-95803773D01*
X190094235Y-95827571D01*
X190085970Y-95850671D01*
X190075480Y-95872849D01*
X190062867Y-95893893D01*
X190048253Y-95913598D01*
X190031777Y-95931777D01*
X190013598Y-95948253D01*
X189993893Y-95962867D01*
X189972849Y-95975480D01*
X189950671Y-95985970D01*
X189927571Y-95994235D01*
X189903773Y-96000196D01*
X189879504Y-96003796D01*
X189855000Y-96005000D01*
X188605000Y-96005000D01*
X188580496Y-96003796D01*
X188556227Y-96000196D01*
X188532429Y-95994235D01*
X188509329Y-95985970D01*
X188487151Y-95975480D01*
X188466107Y-95962867D01*
X188446402Y-95948253D01*
X188428223Y-95931777D01*
X188411747Y-95913598D01*
X188397133Y-95893893D01*
X188384520Y-95872849D01*
X188374030Y-95850671D01*
X188365765Y-95827571D01*
X188359804Y-95803773D01*
X188356204Y-95779504D01*
X188355000Y-95755000D01*
X188355000Y-95005000D01*
X188356204Y-94980496D01*
X188359804Y-94956227D01*
X188365765Y-94932429D01*
X188374030Y-94909329D01*
X188384520Y-94887151D01*
X188397133Y-94866107D01*
X188411747Y-94846402D01*
X188428223Y-94828223D01*
X188446402Y-94811747D01*
X188466107Y-94797133D01*
X188487151Y-94784520D01*
X188509329Y-94774030D01*
X188532429Y-94765765D01*
X188556227Y-94759804D01*
X188580496Y-94756204D01*
X188605000Y-94755000D01*
X189855000Y-94755000D01*
X189879504Y-94756204D01*
G37*
G04 #@! TD.AperFunction*
G04 #@! TA.AperFunction,SMDPad,CuDef*
G36*
X199789504Y-90566204D02*
G01*
X199813773Y-90569804D01*
X199837571Y-90575765D01*
X199860671Y-90584030D01*
X199882849Y-90594520D01*
X199903893Y-90607133D01*
X199923598Y-90621747D01*
X199941777Y-90638223D01*
X199958253Y-90656402D01*
X199972867Y-90676107D01*
X199985480Y-90697151D01*
X199995970Y-90719329D01*
X200004235Y-90742429D01*
X200010196Y-90766227D01*
X200013796Y-90790496D01*
X200015000Y-90815000D01*
X200015000Y-92065000D01*
X200013796Y-92089504D01*
X200010196Y-92113773D01*
X200004235Y-92137571D01*
X199995970Y-92160671D01*
X199985480Y-92182849D01*
X199972867Y-92203893D01*
X199958253Y-92223598D01*
X199941777Y-92241777D01*
X199923598Y-92258253D01*
X199903893Y-92272867D01*
X199882849Y-92285480D01*
X199860671Y-92295970D01*
X199837571Y-92304235D01*
X199813773Y-92310196D01*
X199789504Y-92313796D01*
X199765000Y-92315000D01*
X199015000Y-92315000D01*
X198990496Y-92313796D01*
X198966227Y-92310196D01*
X198942429Y-92304235D01*
X198919329Y-92295970D01*
X198897151Y-92285480D01*
X198876107Y-92272867D01*
X198856402Y-92258253D01*
X198838223Y-92241777D01*
X198821747Y-92223598D01*
X198807133Y-92203893D01*
X198794520Y-92182849D01*
X198784030Y-92160671D01*
X198775765Y-92137571D01*
X198769804Y-92113773D01*
X198766204Y-92089504D01*
X198765000Y-92065000D01*
X198765000Y-90815000D01*
X198766204Y-90790496D01*
X198769804Y-90766227D01*
X198775765Y-90742429D01*
X198784030Y-90719329D01*
X198794520Y-90697151D01*
X198807133Y-90676107D01*
X198821747Y-90656402D01*
X198838223Y-90638223D01*
X198856402Y-90621747D01*
X198876107Y-90607133D01*
X198897151Y-90594520D01*
X198919329Y-90584030D01*
X198942429Y-90575765D01*
X198966227Y-90569804D01*
X198990496Y-90566204D01*
X199015000Y-90565000D01*
X199765000Y-90565000D01*
X199789504Y-90566204D01*
G37*
G04 #@! TD.AperFunction*
G04 #@! TA.AperFunction,SMDPad,CuDef*
G36*
X196989504Y-90566204D02*
G01*
X197013773Y-90569804D01*
X197037571Y-90575765D01*
X197060671Y-90584030D01*
X197082849Y-90594520D01*
X197103893Y-90607133D01*
X197123598Y-90621747D01*
X197141777Y-90638223D01*
X197158253Y-90656402D01*
X197172867Y-90676107D01*
X197185480Y-90697151D01*
X197195970Y-90719329D01*
X197204235Y-90742429D01*
X197210196Y-90766227D01*
X197213796Y-90790496D01*
X197215000Y-90815000D01*
X197215000Y-92065000D01*
X197213796Y-92089504D01*
X197210196Y-92113773D01*
X197204235Y-92137571D01*
X197195970Y-92160671D01*
X197185480Y-92182849D01*
X197172867Y-92203893D01*
X197158253Y-92223598D01*
X197141777Y-92241777D01*
X197123598Y-92258253D01*
X197103893Y-92272867D01*
X197082849Y-92285480D01*
X197060671Y-92295970D01*
X197037571Y-92304235D01*
X197013773Y-92310196D01*
X196989504Y-92313796D01*
X196965000Y-92315000D01*
X196215000Y-92315000D01*
X196190496Y-92313796D01*
X196166227Y-92310196D01*
X196142429Y-92304235D01*
X196119329Y-92295970D01*
X196097151Y-92285480D01*
X196076107Y-92272867D01*
X196056402Y-92258253D01*
X196038223Y-92241777D01*
X196021747Y-92223598D01*
X196007133Y-92203893D01*
X195994520Y-92182849D01*
X195984030Y-92160671D01*
X195975765Y-92137571D01*
X195969804Y-92113773D01*
X195966204Y-92089504D01*
X195965000Y-92065000D01*
X195965000Y-90815000D01*
X195966204Y-90790496D01*
X195969804Y-90766227D01*
X195975765Y-90742429D01*
X195984030Y-90719329D01*
X195994520Y-90697151D01*
X196007133Y-90676107D01*
X196021747Y-90656402D01*
X196038223Y-90638223D01*
X196056402Y-90621747D01*
X196076107Y-90607133D01*
X196097151Y-90594520D01*
X196119329Y-90584030D01*
X196142429Y-90575765D01*
X196166227Y-90569804D01*
X196190496Y-90566204D01*
X196215000Y-90565000D01*
X196965000Y-90565000D01*
X196989504Y-90566204D01*
G37*
G04 #@! TD.AperFunction*
D17*
X191770000Y-91440000D03*
X211582000Y-93472000D03*
X205740000Y-88900000D03*
X187942206Y-97850941D03*
X194470000Y-107790000D03*
X206580000Y-105078000D03*
X201930000Y-91440000D03*
X209550000Y-91440000D03*
X191511990Y-93730010D03*
X208183558Y-97693558D03*
X187198000Y-89916000D03*
X208280000Y-92710000D03*
X199240000Y-105560000D03*
X198120000Y-101600000D03*
X196342000Y-105447000D03*
X195072000Y-106172000D03*
D18*
X191840000Y-99060000D02*
X191770000Y-98990000D01*
X192870000Y-99060000D02*
X191840000Y-99060000D01*
X191770000Y-98990000D02*
X191770000Y-97544998D01*
X191770000Y-97544998D02*
X191770000Y-96520000D01*
X191889999Y-98795001D02*
X192154998Y-99060000D01*
X191889999Y-95864999D02*
X191889999Y-98795001D01*
X189230000Y-93205000D02*
X191889999Y-95864999D01*
X192154998Y-99060000D02*
X192870000Y-99060000D01*
X189230000Y-92580000D02*
X189230000Y-93205000D01*
X196970000Y-98110000D02*
X198120000Y-96960000D01*
X192870000Y-98110000D02*
X196970000Y-98110000D01*
X199390000Y-95690000D02*
X198120000Y-96960000D01*
X199390000Y-91440000D02*
X199390000Y-95690000D01*
X199390000Y-91440000D02*
X201930000Y-91440000D01*
X201930000Y-91440000D02*
X209550000Y-91440000D01*
X194741980Y-96960000D02*
X198120000Y-96960000D01*
X191511990Y-93730010D02*
X194741980Y-96960000D01*
X209550000Y-96327116D02*
X209550000Y-91440000D01*
X208183558Y-97693558D02*
X209550000Y-96327116D01*
D19*
X190105000Y-95380000D02*
X189230000Y-95380000D01*
X190670000Y-95945000D02*
X190105000Y-95380000D01*
X190670000Y-98110000D02*
X190670000Y-95945000D01*
X188090000Y-95380000D02*
X189230000Y-95380000D01*
X187198000Y-89916000D02*
X187198000Y-94488000D01*
X187198000Y-94488000D02*
X188090000Y-95380000D01*
X189890000Y-98110000D02*
X190670000Y-98110000D01*
X197771999Y-102325001D02*
X196382009Y-100935011D01*
X198664999Y-102325001D02*
X197771999Y-102325001D01*
X190155009Y-100935011D02*
X188654990Y-99434992D01*
X188654990Y-99434992D02*
X188654990Y-98821824D01*
X188654990Y-98821824D02*
X189366814Y-98110000D01*
X208280000Y-92710000D02*
X208280000Y-93485002D01*
X200927002Y-100838000D02*
X200152000Y-100838000D01*
X208280000Y-93485002D02*
X200927002Y-100838000D01*
X200152000Y-100838000D02*
X198664999Y-102325001D01*
X196382009Y-100935011D02*
X190155009Y-100935011D01*
X189366814Y-98110000D02*
X189890000Y-98110000D01*
D18*
X195840000Y-103260000D02*
X195981998Y-103260000D01*
X196940000Y-103260000D02*
X195840000Y-103260000D01*
X199240000Y-105560000D02*
X196940000Y-103260000D01*
X199890000Y-108490000D02*
X199890000Y-106210000D01*
X199890000Y-106210000D02*
X199240000Y-105560000D01*
D19*
X198120000Y-101600000D02*
X197005001Y-100485001D01*
X194125001Y-100485001D02*
X193650000Y-100010000D01*
X193650000Y-100010000D02*
X192870000Y-100010000D01*
X197005001Y-100485001D02*
X194125001Y-100485001D01*
X197890000Y-106995000D02*
X197890000Y-108490000D01*
X196342000Y-105447000D02*
X197890000Y-106995000D01*
X198890000Y-107715000D02*
X198890000Y-108490000D01*
X198890000Y-106921998D02*
X198890000Y-107715000D01*
X196690001Y-104721999D02*
X198890000Y-106921998D01*
X195956316Y-104721999D02*
X196690001Y-104721999D01*
X195072000Y-105606315D02*
X195956316Y-104721999D01*
X195072000Y-106172000D02*
X195072000Y-105606315D01*
D20*
G36*
X185388815Y-84550815D02*
G01*
X185309463Y-84647506D01*
X185250498Y-84757820D01*
X185214188Y-84877518D01*
X185201928Y-85002000D01*
X185205000Y-85566250D01*
X185363750Y-85725000D01*
X186563000Y-85725000D01*
X186563000Y-85705000D01*
X186817000Y-85705000D01*
X186817000Y-85725000D01*
X186837000Y-85725000D01*
X186837000Y-85979000D01*
X186817000Y-85979000D01*
X186817000Y-87178250D01*
X186975750Y-87337000D01*
X187540000Y-87340072D01*
X187664482Y-87327812D01*
X187784180Y-87291502D01*
X187894494Y-87232537D01*
X187991185Y-87153185D01*
X188070537Y-87056494D01*
X188129502Y-86946180D01*
X188151513Y-86873620D01*
X188283368Y-87005475D01*
X188526589Y-87167990D01*
X188796842Y-87279932D01*
X189083740Y-87337000D01*
X189376260Y-87337000D01*
X189663158Y-87279932D01*
X189933411Y-87167990D01*
X190176632Y-87005475D01*
X190383475Y-86798632D01*
X190500000Y-86624240D01*
X190616525Y-86798632D01*
X190823368Y-87005475D01*
X191066589Y-87167990D01*
X191336842Y-87279932D01*
X191623740Y-87337000D01*
X191916260Y-87337000D01*
X192203158Y-87279932D01*
X192473411Y-87167990D01*
X192716632Y-87005475D01*
X192923475Y-86798632D01*
X193040000Y-86624240D01*
X193156525Y-86798632D01*
X193363368Y-87005475D01*
X193606589Y-87167990D01*
X193876842Y-87279932D01*
X194163740Y-87337000D01*
X194456260Y-87337000D01*
X194743158Y-87279932D01*
X195013411Y-87167990D01*
X195256632Y-87005475D01*
X195463475Y-86798632D01*
X195580000Y-86624240D01*
X195696525Y-86798632D01*
X195903368Y-87005475D01*
X196146589Y-87167990D01*
X196416842Y-87279932D01*
X196703740Y-87337000D01*
X196996260Y-87337000D01*
X197283158Y-87279932D01*
X197553411Y-87167990D01*
X197796632Y-87005475D01*
X198003475Y-86798632D01*
X198120000Y-86624240D01*
X198236525Y-86798632D01*
X198443368Y-87005475D01*
X198686589Y-87167990D01*
X198956842Y-87279932D01*
X199243740Y-87337000D01*
X199536260Y-87337000D01*
X199823158Y-87279932D01*
X200093411Y-87167990D01*
X200336632Y-87005475D01*
X200543475Y-86798632D01*
X200660000Y-86624240D01*
X200776525Y-86798632D01*
X200983368Y-87005475D01*
X201226589Y-87167990D01*
X201496842Y-87279932D01*
X201783740Y-87337000D01*
X202076260Y-87337000D01*
X202363158Y-87279932D01*
X202633411Y-87167990D01*
X202876632Y-87005475D01*
X203083475Y-86798632D01*
X203200000Y-86624240D01*
X203316525Y-86798632D01*
X203523368Y-87005475D01*
X203766589Y-87167990D01*
X204036842Y-87279932D01*
X204323740Y-87337000D01*
X204616260Y-87337000D01*
X204903158Y-87279932D01*
X205173411Y-87167990D01*
X205416632Y-87005475D01*
X205623475Y-86798632D01*
X205740000Y-86624240D01*
X205856525Y-86798632D01*
X206063368Y-87005475D01*
X206306589Y-87167990D01*
X206576842Y-87279932D01*
X206863740Y-87337000D01*
X207156260Y-87337000D01*
X207443158Y-87279932D01*
X207713411Y-87167990D01*
X207956632Y-87005475D01*
X208163475Y-86798632D01*
X208280000Y-86624240D01*
X208396525Y-86798632D01*
X208603368Y-87005475D01*
X208846589Y-87167990D01*
X209116842Y-87279932D01*
X209403740Y-87337000D01*
X209696260Y-87337000D01*
X209983158Y-87279932D01*
X210253411Y-87167990D01*
X210496632Y-87005475D01*
X210703475Y-86798632D01*
X210865990Y-86555411D01*
X210977932Y-86285158D01*
X211035000Y-85998260D01*
X211035000Y-85705740D01*
X210977932Y-85418842D01*
X210865990Y-85148589D01*
X210703475Y-84905368D01*
X210496632Y-84698525D01*
X210253411Y-84536010D01*
X210118190Y-84480000D01*
X212700000Y-84480000D01*
X212700001Y-114910000D01*
X183540000Y-114910000D01*
X183540000Y-111714999D01*
X195351928Y-111714999D01*
X195351928Y-113015001D01*
X195368992Y-113188255D01*
X195419528Y-113354851D01*
X195501595Y-113508387D01*
X195612038Y-113642962D01*
X195746613Y-113753405D01*
X195900149Y-113835472D01*
X196066745Y-113886008D01*
X196239999Y-113903072D01*
X196940001Y-113903072D01*
X197113255Y-113886008D01*
X197279851Y-113835472D01*
X197433387Y-113753405D01*
X197567962Y-113642962D01*
X197678405Y-113508387D01*
X197760472Y-113354851D01*
X197811008Y-113188255D01*
X197828072Y-113015001D01*
X197828072Y-111714999D01*
X200951928Y-111714999D01*
X200951928Y-113015001D01*
X200968992Y-113188255D01*
X201019528Y-113354851D01*
X201101595Y-113508387D01*
X201212038Y-113642962D01*
X201346613Y-113753405D01*
X201500149Y-113835472D01*
X201666745Y-113886008D01*
X201839999Y-113903072D01*
X202540001Y-113903072D01*
X202713255Y-113886008D01*
X202879851Y-113835472D01*
X203033387Y-113753405D01*
X203167962Y-113642962D01*
X203278405Y-113508387D01*
X203360472Y-113354851D01*
X203411008Y-113188255D01*
X203428072Y-113015001D01*
X203428072Y-111714999D01*
X203411008Y-111541745D01*
X203360472Y-111375149D01*
X203278405Y-111221613D01*
X203167962Y-111087038D01*
X203033387Y-110976595D01*
X202879851Y-110894528D01*
X202713255Y-110843992D01*
X202540001Y-110826928D01*
X201839999Y-110826928D01*
X201666745Y-110843992D01*
X201500149Y-110894528D01*
X201346613Y-110976595D01*
X201212038Y-111087038D01*
X201101595Y-111221613D01*
X201019528Y-111375149D01*
X200968992Y-111541745D01*
X200951928Y-111714999D01*
X197828072Y-111714999D01*
X197811008Y-111541745D01*
X197760472Y-111375149D01*
X197678405Y-111221613D01*
X197567962Y-111087038D01*
X197433387Y-110976595D01*
X197279851Y-110894528D01*
X197113255Y-110843992D01*
X196940001Y-110826928D01*
X196239999Y-110826928D01*
X196066745Y-110843992D01*
X195900149Y-110894528D01*
X195746613Y-110976595D01*
X195612038Y-111087038D01*
X195501595Y-111221613D01*
X195419528Y-111375149D01*
X195368992Y-111541745D01*
X195351928Y-111714999D01*
X183540000Y-111714999D01*
X183540000Y-89814061D01*
X186163000Y-89814061D01*
X186163000Y-90017939D01*
X186202774Y-90217898D01*
X186280795Y-90406256D01*
X186394063Y-90575774D01*
X186438000Y-90619711D01*
X186438001Y-94450668D01*
X186434324Y-94488000D01*
X186448998Y-94636985D01*
X186492454Y-94780246D01*
X186563026Y-94912276D01*
X186634201Y-94999002D01*
X186658000Y-95028001D01*
X186686998Y-95051799D01*
X187526205Y-95891008D01*
X187549999Y-95920001D01*
X187578992Y-95943795D01*
X187578996Y-95943799D01*
X187649685Y-96001811D01*
X187665724Y-96014974D01*
X187778600Y-96075308D01*
X187784528Y-96094850D01*
X187866595Y-96248386D01*
X187977038Y-96382962D01*
X188111614Y-96493405D01*
X188265150Y-96575472D01*
X188431746Y-96626008D01*
X188605000Y-96643072D01*
X189855000Y-96643072D01*
X189910001Y-96637655D01*
X189910000Y-97191196D01*
X189895820Y-97195498D01*
X189785506Y-97254463D01*
X189688815Y-97333815D01*
X189675532Y-97350000D01*
X189404136Y-97350000D01*
X189366813Y-97346324D01*
X189329490Y-97350000D01*
X189329481Y-97350000D01*
X189217828Y-97360997D01*
X189074567Y-97404454D01*
X188942537Y-97475026D01*
X188887654Y-97520068D01*
X188826813Y-97569999D01*
X188803015Y-97598998D01*
X188143988Y-98258025D01*
X188114990Y-98281823D01*
X188091192Y-98310821D01*
X188091191Y-98310822D01*
X188020016Y-98397548D01*
X187974027Y-98483588D01*
X187949444Y-98529577D01*
X187905987Y-98672838D01*
X187894990Y-98784491D01*
X187894990Y-98784502D01*
X187891314Y-98821824D01*
X187894990Y-98859146D01*
X187894990Y-99397670D01*
X187891314Y-99434992D01*
X187894990Y-99472314D01*
X187894990Y-99472324D01*
X187905987Y-99583977D01*
X187946567Y-99717753D01*
X187949444Y-99727238D01*
X188020016Y-99859268D01*
X188021643Y-99861250D01*
X188114989Y-99974993D01*
X188143993Y-99998796D01*
X189591209Y-101446013D01*
X189615008Y-101475012D01*
X189730733Y-101569985D01*
X189862762Y-101640557D01*
X190006023Y-101684014D01*
X190117676Y-101695011D01*
X190117685Y-101695011D01*
X190155008Y-101698687D01*
X190192331Y-101695011D01*
X194805635Y-101695011D01*
X194788815Y-101708815D01*
X194709463Y-101805506D01*
X194650498Y-101915820D01*
X194614188Y-102035518D01*
X194601928Y-102160000D01*
X194601928Y-104360000D01*
X194614188Y-104484482D01*
X194650498Y-104604180D01*
X194709463Y-104714494D01*
X194788815Y-104811185D01*
X194790745Y-104812769D01*
X194560998Y-105042516D01*
X194532000Y-105066314D01*
X194508202Y-105095312D01*
X194508201Y-105095313D01*
X194437026Y-105182039D01*
X194416903Y-105219687D01*
X194366454Y-105314068D01*
X194323013Y-105457276D01*
X194268063Y-105512226D01*
X194154795Y-105681744D01*
X194076774Y-105870102D01*
X194037000Y-106070061D01*
X194037000Y-106273939D01*
X194076774Y-106473898D01*
X194154795Y-106662256D01*
X194268063Y-106831774D01*
X194412226Y-106975937D01*
X194581744Y-107089205D01*
X194770102Y-107167226D01*
X194970061Y-107207000D01*
X195173939Y-107207000D01*
X195373898Y-107167226D01*
X195562256Y-107089205D01*
X195731774Y-106975937D01*
X195875937Y-106831774D01*
X195989205Y-106662256D01*
X196067226Y-106473898D01*
X196072254Y-106448621D01*
X196240061Y-106482000D01*
X196302199Y-106482000D01*
X197130000Y-107309802D01*
X197130000Y-107372024D01*
X197084742Y-107427171D01*
X197011916Y-107563418D01*
X196967071Y-107711255D01*
X196951928Y-107865000D01*
X196951928Y-109115000D01*
X196967071Y-109268745D01*
X197011916Y-109416582D01*
X197084742Y-109552829D01*
X197182749Y-109672251D01*
X197302171Y-109770258D01*
X197438418Y-109843084D01*
X197586255Y-109887929D01*
X197740000Y-109903072D01*
X198040000Y-109903072D01*
X198193745Y-109887929D01*
X198341582Y-109843084D01*
X198390000Y-109817204D01*
X198438418Y-109843084D01*
X198586255Y-109887929D01*
X198740000Y-109903072D01*
X199040000Y-109903072D01*
X199193745Y-109887929D01*
X199341582Y-109843084D01*
X199390000Y-109817204D01*
X199438418Y-109843084D01*
X199586255Y-109887929D01*
X199740000Y-109903072D01*
X200040000Y-109903072D01*
X200193745Y-109887929D01*
X200330658Y-109846398D01*
X200345820Y-109854502D01*
X200465518Y-109890812D01*
X200590000Y-109903072D01*
X200604250Y-109900000D01*
X200763000Y-109741250D01*
X200763000Y-109426093D01*
X200768084Y-109416582D01*
X200812929Y-109268745D01*
X200828072Y-109115000D01*
X200828072Y-108617000D01*
X201017000Y-108617000D01*
X201017000Y-109741250D01*
X201175750Y-109900000D01*
X201190000Y-109903072D01*
X201314482Y-109890812D01*
X201434180Y-109854502D01*
X201544494Y-109795537D01*
X201641185Y-109716185D01*
X201720537Y-109619494D01*
X201779502Y-109509180D01*
X201815812Y-109389482D01*
X201828072Y-109265000D01*
X201825000Y-108775750D01*
X201666250Y-108617000D01*
X201017000Y-108617000D01*
X200828072Y-108617000D01*
X200828072Y-107865000D01*
X200812929Y-107711255D01*
X200775000Y-107586217D01*
X200775000Y-107238750D01*
X201017000Y-107238750D01*
X201017000Y-108363000D01*
X201666250Y-108363000D01*
X201825000Y-108204250D01*
X201828072Y-107715000D01*
X201815812Y-107590518D01*
X201779502Y-107470820D01*
X201720537Y-107360506D01*
X201641185Y-107263815D01*
X201544494Y-107184463D01*
X201434180Y-107125498D01*
X201314482Y-107089188D01*
X201190000Y-107076928D01*
X201175750Y-107080000D01*
X201017000Y-107238750D01*
X200775000Y-107238750D01*
X200775000Y-106253469D01*
X200779281Y-106210000D01*
X200775000Y-106166531D01*
X200775000Y-106166523D01*
X200762195Y-106036510D01*
X200711589Y-105869687D01*
X200629411Y-105715941D01*
X200601346Y-105681744D01*
X200546532Y-105614953D01*
X200546530Y-105614951D01*
X200518817Y-105581183D01*
X200485049Y-105553470D01*
X200246535Y-105314956D01*
X200235226Y-105258102D01*
X200157205Y-105069744D01*
X200107308Y-104995068D01*
X200114250Y-104995000D01*
X200273000Y-104836250D01*
X200273000Y-103387000D01*
X200527000Y-103387000D01*
X200527000Y-104836250D01*
X200685750Y-104995000D01*
X201000000Y-104998072D01*
X201124482Y-104985812D01*
X201244180Y-104949502D01*
X201354494Y-104890537D01*
X201451185Y-104811185D01*
X201530537Y-104714494D01*
X201589502Y-104604180D01*
X201625812Y-104484482D01*
X201638072Y-104360000D01*
X201635000Y-103545750D01*
X201476250Y-103387000D01*
X200527000Y-103387000D01*
X200273000Y-103387000D01*
X199323750Y-103387000D01*
X199165000Y-103545750D01*
X199162415Y-104230837D01*
X198016579Y-103085001D01*
X198627677Y-103085001D01*
X198664999Y-103088677D01*
X198702321Y-103085001D01*
X198702332Y-103085001D01*
X198813985Y-103074004D01*
X198957246Y-103030547D01*
X199089275Y-102959975D01*
X199164713Y-102898065D01*
X199165000Y-102974250D01*
X199323750Y-103133000D01*
X200273000Y-103133000D01*
X200273000Y-103113000D01*
X200527000Y-103113000D01*
X200527000Y-103133000D01*
X201476250Y-103133000D01*
X201635000Y-102974250D01*
X201638072Y-102160000D01*
X201625812Y-102035518D01*
X201589502Y-101915820D01*
X201530537Y-101805506D01*
X201451185Y-101708815D01*
X201354494Y-101629463D01*
X201244180Y-101570498D01*
X201187290Y-101553241D01*
X201219249Y-101543546D01*
X201351278Y-101472974D01*
X201467003Y-101378001D01*
X201490806Y-101348997D01*
X208665000Y-94174805D01*
X208665000Y-95960537D01*
X207938515Y-96687023D01*
X207881660Y-96698332D01*
X207693302Y-96776353D01*
X207523784Y-96889621D01*
X207379621Y-97033784D01*
X207266353Y-97203302D01*
X207188332Y-97391660D01*
X207148558Y-97591619D01*
X207148558Y-97795497D01*
X207188332Y-97995456D01*
X207266353Y-98183814D01*
X207379621Y-98353332D01*
X207523784Y-98497495D01*
X207693302Y-98610763D01*
X207881660Y-98688784D01*
X208081619Y-98728558D01*
X208285497Y-98728558D01*
X208485456Y-98688784D01*
X208673814Y-98610763D01*
X208843332Y-98497495D01*
X208987495Y-98353332D01*
X209100763Y-98183814D01*
X209178784Y-97995456D01*
X209190093Y-97938601D01*
X210145050Y-96983645D01*
X210178817Y-96955933D01*
X210233239Y-96889621D01*
X210289411Y-96821175D01*
X210307940Y-96786510D01*
X210371589Y-96667429D01*
X210422195Y-96500606D01*
X210435000Y-96370593D01*
X210435000Y-96370585D01*
X210439281Y-96327116D01*
X210435000Y-96283647D01*
X210435000Y-91978454D01*
X210467205Y-91930256D01*
X210545226Y-91741898D01*
X210585000Y-91541939D01*
X210585000Y-91338061D01*
X210545226Y-91138102D01*
X210467205Y-90949744D01*
X210353937Y-90780226D01*
X210209774Y-90636063D01*
X210040256Y-90522795D01*
X209851898Y-90444774D01*
X209651939Y-90405000D01*
X209448061Y-90405000D01*
X209248102Y-90444774D01*
X209059744Y-90522795D01*
X209011546Y-90555000D01*
X202468454Y-90555000D01*
X202420256Y-90522795D01*
X202231898Y-90444774D01*
X202031939Y-90405000D01*
X201828061Y-90405000D01*
X201628102Y-90444774D01*
X201439744Y-90522795D01*
X201391546Y-90555000D01*
X200609694Y-90555000D01*
X200585472Y-90475150D01*
X200503405Y-90321614D01*
X200392962Y-90187038D01*
X200258386Y-90076595D01*
X200104850Y-89994528D01*
X199938254Y-89943992D01*
X199765000Y-89926928D01*
X199015000Y-89926928D01*
X198841746Y-89943992D01*
X198675150Y-89994528D01*
X198521614Y-90076595D01*
X198387038Y-90187038D01*
X198276595Y-90321614D01*
X198194528Y-90475150D01*
X198143992Y-90641746D01*
X198126928Y-90815000D01*
X198126928Y-92065000D01*
X198143992Y-92238254D01*
X198194528Y-92404850D01*
X198276595Y-92558386D01*
X198387038Y-92692962D01*
X198505000Y-92789771D01*
X198505000Y-93121928D01*
X195220000Y-93121928D01*
X195095518Y-93134188D01*
X194975820Y-93170498D01*
X194865506Y-93229463D01*
X194768815Y-93308815D01*
X194689463Y-93405506D01*
X194630498Y-93515820D01*
X194594188Y-93635518D01*
X194581928Y-93760000D01*
X194581928Y-95548369D01*
X192518525Y-93484967D01*
X192507216Y-93428112D01*
X192429195Y-93239754D01*
X192315927Y-93070236D01*
X192171764Y-92926073D01*
X192002246Y-92812805D01*
X191813888Y-92734784D01*
X191613929Y-92695010D01*
X191410051Y-92695010D01*
X191210092Y-92734784D01*
X191021734Y-92812805D01*
X190852216Y-92926073D01*
X190741548Y-93036741D01*
X190740000Y-92865750D01*
X190581250Y-92707000D01*
X189357000Y-92707000D01*
X189357000Y-93681250D01*
X189515750Y-93840000D01*
X190105000Y-93843072D01*
X190229482Y-93830812D01*
X190349180Y-93794502D01*
X190459494Y-93735537D01*
X190476990Y-93721178D01*
X190476990Y-93831949D01*
X190516764Y-94031908D01*
X190594785Y-94220266D01*
X190708053Y-94389784D01*
X190852216Y-94533947D01*
X191021734Y-94647215D01*
X191210092Y-94725236D01*
X191266947Y-94736545D01*
X193755401Y-97225000D01*
X193699373Y-97225000D01*
X193644180Y-97195498D01*
X193524482Y-97159188D01*
X193400000Y-97146928D01*
X192340000Y-97146928D01*
X192215518Y-97159188D01*
X192095820Y-97195498D01*
X191985506Y-97254463D01*
X191888815Y-97333815D01*
X191809463Y-97430506D01*
X191770000Y-97504335D01*
X191730537Y-97430506D01*
X191651185Y-97333815D01*
X191554494Y-97254463D01*
X191444180Y-97195498D01*
X191430000Y-97191197D01*
X191430000Y-95982325D01*
X191433676Y-95945000D01*
X191430000Y-95907675D01*
X191430000Y-95907667D01*
X191419003Y-95796014D01*
X191375546Y-95652753D01*
X191304974Y-95520724D01*
X191210001Y-95404999D01*
X191181002Y-95381200D01*
X190736328Y-94936527D01*
X190726008Y-94831746D01*
X190675472Y-94665150D01*
X190593405Y-94511614D01*
X190482962Y-94377038D01*
X190348386Y-94266595D01*
X190194850Y-94184528D01*
X190028254Y-94133992D01*
X189855000Y-94116928D01*
X188605000Y-94116928D01*
X188431746Y-94133992D01*
X188265150Y-94184528D01*
X188111614Y-94266595D01*
X188078540Y-94293738D01*
X187958000Y-94173198D01*
X187958000Y-93700653D01*
X188000506Y-93735537D01*
X188110820Y-93794502D01*
X188230518Y-93830812D01*
X188355000Y-93843072D01*
X188944250Y-93840000D01*
X189103000Y-93681250D01*
X189103000Y-92707000D01*
X189083000Y-92707000D01*
X189083000Y-92453000D01*
X189103000Y-92453000D01*
X189103000Y-91478750D01*
X189357000Y-91478750D01*
X189357000Y-92453000D01*
X190581250Y-92453000D01*
X190719250Y-92315000D01*
X195326928Y-92315000D01*
X195339188Y-92439482D01*
X195375498Y-92559180D01*
X195434463Y-92669494D01*
X195513815Y-92766185D01*
X195610506Y-92845537D01*
X195720820Y-92904502D01*
X195840518Y-92940812D01*
X195965000Y-92953072D01*
X196304250Y-92950000D01*
X196463000Y-92791250D01*
X196463000Y-91567000D01*
X196717000Y-91567000D01*
X196717000Y-92791250D01*
X196875750Y-92950000D01*
X197215000Y-92953072D01*
X197339482Y-92940812D01*
X197459180Y-92904502D01*
X197569494Y-92845537D01*
X197666185Y-92766185D01*
X197745537Y-92669494D01*
X197804502Y-92559180D01*
X197840812Y-92439482D01*
X197853072Y-92315000D01*
X197850000Y-91725750D01*
X197691250Y-91567000D01*
X196717000Y-91567000D01*
X196463000Y-91567000D01*
X195488750Y-91567000D01*
X195330000Y-91725750D01*
X195326928Y-92315000D01*
X190719250Y-92315000D01*
X190740000Y-92294250D01*
X190743072Y-91955000D01*
X190730812Y-91830518D01*
X190694502Y-91710820D01*
X190635537Y-91600506D01*
X190556185Y-91503815D01*
X190459494Y-91424463D01*
X190349180Y-91365498D01*
X190229482Y-91329188D01*
X190105000Y-91316928D01*
X189515750Y-91320000D01*
X189357000Y-91478750D01*
X189103000Y-91478750D01*
X188944250Y-91320000D01*
X188355000Y-91316928D01*
X188230518Y-91329188D01*
X188110820Y-91365498D01*
X188000506Y-91424463D01*
X187958000Y-91459347D01*
X187958000Y-90619711D01*
X188001937Y-90575774D01*
X188009135Y-90565000D01*
X195326928Y-90565000D01*
X195330000Y-91154250D01*
X195488750Y-91313000D01*
X196463000Y-91313000D01*
X196463000Y-90088750D01*
X196717000Y-90088750D01*
X196717000Y-91313000D01*
X197691250Y-91313000D01*
X197850000Y-91154250D01*
X197853072Y-90565000D01*
X197840812Y-90440518D01*
X197804502Y-90320820D01*
X197745537Y-90210506D01*
X197666185Y-90113815D01*
X197569494Y-90034463D01*
X197459180Y-89975498D01*
X197339482Y-89939188D01*
X197215000Y-89926928D01*
X196875750Y-89930000D01*
X196717000Y-90088750D01*
X196463000Y-90088750D01*
X196304250Y-89930000D01*
X195965000Y-89926928D01*
X195840518Y-89939188D01*
X195720820Y-89975498D01*
X195610506Y-90034463D01*
X195513815Y-90113815D01*
X195434463Y-90210506D01*
X195375498Y-90320820D01*
X195339188Y-90440518D01*
X195326928Y-90565000D01*
X188009135Y-90565000D01*
X188115205Y-90406256D01*
X188193226Y-90217898D01*
X188233000Y-90017939D01*
X188233000Y-89814061D01*
X188193226Y-89614102D01*
X188115205Y-89425744D01*
X188001937Y-89256226D01*
X187857774Y-89112063D01*
X187688256Y-88998795D01*
X187499898Y-88920774D01*
X187299939Y-88881000D01*
X187096061Y-88881000D01*
X186896102Y-88920774D01*
X186707744Y-88998795D01*
X186538226Y-89112063D01*
X186394063Y-89256226D01*
X186280795Y-89425744D01*
X186202774Y-89614102D01*
X186163000Y-89814061D01*
X183540000Y-89814061D01*
X183540000Y-86702000D01*
X185201928Y-86702000D01*
X185214188Y-86826482D01*
X185250498Y-86946180D01*
X185309463Y-87056494D01*
X185388815Y-87153185D01*
X185485506Y-87232537D01*
X185595820Y-87291502D01*
X185715518Y-87327812D01*
X185840000Y-87340072D01*
X186404250Y-87337000D01*
X186563000Y-87178250D01*
X186563000Y-85979000D01*
X185363750Y-85979000D01*
X185205000Y-86137750D01*
X185201928Y-86702000D01*
X183540000Y-86702000D01*
X183540000Y-84480000D01*
X185475104Y-84480000D01*
X185388815Y-84550815D01*
G37*
X185388815Y-84550815D02*
X185309463Y-84647506D01*
X185250498Y-84757820D01*
X185214188Y-84877518D01*
X185201928Y-85002000D01*
X185205000Y-85566250D01*
X185363750Y-85725000D01*
X186563000Y-85725000D01*
X186563000Y-85705000D01*
X186817000Y-85705000D01*
X186817000Y-85725000D01*
X186837000Y-85725000D01*
X186837000Y-85979000D01*
X186817000Y-85979000D01*
X186817000Y-87178250D01*
X186975750Y-87337000D01*
X187540000Y-87340072D01*
X187664482Y-87327812D01*
X187784180Y-87291502D01*
X187894494Y-87232537D01*
X187991185Y-87153185D01*
X188070537Y-87056494D01*
X188129502Y-86946180D01*
X188151513Y-86873620D01*
X188283368Y-87005475D01*
X188526589Y-87167990D01*
X188796842Y-87279932D01*
X189083740Y-87337000D01*
X189376260Y-87337000D01*
X189663158Y-87279932D01*
X189933411Y-87167990D01*
X190176632Y-87005475D01*
X190383475Y-86798632D01*
X190500000Y-86624240D01*
X190616525Y-86798632D01*
X190823368Y-87005475D01*
X191066589Y-87167990D01*
X191336842Y-87279932D01*
X191623740Y-87337000D01*
X191916260Y-87337000D01*
X192203158Y-87279932D01*
X192473411Y-87167990D01*
X192716632Y-87005475D01*
X192923475Y-86798632D01*
X193040000Y-86624240D01*
X193156525Y-86798632D01*
X193363368Y-87005475D01*
X193606589Y-87167990D01*
X193876842Y-87279932D01*
X194163740Y-87337000D01*
X194456260Y-87337000D01*
X194743158Y-87279932D01*
X195013411Y-87167990D01*
X195256632Y-87005475D01*
X195463475Y-86798632D01*
X195580000Y-86624240D01*
X195696525Y-86798632D01*
X195903368Y-87005475D01*
X196146589Y-87167990D01*
X196416842Y-87279932D01*
X196703740Y-87337000D01*
X196996260Y-87337000D01*
X197283158Y-87279932D01*
X197553411Y-87167990D01*
X197796632Y-87005475D01*
X198003475Y-86798632D01*
X198120000Y-86624240D01*
X198236525Y-86798632D01*
X198443368Y-87005475D01*
X198686589Y-87167990D01*
X198956842Y-87279932D01*
X199243740Y-87337000D01*
X199536260Y-87337000D01*
X199823158Y-87279932D01*
X200093411Y-87167990D01*
X200336632Y-87005475D01*
X200543475Y-86798632D01*
X200660000Y-86624240D01*
X200776525Y-86798632D01*
X200983368Y-87005475D01*
X201226589Y-87167990D01*
X201496842Y-87279932D01*
X201783740Y-87337000D01*
X202076260Y-87337000D01*
X202363158Y-87279932D01*
X202633411Y-87167990D01*
X202876632Y-87005475D01*
X203083475Y-86798632D01*
X203200000Y-86624240D01*
X203316525Y-86798632D01*
X203523368Y-87005475D01*
X203766589Y-87167990D01*
X204036842Y-87279932D01*
X204323740Y-87337000D01*
X204616260Y-87337000D01*
X204903158Y-87279932D01*
X205173411Y-87167990D01*
X205416632Y-87005475D01*
X205623475Y-86798632D01*
X205740000Y-86624240D01*
X205856525Y-86798632D01*
X206063368Y-87005475D01*
X206306589Y-87167990D01*
X206576842Y-87279932D01*
X206863740Y-87337000D01*
X207156260Y-87337000D01*
X207443158Y-87279932D01*
X207713411Y-87167990D01*
X207956632Y-87005475D01*
X208163475Y-86798632D01*
X208280000Y-86624240D01*
X208396525Y-86798632D01*
X208603368Y-87005475D01*
X208846589Y-87167990D01*
X209116842Y-87279932D01*
X209403740Y-87337000D01*
X209696260Y-87337000D01*
X209983158Y-87279932D01*
X210253411Y-87167990D01*
X210496632Y-87005475D01*
X210703475Y-86798632D01*
X210865990Y-86555411D01*
X210977932Y-86285158D01*
X211035000Y-85998260D01*
X211035000Y-85705740D01*
X210977932Y-85418842D01*
X210865990Y-85148589D01*
X210703475Y-84905368D01*
X210496632Y-84698525D01*
X210253411Y-84536010D01*
X210118190Y-84480000D01*
X212700000Y-84480000D01*
X212700001Y-114910000D01*
X183540000Y-114910000D01*
X183540000Y-111714999D01*
X195351928Y-111714999D01*
X195351928Y-113015001D01*
X195368992Y-113188255D01*
X195419528Y-113354851D01*
X195501595Y-113508387D01*
X195612038Y-113642962D01*
X195746613Y-113753405D01*
X195900149Y-113835472D01*
X196066745Y-113886008D01*
X196239999Y-113903072D01*
X196940001Y-113903072D01*
X197113255Y-113886008D01*
X197279851Y-113835472D01*
X197433387Y-113753405D01*
X197567962Y-113642962D01*
X197678405Y-113508387D01*
X197760472Y-113354851D01*
X197811008Y-113188255D01*
X197828072Y-113015001D01*
X197828072Y-111714999D01*
X200951928Y-111714999D01*
X200951928Y-113015001D01*
X200968992Y-113188255D01*
X201019528Y-113354851D01*
X201101595Y-113508387D01*
X201212038Y-113642962D01*
X201346613Y-113753405D01*
X201500149Y-113835472D01*
X201666745Y-113886008D01*
X201839999Y-113903072D01*
X202540001Y-113903072D01*
X202713255Y-113886008D01*
X202879851Y-113835472D01*
X203033387Y-113753405D01*
X203167962Y-113642962D01*
X203278405Y-113508387D01*
X203360472Y-113354851D01*
X203411008Y-113188255D01*
X203428072Y-113015001D01*
X203428072Y-111714999D01*
X203411008Y-111541745D01*
X203360472Y-111375149D01*
X203278405Y-111221613D01*
X203167962Y-111087038D01*
X203033387Y-110976595D01*
X202879851Y-110894528D01*
X202713255Y-110843992D01*
X202540001Y-110826928D01*
X201839999Y-110826928D01*
X201666745Y-110843992D01*
X201500149Y-110894528D01*
X201346613Y-110976595D01*
X201212038Y-111087038D01*
X201101595Y-111221613D01*
X201019528Y-111375149D01*
X200968992Y-111541745D01*
X200951928Y-111714999D01*
X197828072Y-111714999D01*
X197811008Y-111541745D01*
X197760472Y-111375149D01*
X197678405Y-111221613D01*
X197567962Y-111087038D01*
X197433387Y-110976595D01*
X197279851Y-110894528D01*
X197113255Y-110843992D01*
X196940001Y-110826928D01*
X196239999Y-110826928D01*
X196066745Y-110843992D01*
X195900149Y-110894528D01*
X195746613Y-110976595D01*
X195612038Y-111087038D01*
X195501595Y-111221613D01*
X195419528Y-111375149D01*
X195368992Y-111541745D01*
X195351928Y-111714999D01*
X183540000Y-111714999D01*
X183540000Y-89814061D01*
X186163000Y-89814061D01*
X186163000Y-90017939D01*
X186202774Y-90217898D01*
X186280795Y-90406256D01*
X186394063Y-90575774D01*
X186438000Y-90619711D01*
X186438001Y-94450668D01*
X186434324Y-94488000D01*
X186448998Y-94636985D01*
X186492454Y-94780246D01*
X186563026Y-94912276D01*
X186634201Y-94999002D01*
X186658000Y-95028001D01*
X186686998Y-95051799D01*
X187526205Y-95891008D01*
X187549999Y-95920001D01*
X187578992Y-95943795D01*
X187578996Y-95943799D01*
X187649685Y-96001811D01*
X187665724Y-96014974D01*
X187778600Y-96075308D01*
X187784528Y-96094850D01*
X187866595Y-96248386D01*
X187977038Y-96382962D01*
X188111614Y-96493405D01*
X188265150Y-96575472D01*
X188431746Y-96626008D01*
X188605000Y-96643072D01*
X189855000Y-96643072D01*
X189910001Y-96637655D01*
X189910000Y-97191196D01*
X189895820Y-97195498D01*
X189785506Y-97254463D01*
X189688815Y-97333815D01*
X189675532Y-97350000D01*
X189404136Y-97350000D01*
X189366813Y-97346324D01*
X189329490Y-97350000D01*
X189329481Y-97350000D01*
X189217828Y-97360997D01*
X189074567Y-97404454D01*
X188942537Y-97475026D01*
X188887654Y-97520068D01*
X188826813Y-97569999D01*
X188803015Y-97598998D01*
X188143988Y-98258025D01*
X188114990Y-98281823D01*
X188091192Y-98310821D01*
X188091191Y-98310822D01*
X188020016Y-98397548D01*
X187974027Y-98483588D01*
X187949444Y-98529577D01*
X187905987Y-98672838D01*
X187894990Y-98784491D01*
X187894990Y-98784502D01*
X187891314Y-98821824D01*
X187894990Y-98859146D01*
X187894990Y-99397670D01*
X187891314Y-99434992D01*
X187894990Y-99472314D01*
X187894990Y-99472324D01*
X187905987Y-99583977D01*
X187946567Y-99717753D01*
X187949444Y-99727238D01*
X188020016Y-99859268D01*
X188021643Y-99861250D01*
X188114989Y-99974993D01*
X188143993Y-99998796D01*
X189591209Y-101446013D01*
X189615008Y-101475012D01*
X189730733Y-101569985D01*
X189862762Y-101640557D01*
X190006023Y-101684014D01*
X190117676Y-101695011D01*
X190117685Y-101695011D01*
X190155008Y-101698687D01*
X190192331Y-101695011D01*
X194805635Y-101695011D01*
X194788815Y-101708815D01*
X194709463Y-101805506D01*
X194650498Y-101915820D01*
X194614188Y-102035518D01*
X194601928Y-102160000D01*
X194601928Y-104360000D01*
X194614188Y-104484482D01*
X194650498Y-104604180D01*
X194709463Y-104714494D01*
X194788815Y-104811185D01*
X194790745Y-104812769D01*
X194560998Y-105042516D01*
X194532000Y-105066314D01*
X194508202Y-105095312D01*
X194508201Y-105095313D01*
X194437026Y-105182039D01*
X194416903Y-105219687D01*
X194366454Y-105314068D01*
X194323013Y-105457276D01*
X194268063Y-105512226D01*
X194154795Y-105681744D01*
X194076774Y-105870102D01*
X194037000Y-106070061D01*
X194037000Y-106273939D01*
X194076774Y-106473898D01*
X194154795Y-106662256D01*
X194268063Y-106831774D01*
X194412226Y-106975937D01*
X194581744Y-107089205D01*
X194770102Y-107167226D01*
X194970061Y-107207000D01*
X195173939Y-107207000D01*
X195373898Y-107167226D01*
X195562256Y-107089205D01*
X195731774Y-106975937D01*
X195875937Y-106831774D01*
X195989205Y-106662256D01*
X196067226Y-106473898D01*
X196072254Y-106448621D01*
X196240061Y-106482000D01*
X196302199Y-106482000D01*
X197130000Y-107309802D01*
X197130000Y-107372024D01*
X197084742Y-107427171D01*
X197011916Y-107563418D01*
X196967071Y-107711255D01*
X196951928Y-107865000D01*
X196951928Y-109115000D01*
X196967071Y-109268745D01*
X197011916Y-109416582D01*
X197084742Y-109552829D01*
X197182749Y-109672251D01*
X197302171Y-109770258D01*
X197438418Y-109843084D01*
X197586255Y-109887929D01*
X197740000Y-109903072D01*
X198040000Y-109903072D01*
X198193745Y-109887929D01*
X198341582Y-109843084D01*
X198390000Y-109817204D01*
X198438418Y-109843084D01*
X198586255Y-109887929D01*
X198740000Y-109903072D01*
X199040000Y-109903072D01*
X199193745Y-109887929D01*
X199341582Y-109843084D01*
X199390000Y-109817204D01*
X199438418Y-109843084D01*
X199586255Y-109887929D01*
X199740000Y-109903072D01*
X200040000Y-109903072D01*
X200193745Y-109887929D01*
X200330658Y-109846398D01*
X200345820Y-109854502D01*
X200465518Y-109890812D01*
X200590000Y-109903072D01*
X200604250Y-109900000D01*
X200763000Y-109741250D01*
X200763000Y-109426093D01*
X200768084Y-109416582D01*
X200812929Y-109268745D01*
X200828072Y-109115000D01*
X200828072Y-108617000D01*
X201017000Y-108617000D01*
X201017000Y-109741250D01*
X201175750Y-109900000D01*
X201190000Y-109903072D01*
X201314482Y-109890812D01*
X201434180Y-109854502D01*
X201544494Y-109795537D01*
X201641185Y-109716185D01*
X201720537Y-109619494D01*
X201779502Y-109509180D01*
X201815812Y-109389482D01*
X201828072Y-109265000D01*
X201825000Y-108775750D01*
X201666250Y-108617000D01*
X201017000Y-108617000D01*
X200828072Y-108617000D01*
X200828072Y-107865000D01*
X200812929Y-107711255D01*
X200775000Y-107586217D01*
X200775000Y-107238750D01*
X201017000Y-107238750D01*
X201017000Y-108363000D01*
X201666250Y-108363000D01*
X201825000Y-108204250D01*
X201828072Y-107715000D01*
X201815812Y-107590518D01*
X201779502Y-107470820D01*
X201720537Y-107360506D01*
X201641185Y-107263815D01*
X201544494Y-107184463D01*
X201434180Y-107125498D01*
X201314482Y-107089188D01*
X201190000Y-107076928D01*
X201175750Y-107080000D01*
X201017000Y-107238750D01*
X200775000Y-107238750D01*
X200775000Y-106253469D01*
X200779281Y-106210000D01*
X200775000Y-106166531D01*
X200775000Y-106166523D01*
X200762195Y-106036510D01*
X200711589Y-105869687D01*
X200629411Y-105715941D01*
X200601346Y-105681744D01*
X200546532Y-105614953D01*
X200546530Y-105614951D01*
X200518817Y-105581183D01*
X200485049Y-105553470D01*
X200246535Y-105314956D01*
X200235226Y-105258102D01*
X200157205Y-105069744D01*
X200107308Y-104995068D01*
X200114250Y-104995000D01*
X200273000Y-104836250D01*
X200273000Y-103387000D01*
X200527000Y-103387000D01*
X200527000Y-104836250D01*
X200685750Y-104995000D01*
X201000000Y-104998072D01*
X201124482Y-104985812D01*
X201244180Y-104949502D01*
X201354494Y-104890537D01*
X201451185Y-104811185D01*
X201530537Y-104714494D01*
X201589502Y-104604180D01*
X201625812Y-104484482D01*
X201638072Y-104360000D01*
X201635000Y-103545750D01*
X201476250Y-103387000D01*
X200527000Y-103387000D01*
X200273000Y-103387000D01*
X199323750Y-103387000D01*
X199165000Y-103545750D01*
X199162415Y-104230837D01*
X198016579Y-103085001D01*
X198627677Y-103085001D01*
X198664999Y-103088677D01*
X198702321Y-103085001D01*
X198702332Y-103085001D01*
X198813985Y-103074004D01*
X198957246Y-103030547D01*
X199089275Y-102959975D01*
X199164713Y-102898065D01*
X199165000Y-102974250D01*
X199323750Y-103133000D01*
X200273000Y-103133000D01*
X200273000Y-103113000D01*
X200527000Y-103113000D01*
X200527000Y-103133000D01*
X201476250Y-103133000D01*
X201635000Y-102974250D01*
X201638072Y-102160000D01*
X201625812Y-102035518D01*
X201589502Y-101915820D01*
X201530537Y-101805506D01*
X201451185Y-101708815D01*
X201354494Y-101629463D01*
X201244180Y-101570498D01*
X201187290Y-101553241D01*
X201219249Y-101543546D01*
X201351278Y-101472974D01*
X201467003Y-101378001D01*
X201490806Y-101348997D01*
X208665000Y-94174805D01*
X208665000Y-95960537D01*
X207938515Y-96687023D01*
X207881660Y-96698332D01*
X207693302Y-96776353D01*
X207523784Y-96889621D01*
X207379621Y-97033784D01*
X207266353Y-97203302D01*
X207188332Y-97391660D01*
X207148558Y-97591619D01*
X207148558Y-97795497D01*
X207188332Y-97995456D01*
X207266353Y-98183814D01*
X207379621Y-98353332D01*
X207523784Y-98497495D01*
X207693302Y-98610763D01*
X207881660Y-98688784D01*
X208081619Y-98728558D01*
X208285497Y-98728558D01*
X208485456Y-98688784D01*
X208673814Y-98610763D01*
X208843332Y-98497495D01*
X208987495Y-98353332D01*
X209100763Y-98183814D01*
X209178784Y-97995456D01*
X209190093Y-97938601D01*
X210145050Y-96983645D01*
X210178817Y-96955933D01*
X210233239Y-96889621D01*
X210289411Y-96821175D01*
X210307940Y-96786510D01*
X210371589Y-96667429D01*
X210422195Y-96500606D01*
X210435000Y-96370593D01*
X210435000Y-96370585D01*
X210439281Y-96327116D01*
X210435000Y-96283647D01*
X210435000Y-91978454D01*
X210467205Y-91930256D01*
X210545226Y-91741898D01*
X210585000Y-91541939D01*
X210585000Y-91338061D01*
X210545226Y-91138102D01*
X210467205Y-90949744D01*
X210353937Y-90780226D01*
X210209774Y-90636063D01*
X210040256Y-90522795D01*
X209851898Y-90444774D01*
X209651939Y-90405000D01*
X209448061Y-90405000D01*
X209248102Y-90444774D01*
X209059744Y-90522795D01*
X209011546Y-90555000D01*
X202468454Y-90555000D01*
X202420256Y-90522795D01*
X202231898Y-90444774D01*
X202031939Y-90405000D01*
X201828061Y-90405000D01*
X201628102Y-90444774D01*
X201439744Y-90522795D01*
X201391546Y-90555000D01*
X200609694Y-90555000D01*
X200585472Y-90475150D01*
X200503405Y-90321614D01*
X200392962Y-90187038D01*
X200258386Y-90076595D01*
X200104850Y-89994528D01*
X199938254Y-89943992D01*
X199765000Y-89926928D01*
X199015000Y-89926928D01*
X198841746Y-89943992D01*
X198675150Y-89994528D01*
X198521614Y-90076595D01*
X198387038Y-90187038D01*
X198276595Y-90321614D01*
X198194528Y-90475150D01*
X198143992Y-90641746D01*
X198126928Y-90815000D01*
X198126928Y-92065000D01*
X198143992Y-92238254D01*
X198194528Y-92404850D01*
X198276595Y-92558386D01*
X198387038Y-92692962D01*
X198505000Y-92789771D01*
X198505000Y-93121928D01*
X195220000Y-93121928D01*
X195095518Y-93134188D01*
X194975820Y-93170498D01*
X194865506Y-93229463D01*
X194768815Y-93308815D01*
X194689463Y-93405506D01*
X194630498Y-93515820D01*
X194594188Y-93635518D01*
X194581928Y-93760000D01*
X194581928Y-95548369D01*
X192518525Y-93484967D01*
X192507216Y-93428112D01*
X192429195Y-93239754D01*
X192315927Y-93070236D01*
X192171764Y-92926073D01*
X192002246Y-92812805D01*
X191813888Y-92734784D01*
X191613929Y-92695010D01*
X191410051Y-92695010D01*
X191210092Y-92734784D01*
X191021734Y-92812805D01*
X190852216Y-92926073D01*
X190741548Y-93036741D01*
X190740000Y-92865750D01*
X190581250Y-92707000D01*
X189357000Y-92707000D01*
X189357000Y-93681250D01*
X189515750Y-93840000D01*
X190105000Y-93843072D01*
X190229482Y-93830812D01*
X190349180Y-93794502D01*
X190459494Y-93735537D01*
X190476990Y-93721178D01*
X190476990Y-93831949D01*
X190516764Y-94031908D01*
X190594785Y-94220266D01*
X190708053Y-94389784D01*
X190852216Y-94533947D01*
X191021734Y-94647215D01*
X191210092Y-94725236D01*
X191266947Y-94736545D01*
X193755401Y-97225000D01*
X193699373Y-97225000D01*
X193644180Y-97195498D01*
X193524482Y-97159188D01*
X193400000Y-97146928D01*
X192340000Y-97146928D01*
X192215518Y-97159188D01*
X192095820Y-97195498D01*
X191985506Y-97254463D01*
X191888815Y-97333815D01*
X191809463Y-97430506D01*
X191770000Y-97504335D01*
X191730537Y-97430506D01*
X191651185Y-97333815D01*
X191554494Y-97254463D01*
X191444180Y-97195498D01*
X191430000Y-97191197D01*
X191430000Y-95982325D01*
X191433676Y-95945000D01*
X191430000Y-95907675D01*
X191430000Y-95907667D01*
X191419003Y-95796014D01*
X191375546Y-95652753D01*
X191304974Y-95520724D01*
X191210001Y-95404999D01*
X191181002Y-95381200D01*
X190736328Y-94936527D01*
X190726008Y-94831746D01*
X190675472Y-94665150D01*
X190593405Y-94511614D01*
X190482962Y-94377038D01*
X190348386Y-94266595D01*
X190194850Y-94184528D01*
X190028254Y-94133992D01*
X189855000Y-94116928D01*
X188605000Y-94116928D01*
X188431746Y-94133992D01*
X188265150Y-94184528D01*
X188111614Y-94266595D01*
X188078540Y-94293738D01*
X187958000Y-94173198D01*
X187958000Y-93700653D01*
X188000506Y-93735537D01*
X188110820Y-93794502D01*
X188230518Y-93830812D01*
X188355000Y-93843072D01*
X188944250Y-93840000D01*
X189103000Y-93681250D01*
X189103000Y-92707000D01*
X189083000Y-92707000D01*
X189083000Y-92453000D01*
X189103000Y-92453000D01*
X189103000Y-91478750D01*
X189357000Y-91478750D01*
X189357000Y-92453000D01*
X190581250Y-92453000D01*
X190719250Y-92315000D01*
X195326928Y-92315000D01*
X195339188Y-92439482D01*
X195375498Y-92559180D01*
X195434463Y-92669494D01*
X195513815Y-92766185D01*
X195610506Y-92845537D01*
X195720820Y-92904502D01*
X195840518Y-92940812D01*
X195965000Y-92953072D01*
X196304250Y-92950000D01*
X196463000Y-92791250D01*
X196463000Y-91567000D01*
X196717000Y-91567000D01*
X196717000Y-92791250D01*
X196875750Y-92950000D01*
X197215000Y-92953072D01*
X197339482Y-92940812D01*
X197459180Y-92904502D01*
X197569494Y-92845537D01*
X197666185Y-92766185D01*
X197745537Y-92669494D01*
X197804502Y-92559180D01*
X197840812Y-92439482D01*
X197853072Y-92315000D01*
X197850000Y-91725750D01*
X197691250Y-91567000D01*
X196717000Y-91567000D01*
X196463000Y-91567000D01*
X195488750Y-91567000D01*
X195330000Y-91725750D01*
X195326928Y-92315000D01*
X190719250Y-92315000D01*
X190740000Y-92294250D01*
X190743072Y-91955000D01*
X190730812Y-91830518D01*
X190694502Y-91710820D01*
X190635537Y-91600506D01*
X190556185Y-91503815D01*
X190459494Y-91424463D01*
X190349180Y-91365498D01*
X190229482Y-91329188D01*
X190105000Y-91316928D01*
X189515750Y-91320000D01*
X189357000Y-91478750D01*
X189103000Y-91478750D01*
X188944250Y-91320000D01*
X188355000Y-91316928D01*
X188230518Y-91329188D01*
X188110820Y-91365498D01*
X188000506Y-91424463D01*
X187958000Y-91459347D01*
X187958000Y-90619711D01*
X188001937Y-90575774D01*
X188009135Y-90565000D01*
X195326928Y-90565000D01*
X195330000Y-91154250D01*
X195488750Y-91313000D01*
X196463000Y-91313000D01*
X196463000Y-90088750D01*
X196717000Y-90088750D01*
X196717000Y-91313000D01*
X197691250Y-91313000D01*
X197850000Y-91154250D01*
X197853072Y-90565000D01*
X197840812Y-90440518D01*
X197804502Y-90320820D01*
X197745537Y-90210506D01*
X197666185Y-90113815D01*
X197569494Y-90034463D01*
X197459180Y-89975498D01*
X197339482Y-89939188D01*
X197215000Y-89926928D01*
X196875750Y-89930000D01*
X196717000Y-90088750D01*
X196463000Y-90088750D01*
X196304250Y-89930000D01*
X195965000Y-89926928D01*
X195840518Y-89939188D01*
X195720820Y-89975498D01*
X195610506Y-90034463D01*
X195513815Y-90113815D01*
X195434463Y-90210506D01*
X195375498Y-90320820D01*
X195339188Y-90440518D01*
X195326928Y-90565000D01*
X188009135Y-90565000D01*
X188115205Y-90406256D01*
X188193226Y-90217898D01*
X188233000Y-90017939D01*
X188233000Y-89814061D01*
X188193226Y-89614102D01*
X188115205Y-89425744D01*
X188001937Y-89256226D01*
X187857774Y-89112063D01*
X187688256Y-88998795D01*
X187499898Y-88920774D01*
X187299939Y-88881000D01*
X187096061Y-88881000D01*
X186896102Y-88920774D01*
X186707744Y-88998795D01*
X186538226Y-89112063D01*
X186394063Y-89256226D01*
X186280795Y-89425744D01*
X186202774Y-89614102D01*
X186163000Y-89814061D01*
X183540000Y-89814061D01*
X183540000Y-86702000D01*
X185201928Y-86702000D01*
X185214188Y-86826482D01*
X185250498Y-86946180D01*
X185309463Y-87056494D01*
X185388815Y-87153185D01*
X185485506Y-87232537D01*
X185595820Y-87291502D01*
X185715518Y-87327812D01*
X185840000Y-87340072D01*
X186404250Y-87337000D01*
X186563000Y-87178250D01*
X186563000Y-85979000D01*
X185363750Y-85979000D01*
X185205000Y-86137750D01*
X185201928Y-86702000D01*
X183540000Y-86702000D01*
X183540000Y-84480000D01*
X185475104Y-84480000D01*
X185388815Y-84550815D01*
G36*
X191863750Y-98933000D02*
G01*
X191945859Y-98933000D01*
X191985506Y-98965537D01*
X192095820Y-99024502D01*
X192212841Y-99060000D01*
X192095820Y-99095498D01*
X191985506Y-99154463D01*
X191945859Y-99187000D01*
X191863750Y-99187000D01*
X191725897Y-99324853D01*
X191651185Y-99233815D01*
X191554494Y-99154463D01*
X191444180Y-99095498D01*
X191327159Y-99060000D01*
X191444180Y-99024502D01*
X191554494Y-98965537D01*
X191651185Y-98886185D01*
X191725897Y-98795147D01*
X191863750Y-98933000D01*
G37*
X191863750Y-98933000D02*
X191945859Y-98933000D01*
X191985506Y-98965537D01*
X192095820Y-99024502D01*
X192212841Y-99060000D01*
X192095820Y-99095498D01*
X191985506Y-99154463D01*
X191945859Y-99187000D01*
X191863750Y-99187000D01*
X191725897Y-99324853D01*
X191651185Y-99233815D01*
X191554494Y-99154463D01*
X191444180Y-99095498D01*
X191327159Y-99060000D01*
X191444180Y-99024502D01*
X191554494Y-98965537D01*
X191651185Y-98886185D01*
X191725897Y-98795147D01*
X191863750Y-98933000D01*
M02*
